<svg width="18" height="25" viewBox="0 0 18 25" fill="none" xmlns="http://www.w3.org/2000/svg">
<path d="M15.9102 21.0428L14.4202 19.0818V6.62635C14.4202 6.40886 14.2352 6.23267 14.0068 6.23267C13.7785 6.23267 13.5935 6.40886 13.5935 6.62635V18.8158H4.40742V16.6565C4.40742 16.439 4.22243 16.2628 3.99408 16.2628C3.76572 16.2628 3.58073 16.439 3.58073 16.6565V19.0645L2.07744 21.0428C2.01797 21.1211 1.99258 21.2158 2.00126 21.3087V23.7961C2.00126 24.0136 2.18626 24.1898 2.41461 24.1898H15.5729C15.8012 24.1898 15.9863 24.0136 15.9863 23.7961V21.3091C15.9952 21.216 15.9698 21.1212 15.9102 21.0428ZM4.19193 19.6031H13.7957L14.766 20.8799H3.22163L4.19193 19.6031ZM15.1596 23.4024H2.82796V21.6673H15.1596V23.4024Z" fill="#00AEE8"/>
<path d="M9 5.86047C8.7715 5.86047 8.5864 5.98402 8.5864 6.13653V16.9322C8.5864 17.0848 8.7715 17.2083 9 17.2083C9.2285 17.2083 9.41361 17.0847 9.41361 16.9322V6.13653C9.41361 5.98402 9.2285 5.86047 9 5.86047Z" fill="#00AEE8"/>
<path d="M7.17063 5.86047C6.94213 5.86047 6.75702 5.98402 6.75702 6.13653V16.9322C6.75702 17.0848 6.94213 17.2083 7.17063 17.2083C7.39913 17.2083 7.58423 17.0847 7.58423 16.9322V6.13653C7.58423 5.98402 7.39907 5.86047 7.17063 5.86047Z" fill="#00AEE8"/>
<path d="M10.8293 5.86047C10.6008 5.86047 10.4157 5.98402 10.4157 6.13653V16.9322C10.4157 17.0848 10.6008 17.2083 10.8293 17.2083C11.0578 17.2083 11.243 17.0847 11.243 16.9322V6.13653C11.243 5.98402 11.0578 5.86047 10.8293 5.86047Z" fill="#00AEE8"/>
<path d="M17.5867 0.711426H0.413347C0.185047 0.711426 0 0.88767 0 1.10511V3.67983C0 4.83696 0.988384 5.77833 2.20331 5.77833C2.72421 5.77833 3.20312 5.60491 3.58069 5.31597V18.4039C3.58069 18.6214 3.76568 18.7976 3.99404 18.7976C4.22239 18.7976 4.40739 18.6214 4.40739 18.4039V4.07383H13.5934V8.37357C13.5934 8.59106 13.7784 8.76725 14.0068 8.76725C14.2351 8.76725 14.4201 8.59106 14.4201 8.37357V5.31659C14.7975 5.60512 15.2762 5.77833 15.7967 5.77833C17.0116 5.77833 18 4.83696 18 3.67983V1.10511C18 0.88767 17.815 0.711426 17.5867 0.711426ZM17.1733 3.67983C17.1733 4.40281 16.5557 4.99096 15.7967 4.99096C15.0512 4.99096 14.4427 4.42349 14.4212 3.71831C14.4321 3.24919 14.8353 2.87053 15.3304 2.87053C15.6864 2.87053 15.976 3.14639 15.976 3.48542C15.976 3.5473 15.9563 3.59373 15.9158 3.62744C15.8737 3.66251 15.8274 3.67057 15.811 3.66952C15.5975 3.60058 15.3645 3.70737 15.2887 3.91036C15.2122 4.11523 15.3245 4.34037 15.5396 4.41328C15.6259 4.44254 15.7183 4.45678 15.8126 4.45678C16.0061 4.45673 16.2071 4.39659 16.3774 4.28211C16.6477 4.10042 16.8028 3.81012 16.8028 3.48542C16.8028 2.71224 16.1423 2.08317 15.3305 2.08317C14.537 2.08317 13.8666 2.59269 13.6598 3.28615H4.32797C4.1211 2.59269 3.45066 2.08317 2.65722 2.08317C1.84542 2.08317 1.18492 2.71219 1.18492 3.48542C1.18492 3.81007 1.33996 4.10042 1.6103 4.28211C1.78062 4.39659 1.9816 4.45678 2.17511 4.45678C2.26937 4.45678 2.36176 4.44249 2.4481 4.41328C2.66315 4.34037 2.77543 4.11523 2.69898 3.91036C2.62314 3.70731 2.39011 3.60058 2.17665 3.66952C2.16061 3.67062 2.11395 3.66251 2.07185 3.62744C2.0314 3.59373 2.01167 3.54735 2.01167 3.48542C2.01167 3.14639 2.3013 2.87053 2.65727 2.87053C3.15921 2.87053 3.56761 3.25951 3.56761 3.73757C3.56761 3.75981 3.57003 3.78149 3.57371 3.80274C3.50831 4.46825 2.91882 4.99091 2.20331 4.99091C1.44421 4.99091 0.826694 4.40271 0.826694 3.67978V1.49879H17.1733V3.67983Z" fill="#00AEE8"/>
</svg>
