<svg width="24" height="23" viewBox="0 0 24 23" fill="none" xmlns="http://www.w3.org/2000/svg">
<path fill-rule="evenodd" clip-rule="evenodd" d="M2.45679 10.1389H11.7095V10.1389H21.5432C22.3716 10.1389 23.0432 10.8105 23.0432 11.6389V13.4286C23.0432 15.3468 22.2563 17.1811 20.8663 18.503L18.8106 20.458C18.5164 20.7378 18.3499 21.1261 18.3499 21.5321C18.3499 22.0819 17.9042 22.5276 17.3543 22.5276H11.7095V22.5306H6.64701C6.09711 22.5306 5.65132 22.0848 5.65132 21.5349C5.65132 21.1287 5.4847 20.7403 5.19039 20.4604L3.13421 18.5049C1.74386 17.1827 0.956787 15.348 0.956787 13.4293V11.6389C0.956787 10.8104 1.62836 10.1389 2.45679 10.1389ZM10.7747 21.5306V21.5276H17.3499C17.3511 20.8493 17.6299 20.2009 18.1215 19.7334L20.1771 17.7784C21.2473 16.7607 21.9004 15.3887 22.0223 13.9286H11.7095V13.9293H1.97762C2.09961 15.3899 2.7529 16.7623 3.82335 17.7803L5.87953 19.7358C6.3713 20.2035 6.65014 20.8521 6.65131 21.5306H10.7747ZM10.7747 12.9293V12.9286H22.0432V11.6389C22.0432 11.3627 21.8193 11.1389 21.5432 11.1389H10.7747V11.1389H2.45679C2.18064 11.1389 1.95679 11.3627 1.95679 11.6389V12.9293H10.7747Z" fill="#F59300"/>
<path d="M11.7095 10.1389H11.7595V10.0889H11.7095V10.1389ZM11.7095 10.1389H11.6595V10.1889H11.7095V10.1389ZM20.8663 18.503L20.9007 18.5392L20.8663 18.503ZM18.8106 20.458L18.8451 20.4942L18.8106 20.458ZM11.7095 22.5276V22.4776H11.6595V22.5276H11.7095ZM11.7095 22.5306V22.5806H11.7595V22.5306H11.7095ZM5.19039 20.4604L5.22484 20.4242L5.19039 20.4604ZM3.13421 18.5049L3.16867 18.4687H3.16867L3.13421 18.5049ZM10.7747 21.5306V21.5806H10.8247V21.5306H10.7747ZM10.7747 21.5276V21.4776H10.7247V21.5276H10.7747ZM17.3499 21.5276V21.5776H17.3998L17.3999 21.5277L17.3499 21.5276ZM18.1215 19.7334L18.156 19.7696L18.1215 19.7334ZM20.1771 17.7784L20.2116 17.8146L20.1771 17.7784ZM22.0223 13.9286L22.0722 13.9327L22.0767 13.8786H22.0223V13.9286ZM11.7095 13.9286V13.8786H11.6595V13.9286H11.7095ZM11.7095 13.9293V13.9793H11.7595V13.9293H11.7095ZM1.97762 13.9293V13.8793H1.92327L1.9278 13.9334L1.97762 13.9293ZM3.82335 17.7803L3.85781 17.7441L3.82335 17.7803ZM5.87953 19.7358L5.91399 19.6996L5.87953 19.7358ZM6.65131 21.5306L6.60132 21.5307L6.6014 21.5806H6.65131V21.5306ZM10.7747 12.9293V12.9793H10.8247V12.9293H10.7747ZM10.7747 12.9286V12.8786H10.7247V12.9286H10.7747ZM22.0432 12.9286V12.9786H22.0932V12.9286H22.0432ZM10.7747 11.1389H10.7247V11.1889H10.7747V11.1389ZM10.7747 11.1389H10.8247V11.0889H10.7747V11.1389ZM1.95679 12.9293H1.90679V12.9793H1.95679V12.9293ZM11.7095 10.0889H2.45679V10.1889H11.7095V10.0889ZM11.7595 10.1389V10.1389H11.6595V10.1389H11.7595ZM11.7095 10.1889H21.5432V10.0889H11.7095V10.1889ZM21.5432 10.1889C22.344 10.1889 22.9932 10.8381 22.9932 11.6389H23.0932C23.0932 10.7828 22.3992 10.0889 21.5432 10.0889V10.1889ZM22.9932 11.6389V13.4286H23.0932V11.6389H22.9932ZM22.9932 13.4286C22.9932 15.3331 22.2119 17.1543 20.8318 18.4668L20.9007 18.5392C22.3007 17.2079 23.0932 15.3605 23.0932 13.4286H22.9932ZM20.8318 18.4668L18.7762 20.4218L18.8451 20.4942L20.9007 18.5392L20.8318 18.4668ZM18.7762 20.4218C18.4721 20.711 18.2999 21.1124 18.2999 21.5321H18.3999C18.3999 21.1397 18.5608 20.7646 18.8451 20.4942L18.7762 20.4218ZM18.2999 21.5321C18.2999 22.0543 17.8765 22.4776 17.3543 22.4776V22.5776C17.9318 22.5776 18.3999 22.1095 18.3999 21.5321H18.2999ZM17.3543 22.4776H11.7095V22.5776H17.3543V22.4776ZM11.7595 22.5306V22.5276H11.6595V22.5306H11.7595ZM6.64701 22.5806H11.7095V22.4806H6.64701V22.5806ZM5.60132 21.5349C5.60132 22.1124 6.06949 22.5806 6.64701 22.5806V22.4806C6.12472 22.4806 5.70132 22.0572 5.70132 21.5349H5.60132ZM5.15593 20.4967C5.44032 20.7671 5.60132 21.1424 5.60132 21.5349H5.70132C5.70132 21.115 5.52909 20.7135 5.22484 20.4242L5.15593 20.4967ZM3.09975 18.5412L5.15593 20.4967L5.22484 20.4242L3.16867 18.4687L3.09975 18.5412ZM0.906787 13.4293C0.906787 15.3617 1.69948 17.2095 3.09975 18.5412L3.16867 18.4687C1.78824 17.1559 1.00679 15.3343 1.00679 13.4293H0.906787ZM0.906787 11.6389V13.4293H1.00679V11.6389H0.906787ZM2.45679 10.0889C1.60075 10.0889 0.906787 10.7828 0.906787 11.6389H1.00679C1.00679 10.838 1.65597 10.1889 2.45679 10.1889V10.0889ZM10.8247 21.5306V21.5276H10.7247V21.5306H10.8247ZM10.7747 21.5776H17.3499V21.4776H10.7747V21.5776ZM17.3999 21.5277C17.4011 20.8631 17.6742 20.2277 18.156 19.7696L18.0871 19.6971C17.5855 20.1741 17.3011 20.8355 17.2999 21.5276L17.3999 21.5277ZM18.156 19.7696L20.2116 17.8146L20.1427 17.7422L18.0871 19.6971L18.156 19.7696ZM20.2116 17.8146C21.2906 16.7884 21.9492 15.4051 22.0722 13.9327L21.9725 13.9244C21.8516 15.3724 21.2039 16.7329 20.1427 17.7422L20.2116 17.8146ZM22.0223 13.8786H11.7095V13.9786H22.0223V13.8786ZM11.7595 13.9293V13.9286H11.6595V13.9293H11.7595ZM1.97762 13.9793H11.7095V13.8793H1.97762V13.9793ZM3.85781 17.7441C2.79627 16.7345 2.14842 15.3736 2.02745 13.9251L1.9278 13.9334C2.0508 15.4062 2.70953 16.79 3.78889 17.8165L3.85781 17.7441ZM5.91399 19.6996L3.85781 17.7441L3.78889 17.8165L5.84507 19.772L5.91399 19.6996ZM6.70131 21.5305C6.70012 20.8383 6.41566 20.1767 5.91399 19.6996L5.84507 19.772C6.32694 20.2303 6.60016 20.8658 6.60132 21.5307L6.70131 21.5305ZM10.7747 21.4806H6.65131V21.5806H10.7747V21.4806ZM10.8247 12.9293V12.9286H10.7247V12.9293H10.8247ZM10.7747 12.9786H22.0432V12.8786H10.7747V12.9786ZM22.0932 12.9286V11.6389H21.9932V12.9286H22.0932ZM22.0932 11.6389C22.0932 11.3351 21.8469 11.0889 21.5432 11.0889V11.1889C21.7917 11.1889 21.9932 11.3904 21.9932 11.6389H22.0932ZM21.5432 11.0889H10.7747V11.1889H21.5432V11.0889ZM10.8247 11.1389V11.1389H10.7247V11.1389H10.8247ZM2.45679 11.1889H10.7747V11.0889H2.45679V11.1889ZM2.00679 11.6389C2.00679 11.3903 2.20826 11.1889 2.45679 11.1889V11.0889C2.15303 11.0889 1.90679 11.3351 1.90679 11.6389H2.00679ZM2.00679 12.9293V11.6389H1.90679V12.9293H2.00679ZM10.7747 12.8793H1.95679V12.9793H10.7747V12.8793Z" fill="#F59300"/>
<path d="M6.6803 2.24143L6.27003 2.7468C5.76959 3.36325 5.92484 4.30627 6.61865 4.86429V4.86429V4.86429C7.33298 5.4796 7.47774 6.47387 6.9482 7.12784L6.28782 7.94338" stroke="#F59300" stroke-linecap="round"/>
<path d="M12.3746 0.94932L11.9929 1.52606C11.4513 2.34443 11.5851 3.44845 12.313 4.16652V4.16652V4.16652C13.0604 4.95623 13.1817 6.12632 12.6064 6.99779L11.9822 7.94335" stroke="#F59300" stroke-linecap="round"/>
<path d="M18.069 2.24143L17.6587 2.7468C17.1583 3.36325 17.3135 4.30627 18.0074 4.86429V4.86429V4.86429C18.7217 5.4796 18.8664 6.47387 18.3369 7.12784L17.6765 7.94338" stroke="#F59300" stroke-linecap="round"/>
</svg>
