<svg width="677" height="44" viewBox="0 0 677 44" fill="none" xmlns="http://www.w3.org/2000/svg">
<path d="M2.94 5.12C2.94 5.72 4.14 6.2 4.74 6.32C7.26 6.86 8.04 7.1 9 11.06C9.96 15.32 12.9 29.12 13.14 32.66C13.2 33.26 13.08 34.22 12.78 34.64C11.16 37.16 9.36 38 6.66 38C5.04 38 2.28 37.1 1.5 36.8C0.96 36.56 0.54 37.94 0.48 38.3C0.48 39.98 1.14 41.54 2.04 42.32C2.7 42.86 3.66 43.22 4.86 43.22C7.38 43.22 10.08 42.14 15.72 35.42C21 29.18 29.4 16.4 32.88 10.88C34.8 7.76 36.48 7.04 38.7 6.62C40.14 6.32 40.86 5.66 40.86 5.18C40.92 4.4 39.54 4.16 38.88 4.16C37.74 4.16 34.98 4.34 33.42 4.34C31.56 4.34 29.64 4.16 28.44 4.16C27.48 4.16 26.4 4.52 26.34 5.12C26.34 5.9 27.66 6.38 28.26 6.5C30.18 6.92 30.84 8.12 29.64 10.46C27 15.32 21.24 24.32 18.18 28.1C18.12 28.22 17.76 28.22 17.7 28.04C16.98 24.5 14.82 14.12 13.98 9.26C13.74 7.7 14.1 6.86 16.92 6.44C17.58 6.32 18.66 5.84 18.66 5.36C18.72 4.64 17.94 4.22 17.22 4.22C15.9 4.22 13.38 4.34 11.46 4.34C8.82 4.34 5.76 4.04 4.68 4.04C3.84 4.04 3 4.46 2.94 5.12ZM43.8258 15.86C41.0658 15.86 38.2458 17.54 36.8058 18.74C36.2058 19.22 35.7258 20.12 35.7258 20.6C35.7258 21.32 35.7858 21.98 35.9658 22.34C36.0858 22.58 37.1058 22.82 37.2858 22.46C38.0658 21.02 40.1658 18.56 42.2658 18.56C44.3658 18.56 45.2058 19.94 45.2058 21.32C45.2058 22.94 44.2458 24.56 41.1858 26.12C39.6258 26.9 37.6458 27.62 37.0458 27.86C36.5658 28.1 35.9058 28.88 35.9658 29.6C35.9658 29.84 36.3858 30.2 36.7458 30.14C37.4658 30.14 38.6058 29.48 40.0458 29.48C42.3258 29.48 44.1258 30.74 44.1258 33.32C44.1258 37.28 41.8458 39.02 38.1858 39.02C36.1458 39.02 34.1658 37.76 32.7258 36.32C32.4858 36.08 32.1858 35.96 31.7658 35.96C31.3458 35.96 30.8058 36.98 30.8058 37.76C30.8058 40.52 33.2658 41.96 35.6658 41.96C37.4058 41.96 38.4258 41.66 40.1058 41.18C45.0858 39.74 49.0458 36.62 49.0458 32.84C49.0458 29.6 46.4058 27.92 43.5858 27.26C43.4658 27.2 43.5858 27.02 43.6458 26.9C44.7858 26.36 46.0458 25.76 47.3058 24.86C48.6858 23.9 49.7058 22.76 49.7058 20.78C49.7058 18.08 47.1858 15.86 43.8258 15.86ZM64.7438 15.74C61.2638 15.74 57.0038 19.58 56.3438 20.36C55.8037 21.08 55.3838 21.68 55.3838 22.4C55.3838 23 56.0438 23.18 56.4638 22.88C57.8438 21.86 59.2838 20.72 60.6038 20.36C60.9638 20.24 61.1438 20.9 61.0838 21.14C58.9838 27.32 55.8037 35.3 54.7838 38.12C54.6038 38.66 54.4838 39.56 54.5438 39.92C54.5438 40.7 55.6838 41.72 56.7638 41.72C57.3638 41.72 57.7838 41.42 58.3838 40.04C59.6438 37.1 60.9038 34.1 62.0438 30.8C62.1638 30.5 62.5838 30.02 62.8838 30.02C65.3438 29.96 68.6438 29.78 70.9238 29.54C71.2238 29.48 71.3438 29.9 71.3438 30.14C69.7238 34.34 68.4638 37.88 68.3438 38.42C68.2238 38.66 67.8638 39.98 68.3438 40.64C68.8238 41.24 69.4837 41.72 70.2038 41.72C72.3638 41.72 78.1838 38.6 80.1038 35.42C80.4038 35 80.5238 34.22 80.5238 33.74C80.5238 33.2 79.8038 33.02 79.6238 33.14C77.7038 35 75.1838 36.5 74.4638 36.5C74.1038 36.5 73.7438 35.84 73.9838 35.12C75.3038 30.62 76.9238 26.18 78.9638 21.02C79.3838 20 80.2238 17.84 80.6438 17C80.8838 16.58 80.3438 15.74 80.0438 15.74C79.0838 15.74 77.4038 16.1 76.5638 16.7C76.2638 16.94 76.0238 17.24 75.9038 17.48C75.6638 18.38 74.0438 22.52 72.4238 26.72C72.3638 26.9 72.1238 27.08 71.7638 27.14L63.9638 27.38C63.9038 27.38 63.4238 27.02 63.4838 26.84C64.3838 24.26 65.6438 21.26 66.3638 19.22C66.5438 18.62 66.6638 17.9 66.6038 17.3C66.6038 16.64 65.5838 15.74 64.7438 15.74ZM101.515 16.88C101.215 16.88 100.255 16.94 98.6953 17.96C94.1953 20.84 90.0553 25.04 86.6953 29.72C84.4753 32.78 83.2153 36.32 83.2153 38.36C83.2153 39.08 83.2753 40.28 84.1153 41C84.6553 41.48 86.0953 41.84 86.8153 41.84C90.8953 41.84 96.9553 36.32 99.3553 33.38C99.5953 33.08 100.075 33.2 100.075 33.32C99.5353 35.3 98.2753 39.14 98.2753 40.04C98.2753 40.82 99.3553 41.84 100.315 41.84C104.395 41.84 107.875 38.54 109.135 35.96C109.495 35.18 109.855 34.52 109.855 33.86C109.855 32.78 108.775 32.9 107.935 34.1C106.495 35.96 104.875 36.92 103.795 36.92C103.495 36.92 103.315 36.86 103.075 36.68C102.895 36.5 102.955 36.08 103.135 35.42C103.975 32.36 107.995 18.8 108.595 16.4C108.655 16.1 108.535 15.56 108.295 15.44C107.815 15.02 106.495 14.66 105.715 14.72C105.535 14.72 105.295 14.78 105.055 15.26C104.815 15.62 104.575 16.16 104.335 16.94C104.275 17.18 103.975 17.3 103.795 17.24C103.315 17.06 101.875 16.88 101.515 16.88ZM101.095 20.18C101.455 20.18 102.115 20.6 102.535 21.14C102.715 21.32 102.835 21.98 102.715 22.28C101.515 26 100.255 28.28 97.8553 31.64C95.0353 35.48 92.3953 37.52 90.2353 37.52C89.2753 37.52 88.6753 36.26 88.6753 35.66C88.6753 33.2 91.7353 27.68 95.3953 23.6C97.4953 21.26 99.7753 20.18 101.095 20.18ZM123.442 15.8C120.862 15.8 117.442 18.08 115.102 20.9C114.502 21.62 114.142 22.52 114.142 23.18C114.142 23.78 114.922 24.02 115.162 23.84C115.702 23.42 118.522 20.78 119.602 20.78C119.902 20.78 120.202 21.26 119.722 22.52C118.402 25.94 114.922 35.78 114.622 37.16C114.382 38.36 114.322 39.2 114.562 39.74C115.102 40.94 116.722 41.6 117.922 41.6C119.302 41.6 121.402 40.88 123.082 39.44C126.622 36.56 129.382 33.08 132.022 29.48C132.262 29.12 132.742 29.66 132.622 29.9C131.962 32 130.882 35.24 130.102 37.4C129.742 38.54 129.382 39.68 129.382 39.98C129.382 40.76 130.282 42.08 131.722 42.08C135.382 42.08 139.402 38.66 140.602 36.2C141.022 35.36 141.382 34.4 141.382 33.56C141.382 33.2 140.602 32.84 139.462 33.98C137.242 36.32 135.982 36.8 134.962 36.8C134.542 36.8 134.242 36.5 134.302 36.26C135.442 32.6 137.242 26 138.202 22.94C139.162 19.88 139.582 18.5 139.582 17.6C139.582 16.76 138.562 15.86 137.662 15.86C137.242 15.86 136.582 16.28 135.562 18.02C134.542 19.82 130.942 26.84 128.062 30.86C124.342 36.02 122.242 37.76 120.262 37.76C119.302 37.76 119.242 36.38 119.362 35.96C121.222 30.56 124.762 20.6 125.062 18.8C125.302 17.36 124.462 15.8 123.442 15.8ZM130.102 12.14C134.242 12.14 137.482 9.92 139.102 4.7C139.162 4.4 139.282 2.96 138.502 2.96C137.962 2.96 137.242 3.38 136.702 4.4C135.382 7.28 133.582 8.36 131.662 8.36C128.962 8.36 128.182 5.96 128.542 3.74C128.602 3.56 128.182 2.78 127.882 2.78C127.222 2.78 126.322 3.44 125.602 4.22C125.302 4.64 124.822 5.54 124.762 6.86C124.702 9.62 126.802 12.14 130.102 12.14ZM160.306 4.76C159.826 4.76 158.806 4.88 158.026 5.24C157.246 5.6 156.706 6.8 156.166 8.9C155.446 12.26 153.766 23.6 153.286 27.08C153.226 28.04 153.286 29.3 154.126 29.3C154.726 29.24 155.446 28.1 155.746 27.44C156.586 25.7 161.326 13.58 162.526 9.92C162.946 8.48 163.306 6.86 162.586 5.84C162.166 5.24 161.086 4.76 160.306 4.76ZM152.866 34.04C150.586 34.04 148.726 35.9 148.726 38.36C148.726 40.22 150.046 41.84 151.966 41.84C154.006 41.84 155.926 40.28 155.926 37.64C155.926 35.54 154.606 34.04 152.866 34.04ZM207.486 11.84C207.486 10.16 206.886 7.82 205.146 6.32C203.046 4.52 200.706 3.98 196.086 3.98C194.406 3.98 191.826 4.16 189.306 4.22C186.786 4.28 184.926 4.34 183.846 4.34C182.946 4.34 182.046 4.94 182.046 5.48C182.106 5.9 182.466 6.38 183.606 6.5C187.326 6.92 187.446 7.88 187.146 9.2C186.006 14.18 181.746 30.26 180.066 36.08C179.706 37.22 179.166 38.24 175.746 38.78C174.606 38.96 173.886 39.44 173.826 39.98C173.826 40.7 174.486 41.18 175.806 41.18C176.466 41.18 177.366 41.24 178.986 41.24C180.606 41.24 188.706 41.6 191.226 41.6C193.566 41.6 197.106 41.18 200.406 39.56C203.286 38.06 205.806 35 205.806 30.5C205.806 26.06 202.746 23.3 198.786 21.62C198.546 21.5 198.846 21.08 199.086 21.02C200.886 20.42 202.746 19.58 204.306 18.5C206.466 16.94 207.486 14.72 207.486 11.84ZM200.106 30.62C200.106 35.84 195.786 39.2 190.746 39.2C188.466 39.2 186.426 38.12 185.766 37.46C185.526 37.16 185.406 36.44 185.586 35.66C185.826 34.82 187.926 25.76 188.826 23.48C189.006 22.82 189.426 22.64 189.666 22.46C189.966 22.28 190.746 22.16 191.046 22.16C196.446 22.16 200.106 25.46 200.106 30.62ZM202.266 12.68C202.266 15.32 200.586 17.78 198.186 18.74C195.426 19.94 192.726 20 191.946 20C191.766 20 190.686 19.88 190.326 19.76C190.026 19.64 189.966 19.1 189.966 18.92L192.666 7.04C192.726 6.86 193.926 6.2 194.286 6.2C199.626 6.2 202.266 9.02 202.266 12.68ZM225.434 16.94C222.734 16.94 219.854 18.32 217.874 20.12C212.714 24.62 211.274 30.62 211.274 34.64C211.274 38.72 214.334 41.72 217.154 41.72C219.074 41.72 220.514 41.3 222.014 40.58C230.234 36.5 233.954 24.92 233.954 15.38C233.954 6.92 230.474 0.379997 223.994 0.379997C220.814 0.379997 219.134 1.22 218.054 1.88C217.694 2.12 217.034 2.6 217.034 3.32C217.034 3.5 217.334 3.98 217.814 3.86C218.894 3.62 220.274 3.44 221.534 3.44C227.114 3.44 230.234 8.54 229.274 17.3C229.274 17.42 228.974 17.66 228.794 17.6C227.954 17.3 226.154 16.94 225.434 16.94ZM225.194 19.22C226.154 19.22 228.254 21.38 228.254 22.7C228.254 26.12 225.494 33.68 222.674 36.8C220.754 38.84 219.434 39.5 218.474 39.5C216.974 39.5 215.954 37.82 215.954 36.32C215.954 30.62 217.994 24.86 220.634 21.74C222.254 19.76 223.814 19.22 225.194 19.22ZM251.371 15.8C250.231 15.8 247.111 16.64 245.191 18.08C241.471 20.9 238.291 26.96 238.231 32.54C238.171 36.68 240.631 41.84 245.491 41.84C247.471 41.84 249.571 40.88 251.371 39.68C255.811 36.62 258.451 29.96 258.451 24.32C258.451 20.18 255.991 15.8 251.371 15.8ZM251.311 18.44C253.831 18.44 254.371 20.6 254.371 22.7C254.371 26 252.031 32.84 250.051 35.66C248.131 38.3 246.871 39.02 245.791 39.02C243.271 39.02 242.491 37.28 242.491 34.94C242.491 31.94 243.511 26.96 246.331 22.34C248.311 19.16 250.111 18.44 251.311 18.44ZM288.699 21.5C289.599 20.72 289.959 20 290.079 18.68C290.079 17.18 288.759 15.8 287.259 15.8C285.399 15.8 283.839 16.52 281.439 18.98C279.759 20.78 278.019 23.12 276.699 24.86C276.519 25.04 276.279 24.92 276.159 24.8L274.899 20.9C274.239 18.86 273.399 15.8 270.939 15.8C268.419 15.8 265.419 19.28 264.339 21.32C263.979 21.98 263.619 22.76 263.619 22.88C263.619 23.6 264.579 24.5 264.819 24.14C266.079 22.4 268.359 20.24 269.259 20.24C269.799 20.24 270.519 21.32 271.059 23C271.659 24.32 272.019 26.12 272.859 28.64C272.919 28.88 272.499 29.66 272.259 30.14C269.499 34.88 267.099 37.52 265.659 37.52C264.879 37.52 263.859 36.56 263.499 35.54C263.259 35.06 262.419 35.24 262.239 35.42C260.979 36.5 260.019 37.7 259.899 39.26C259.899 40.7 261.399 42.2 262.959 42.2C266.559 42.2 270.579 36.38 273.219 32.9C273.339 32.78 273.939 32.6 273.999 32.96C274.359 34.04 274.899 35.24 275.199 36.44C276.039 38.66 276.999 41.84 279.819 41.84C283.119 41.84 286.539 38 286.659 35.18C286.659 34.64 286.239 34.1 285.999 34.1C285.819 34.1 285.399 34.22 284.799 35.06C283.299 37.1 282.279 37.22 281.559 37.22C279.999 37.22 278.859 34.4 277.299 28.88C277.179 28.58 277.539 27.8 277.599 27.68C279.939 24.02 283.599 19.7 284.679 19.7C285.159 19.7 285.639 20.36 285.939 21.2C286.119 21.8 286.419 22.16 286.839 22.16C287.499 22.16 288.279 21.86 288.699 21.5ZM302.869 15.74C299.389 15.74 295.129 19.58 294.469 20.36C293.929 21.08 293.509 21.68 293.509 22.4C293.509 23 294.169 23.18 294.589 22.88C295.969 21.86 297.409 20.72 298.729 20.36C299.089 20.24 299.269 20.9 299.209 21.14C297.109 27.32 293.929 35.3 292.909 38.12C292.729 38.66 292.609 39.56 292.669 39.92C292.669 40.7 293.809 41.72 294.889 41.72C295.489 41.72 295.909 41.42 296.509 40.04C297.769 37.1 299.029 34.1 300.169 30.8C300.289 30.5 300.709 30.02 301.009 30.02C303.469 29.96 306.769 29.78 309.049 29.54C309.349 29.48 309.469 29.9 309.469 30.14C307.849 34.34 306.589 37.88 306.469 38.42C306.349 38.66 305.989 39.98 306.469 40.64C306.949 41.24 307.609 41.72 308.329 41.72C310.489 41.72 316.309 38.6 318.229 35.42C318.529 35 318.649 34.22 318.649 33.74C318.649 33.2 317.929 33.02 317.749 33.14C315.829 35 313.309 36.5 312.589 36.5C312.229 36.5 311.869 35.84 312.109 35.12C313.429 30.62 315.049 26.18 317.089 21.02C317.509 20 318.349 17.84 318.769 17C319.009 16.58 318.469 15.74 318.169 15.74C317.209 15.74 315.529 16.1 314.689 16.7C314.389 16.94 314.149 17.24 314.029 17.48C313.789 18.38 312.169 22.52 310.549 26.72C310.489 26.9 310.249 27.08 309.889 27.14L302.089 27.38C302.029 27.38 301.549 27.02 301.609 26.84C302.509 24.26 303.769 21.26 304.489 19.22C304.669 18.62 304.789 17.9 304.729 17.3C304.729 16.64 303.709 15.74 302.869 15.74ZM335.98 15.8C334.84 15.8 331.72 16.64 329.8 18.08C326.08 20.9 322.9 26.96 322.84 32.54C322.78 36.68 325.24 41.84 330.1 41.84C332.08 41.84 334.18 40.88 335.98 39.68C340.42 36.62 343.06 29.96 343.06 24.32C343.06 20.18 340.6 15.8 335.98 15.8ZM335.92 18.44C338.44 18.44 338.98 20.6 338.98 22.7C338.98 26 336.64 32.84 334.66 35.66C332.74 38.3 331.48 39.02 330.4 39.02C327.88 39.02 327.1 37.28 327.1 34.94C327.1 31.94 328.12 26.96 330.94 22.34C332.92 19.16 334.72 18.44 335.92 18.44ZM362.627 15.86C357.827 15.86 353.567 18.8 350.687 25.16C349.787 27.14 348.827 30.44 348.047 33.2C347.327 35.84 347.747 39.14 349.547 40.4C350.927 41.3 352.547 41.72 354.047 41.72C360.767 41.72 366.947 37.64 366.947 33.2C366.947 29.24 364.667 28.16 362.567 27.44C362.267 27.32 362.147 27.2 362.507 27.08C365.267 26.06 368.627 23.72 368.627 20.9C368.627 18.26 366.587 15.86 362.627 15.86ZM361.487 18.08C363.107 18.08 364.127 19.52 364.187 20.9C364.307 25.52 357.947 26.96 354.947 27.38C354.647 27.38 354.587 26.96 354.587 26.84C355.607 23.24 357.887 18.08 361.487 18.08ZM357.947 29C360.827 29 361.967 30.92 361.967 33.44C361.967 36.38 359.327 39.32 355.667 39.32C354.527 39.32 352.307 38.48 352.307 36.14C352.307 34.82 352.607 33.08 353.207 31.16C353.387 30.62 353.987 29.72 354.347 29.54C355.367 29.12 356.507 29 357.947 29ZM382.719 15.8C380.139 15.8 376.719 18.08 374.379 20.9C373.779 21.62 373.419 22.52 373.419 23.18C373.419 23.78 374.199 24.02 374.439 23.84C374.979 23.42 377.799 20.78 378.879 20.78C379.179 20.78 379.479 21.26 378.999 22.52C377.679 25.94 374.199 35.78 373.899 37.16C373.659 38.36 373.599 39.2 373.839 39.74C374.379 40.94 375.999 41.6 377.199 41.6C378.579 41.6 380.679 40.88 382.359 39.44C385.899 36.56 388.659 33.08 391.299 29.48C391.539 29.12 392.019 29.66 391.899 29.9C391.239 32 390.159 35.24 389.379 37.4C389.019 38.54 388.659 39.68 388.659 39.98C388.659 40.76 389.559 42.08 390.999 42.08C394.659 42.08 398.679 38.66 399.879 36.2C400.299 35.36 400.659 34.4 400.659 33.56C400.659 33.2 399.879 32.84 398.739 33.98C396.519 36.32 395.259 36.8 394.239 36.8C393.819 36.8 393.519 36.5 393.579 36.26C394.719 32.6 396.519 26 397.479 22.94C398.439 19.88 398.859 18.5 398.859 17.6C398.859 16.76 397.839 15.86 396.939 15.86C396.519 15.86 395.859 16.28 394.839 18.02C393.819 19.82 390.219 26.84 387.339 30.86C383.619 36.02 381.519 37.76 379.539 37.76C378.579 37.76 378.519 36.38 378.639 35.96C380.499 30.56 384.039 20.6 384.339 18.8C384.579 17.36 383.739 15.8 382.719 15.8ZM419.22 15.8C418.38 15.8 416.28 16.28 413.88 17.6C411.12 19.1 409.08 20.9 407.22 24.32C405.54 27.5 404.46 32.12 404.46 34.34C404.46 36.26 404.7 37.58 405.3 38.66C406.56 40.94 409.02 41.84 410.46 41.84C414.12 41.84 417.3 39.74 419.7 36.02C420.12 35.42 420.12 35 420.12 34.76C420.12 34.4 419.82 33.62 419.46 33.62C419.22 33.62 418.86 33.8 418.2 34.58C415.74 37.4 414 38 413.16 38C411.54 38 409.32 36.68 409.32 34.52C409.32 32.06 409.86 28.28 411.54 24.26C412.74 21.32 413.82 19.94 414.9 19.28C415.44 18.98 416.04 18.74 417.18 18.74C417.84 18.74 418.98 19.28 419.76 20.66C420.42 21.86 421.68 22.22 422.22 22.22C422.7 22.22 424.08 20.84 424.08 18.68C424.08 18.2 423.66 17.66 423.24 17.24C422.58 16.64 421.02 15.8 419.22 15.8ZM437.106 15.8C433.146 15.8 428.826 19.4 427.806 20.9C427.326 21.44 427.086 22.1 427.086 22.4C427.086 23.18 427.686 23.42 428.166 23.06C429.846 21.92 431.766 20.42 433.026 20.3C433.626 20.24 433.926 20.24 433.506 21.26C431.886 25.1 430.266 29.24 428.826 33.2C428.406 34.28 428.106 35.84 428.106 36.86C428.106 40.22 431.046 41.72 433.806 41.72C435.186 41.72 438.306 41.24 441.246 39.44C444.726 37.34 448.326 33.14 448.326 28.82C448.326 26.24 447.006 23.72 444.066 23.72C441.546 23.72 438.006 25.4 435.666 27.68C435.306 27.98 435.006 27.8 435.126 27.5C436.206 25.1 437.586 21.5 438.486 19.64C438.726 19.04 438.846 18.08 438.846 17.48C438.846 16.88 437.766 15.8 437.106 15.8ZM441.966 26.54C442.986 26.54 443.766 27.38 443.826 28.7C443.826 30.98 442.446 34.16 439.326 37.16C438.006 38.42 436.446 39.5 435.006 39.5C433.986 39.5 432.486 37.82 432.486 36.98C432.486 35.18 433.566 32.96 434.646 31.64C437.826 27.5 440.826 26.54 441.966 26.54ZM465.814 4.76C465.334 4.76 464.314 4.88 463.534 5.24C462.754 5.6 462.214 6.8 461.674 8.9C460.954 12.26 459.274 23.6 458.794 27.08C458.734 28.04 458.794 29.3 459.634 29.3C460.234 29.24 460.954 28.1 461.254 27.44C462.094 25.7 466.834 13.58 468.034 9.92C468.454 8.48 468.814 6.86 468.094 5.84C467.674 5.24 466.594 4.76 465.814 4.76ZM458.374 34.04C456.094 34.04 454.234 35.9 454.234 38.36C454.234 40.22 455.554 41.84 457.474 41.84C459.514 41.84 461.434 40.28 461.434 37.64C461.434 35.54 460.114 34.04 458.374 34.04ZM508.014 3.26C502.914 3.26 498.534 4.82 495.294 6.98C488.874 11.18 484.674 18.8 484.674 26.6C484.674 31.04 486.054 35 488.694 37.7C491.214 40.4 494.814 41.96 499.314 41.96C500.814 41.96 503.634 41.48 506.034 40.58C507.294 40.1 508.314 40.76 509.094 41.3C509.454 41.54 510.054 41.06 510.234 40.76C510.414 40.46 513.774 35 514.074 33.5C514.254 32.72 513.894 31.76 513.414 31.76C513.114 31.76 512.394 32.24 511.854 32.72C510.534 33.8 509.634 34.76 508.434 35.9C507.174 37.04 504.354 39.14 501.294 39.14C497.034 39.2 493.974 37.1 492.234 33.86C491.154 31.88 490.614 28.16 490.614 26.42C490.614 21.86 492.714 15.14 496.074 11.24C499.734 6.98 503.934 5.66 507.534 5.66C509.334 5.66 512.874 6.5 514.434 8.66C515.334 9.92 515.694 11.36 515.634 13.1C515.634 13.88 515.994 14.96 516.654 14.96C517.254 14.96 517.974 14.06 518.154 13.1C518.394 11.96 520.074 7.28 520.494 6.32C520.794 5.78 520.674 5.06 520.314 4.76C519.954 4.46 518.994 4.76 518.634 5C518.214 5.3 516.834 5.48 516.174 5.3C515.274 5 512.874 3.26 508.014 3.26ZM533.637 16.94C530.937 16.94 528.057 18.32 526.077 20.12C520.917 24.62 519.477 30.62 519.477 34.64C519.477 38.72 522.537 41.72 525.357 41.72C527.277 41.72 528.717 41.3 530.217 40.58C538.437 36.5 542.157 24.92 542.157 15.38C542.157 6.92 538.677 0.379997 532.197 0.379997C529.017 0.379997 527.337 1.22 526.257 1.88C525.897 2.12 525.237 2.6 525.237 3.32C525.237 3.5 525.537 3.98 526.017 3.86C527.097 3.62 528.477 3.44 529.737 3.44C535.317 3.44 538.437 8.54 537.477 17.3C537.477 17.42 537.177 17.66 536.997 17.6C536.157 17.3 534.357 16.94 533.637 16.94ZM533.397 19.22C534.357 19.22 536.457 21.38 536.457 22.7C536.457 26.12 533.697 33.68 530.877 36.8C528.957 38.84 527.637 39.5 526.677 39.5C525.177 39.5 524.157 37.82 524.157 36.32C524.157 30.62 526.197 24.86 528.837 21.74C530.457 19.76 532.017 19.22 533.397 19.22ZM560.894 15.8C558.674 15.8 555.794 16.94 554.654 17.72C549.734 21.2 546.134 29 546.134 34.88C546.134 35.42 546.194 36.02 546.314 36.38C547.034 39.38 549.374 41.84 552.734 41.84C556.214 41.84 559.034 39.92 560.894 38.06C561.734 37.22 562.574 35.96 562.574 34.94C562.574 34.7 562.214 34.16 561.914 34.16C561.614 34.16 561.074 34.64 560.594 35.12C559.454 36.38 556.394 38.18 554.954 38.18C554.534 38.18 553.454 38.18 552.374 37.46C551.414 36.8 550.994 35.36 550.994 34.7C550.994 32.84 551.294 30.62 551.594 29.84C551.654 29.66 552.134 29.24 552.194 29.24C555.434 29.06 560.234 28.04 563.174 25.94C564.794 24.68 566.174 22.88 566.174 20.6C566.114 18.8 565.154 17.42 563.714 16.58C563.234 16.22 561.494 15.8 560.894 15.8ZM560.714 17.9C561.374 17.9 562.154 18.86 562.154 19.52C562.154 24.74 555.074 27.08 552.734 27.2C552.374 27.2 552.374 27.02 552.374 26.54C554.414 21.8 558.314 17.9 560.714 17.9ZM588.678 16.16C583.218 16.16 579.858 20.24 577.338 25.34C575.058 29.9 573.558 34.1 572.118 35.42C571.518 35.9 569.298 36.68 566.058 36.44C565.638 36.38 565.218 37.28 565.218 38.12C565.278 40.16 566.718 41.72 567.918 41.72C569.238 41.72 569.958 41.48 571.398 40.28C572.958 38.96 576.138 34.34 578.838 28.28C580.698 24.14 582.918 20.3 585.198 20.3C585.438 20.3 585.918 20.96 585.798 21.32C584.778 24.86 581.178 36.44 580.878 38.36C580.698 39.14 580.578 40.28 581.118 40.82C581.658 41.3 582.018 41.72 582.798 41.72C585.498 41.72 589.878 39.38 592.218 35.9C592.578 35.48 592.998 34.46 592.998 33.98C592.998 33.38 592.278 33.14 591.858 33.5C589.998 35.12 588.018 36.62 587.058 36.62C586.758 36.62 586.158 36.08 586.278 35.48C586.818 32.12 589.278 23.48 590.418 19.16C590.718 18.02 590.538 17 589.818 16.52C589.518 16.28 589.098 16.16 588.678 16.16ZM614.679 16.88C614.379 16.88 613.419 16.94 611.859 17.96C607.359 20.84 603.219 25.04 599.859 29.72C597.639 32.78 596.379 36.32 596.379 38.36C596.379 39.08 596.439 40.28 597.279 41C597.819 41.48 599.259 41.84 599.979 41.84C604.059 41.84 610.119 36.32 612.519 33.38C612.759 33.08 613.239 33.2 613.239 33.32C612.699 35.3 611.439 39.14 611.439 40.04C611.439 40.82 612.519 41.84 613.479 41.84C617.559 41.84 621.039 38.54 622.299 35.96C622.659 35.18 623.019 34.52 623.019 33.86C623.019 32.78 621.939 32.9 621.099 34.1C619.659 35.96 618.039 36.92 616.959 36.92C616.659 36.92 616.479 36.86 616.239 36.68C616.059 36.5 616.119 36.08 616.299 35.42C617.139 32.36 621.159 18.8 621.759 16.4C621.819 16.1 621.699 15.56 621.459 15.44C620.979 15.02 619.659 14.66 618.879 14.72C618.699 14.72 618.459 14.78 618.219 15.26C617.979 15.62 617.739 16.16 617.499 16.94C617.439 17.18 617.139 17.3 616.959 17.24C616.479 17.06 615.039 16.88 614.679 16.88ZM614.259 20.18C614.619 20.18 615.279 20.6 615.699 21.14C615.879 21.32 615.999 21.98 615.879 22.28C614.679 26 613.419 28.28 611.019 31.64C608.199 35.48 605.559 37.52 603.399 37.52C602.439 37.52 601.839 36.26 601.839 35.66C601.839 33.2 604.899 27.68 608.559 23.6C610.659 21.26 612.939 20.18 614.259 20.18ZM636.606 15.8C634.026 15.8 630.606 18.08 628.266 20.9C627.666 21.62 627.306 22.52 627.306 23.18C627.306 23.78 628.086 24.02 628.326 23.84C628.866 23.42 631.686 20.78 632.766 20.78C633.066 20.78 633.366 21.26 632.886 22.52C631.566 25.94 628.086 35.78 627.786 37.16C627.546 38.36 627.486 39.2 627.726 39.74C628.266 40.94 629.886 41.6 631.086 41.6C632.466 41.6 634.566 40.88 636.246 39.44C639.786 36.56 642.546 33.08 645.186 29.48C645.426 29.12 645.906 29.66 645.786 29.9C645.126 32 644.046 35.24 643.266 37.4C642.906 38.54 642.546 39.68 642.546 39.98C642.546 40.76 643.446 42.08 644.886 42.08C648.546 42.08 652.566 38.66 653.766 36.2C654.186 35.36 654.546 34.4 654.546 33.56C654.546 33.2 653.766 32.84 652.626 33.98C650.406 36.32 649.146 36.8 648.126 36.8C647.706 36.8 647.406 36.5 647.466 36.26C648.606 32.6 650.406 26 651.366 22.94C652.326 19.88 652.746 18.5 652.746 17.6C652.746 16.76 651.726 15.86 650.826 15.86C650.406 15.86 649.746 16.28 648.726 18.02C647.706 19.82 644.106 26.84 641.226 30.86C637.506 36.02 635.406 37.76 633.426 37.76C632.466 37.76 632.406 36.38 632.526 35.96C634.386 30.56 637.926 20.6 638.226 18.8C638.466 17.36 637.626 15.8 636.606 15.8ZM643.266 12.14C647.406 12.14 650.646 9.92 652.266 4.7C652.326 4.4 652.446 2.96 651.666 2.96C651.126 2.96 650.406 3.38 649.866 4.4C648.546 7.28 646.746 8.36 644.826 8.36C642.126 8.36 641.346 5.96 641.706 3.74C641.766 3.56 641.346 2.78 641.046 2.78C640.386 2.78 639.486 3.44 638.766 4.22C638.466 4.64 637.986 5.54 637.926 6.86C637.866 9.62 639.966 12.14 643.266 12.14ZM673.47 4.76C672.99 4.76 671.97 4.88 671.19 5.24C670.41 5.6 669.87 6.8 669.33 8.9C668.61 12.26 666.93 23.6 666.45 27.08C666.39 28.04 666.45 29.3 667.29 29.3C667.89 29.24 668.61 28.1 668.91 27.44C669.75 25.7 674.49 13.58 675.69 9.92C676.11 8.48 676.47 6.86 675.75 5.84C675.33 5.24 674.25 4.76 673.47 4.76ZM666.03 34.04C663.75 34.04 661.89 35.9 661.89 38.36C661.89 40.22 663.21 41.84 665.13 41.84C667.17 41.84 669.09 40.28 669.09 37.64C669.09 35.54 667.77 34.04 666.03 34.04Z" fill="#96BF31"/>
</svg>
