<svg width="215" height="59" viewBox="0 0 215 59" fill="none" xmlns="http://www.w3.org/2000/svg">
<path d="M1.794 3.556C1.794 3.738 2.106 3.92 2.496 3.972C4.212 4.284 4.472 4.57 4.472 6.052C4.472 6.676 3.822 14.294 3.51 16.088C3.328 17.18 2.782 17.804 1.586 18.09C0.962 18.246 0.78 18.428 0.78 18.662C0.78 19 1.118 19.13 1.612 19.13C1.95 19.13 3.614 19 4.446 19C5.2 19 6.11 19.078 6.474 19.078C6.864 19.078 7.306 18.922 7.306 18.636C7.306 18.402 7.202 18.168 6.604 18.038C5.382 17.726 5.044 17.57 5.044 16.01C5.044 14.684 5.278 9.536 5.512 7.248C5.538 7.04 5.746 7.248 5.772 7.274C6.526 9.12 8.164 12.448 9.126 14.814C9.386 15.49 10.14 17.622 10.452 18.298C10.634 18.74 10.868 19.182 11.102 19.182C11.414 19.182 11.804 18.896 12.012 18.272C12.272 17.518 13.078 15.698 13.39 15.048C13.78 14.242 16.588 8.184 17.134 7.196C17.16 7.144 17.446 7.014 17.446 7.196C17.446 9.692 17.446 15.386 17.42 16.062C17.394 17.492 17.238 17.778 16.302 18.038C15.756 18.168 15.418 18.35 15.418 18.636C15.418 18.896 15.808 19.078 16.224 19.078C16.848 19.078 17.342 19 18.122 19C18.824 19 21.294 19.156 21.606 19.156C22.1 19.156 22.36 18.948 22.36 18.688C22.36 18.532 22.126 18.298 21.554 18.116C20.488 17.752 19.994 17.544 19.916 15.646C19.812 13.904 19.63 9.458 19.63 5.246C19.63 4.804 19.994 4.336 21.554 3.998C22.204 3.842 22.36 3.712 22.36 3.478C22.36 3.088 21.788 2.984 21.528 2.984C20.696 2.984 18.616 3.114 18.174 3.114C18.018 3.114 17.732 3.348 17.706 3.504C17.576 3.946 17.316 4.492 16.77 5.636L12.272 14.606C12.116 14.918 11.96 14.944 11.908 14.84C11.154 13.436 8.112 7.092 7.54 5.766C6.994 4.492 6.708 3.868 6.604 3.478C6.552 3.348 6.318 3.114 6.162 3.114C6.006 3.114 3.198 3.01 2.548 3.01C2.236 3.01 1.794 3.27 1.794 3.556ZM34.3641 2.646C32.0501 2.646 29.6581 3.764 28.0721 5.35C26.5381 6.91 25.7321 9.094 25.7321 11.122C25.7321 15.698 29.5021 19.468 34.3641 19.468C36.0281 19.468 37.5881 19 38.7061 18.376C41.5661 16.764 43.0221 13.748 43.0221 10.992C43.0221 6.13 39.1741 2.646 34.3641 2.646ZM33.8961 3.738C37.7441 3.738 40.1621 7.404 40.1621 11.096C40.1621 14.268 39.2001 16.166 38.1601 17.154C37.3021 17.96 36.1321 18.35 34.9621 18.35C30.9841 18.35 28.5661 14.45 28.5661 10.81C28.5661 8.21 29.3721 6.416 30.4901 5.246C31.2701 4.492 32.6481 3.738 33.8961 3.738ZM57.1393 2.646C54.3053 2.646 52.4073 3.504 51.2373 4.31C48.9493 5.896 47.6493 8.262 47.6493 11.226C47.6493 13.54 48.5853 15.516 49.7293 16.764C51.3673 18.584 53.9933 19.468 56.8013 19.468C58.3873 19.468 60.8313 18.974 61.6373 18.584C61.7153 18.532 62.0533 18.194 62.1053 18.038C62.2613 17.492 62.7033 15.828 62.7033 15.594C62.7033 15.1 62.5213 14.71 62.2353 14.71C61.9753 14.71 61.7673 15.048 61.3513 15.88C60.8833 16.738 60.1553 17.414 59.9213 17.544C59.1413 17.908 57.8933 18.246 57.1393 18.246C55.4233 18.246 53.3433 17.31 52.0173 15.646C51.2113 14.658 50.4833 12.37 50.4833 10.68C50.4833 8.834 51.2633 6.598 52.6673 5.298C53.6553 4.362 55.3193 3.764 56.5673 3.764C57.6593 3.764 58.8293 3.998 59.6353 4.466C60.6753 5.038 61.1953 5.87 61.4293 6.962C61.5333 7.326 61.6893 7.716 61.9493 7.716C62.2613 7.716 62.5473 7.43 62.5473 6.702C62.5473 6.052 62.4173 4.492 62.4173 4.024C62.4173 3.868 62.1573 3.608 62.0273 3.608C61.8193 3.608 60.9873 3.322 60.3373 3.14C59.4793 2.906 58.3613 2.646 57.1393 2.646ZM66.5637 3.452C66.5637 3.79 66.8237 3.946 67.4477 4.102C68.1497 4.284 68.8777 4.518 68.9037 5.22C68.9817 6.208 68.9817 6.91 68.9817 10.654C68.9817 13.306 68.9557 14.736 68.8777 16.14C68.7997 17.544 68.3317 17.856 67.1877 18.09C66.6677 18.22 66.3557 18.376 66.3557 18.688C66.3557 18.974 66.7717 19.182 67.0317 19.182C67.8377 19.182 70.1257 19.026 70.9057 19.026C71.6857 19.026 72.4397 19.104 72.9857 19.104C73.4017 19.104 73.7657 18.948 73.7657 18.662C73.7657 18.428 73.5577 18.168 73.0897 18.09C71.6857 17.804 71.3997 17.518 71.3477 16.738C71.2177 15.62 71.2697 12.708 71.2957 11.538C71.2957 11.512 71.3477 11.252 71.4777 11.252C72.6997 11.252 73.2977 12.032 73.9997 13.15C75.2217 15.048 76.1577 16.4 77.1197 17.596C78.1857 18.896 79.3817 19.312 81.4877 19.312C82.2417 19.312 82.9697 19.156 82.9697 18.714C82.9697 18.532 82.6837 18.402 82.4237 18.324C81.0197 18.012 80.4737 18.012 78.7317 15.854C77.4317 14.268 75.5337 11.304 74.8057 10.134C74.7797 10.082 74.8057 9.952 74.8317 9.926C75.2997 9.458 76.1057 8.262 76.9897 6.832C78.0557 5.142 78.6537 4.83 79.3817 4.83C80.0057 4.83 80.4217 5.09 80.7857 5.116C81.0717 5.142 81.6437 4.154 81.6437 3.608C81.6437 3.036 81.2797 2.62 80.2397 2.62C79.0437 2.62 77.8217 3.608 76.9117 4.96C75.9237 6.416 75.6117 7.118 74.8057 8.314C73.6617 10.03 72.9337 10.264 71.5037 10.264C71.3477 10.264 71.3217 10.186 71.2957 10.108C71.1657 9.302 71.2697 6.104 71.3477 5.298C71.3997 4.414 71.7637 4.284 72.5697 4.076C72.9597 3.972 73.3237 3.79 73.3237 3.478C73.3237 3.192 73.0117 3.062 72.5697 3.062C71.9717 3.062 70.8537 3.14 70.1257 3.14C69.3197 3.14 67.9937 3.062 67.3957 3.062C66.9277 3.062 66.5637 3.14 66.5637 3.452ZM97.1104 6.806C97.1104 5.74 96.6164 4.674 95.7064 3.972C95.0304 3.426 93.7564 2.932 91.8584 2.932C90.1164 2.932 88.5044 3.114 87.5684 3.114H86.2424C85.5924 3.114 85.2284 3.27 85.2284 3.53C85.2284 3.842 85.5924 4.05 85.8784 4.076C87.3084 4.258 87.5424 4.492 87.6204 5.376C87.6984 6.156 87.6724 8.574 87.6724 9.978C87.6724 15.698 87.6204 15.802 87.5684 16.27C87.4384 17.674 86.8924 17.726 85.8524 17.96C85.1764 18.116 84.8644 18.246 84.8644 18.636C84.8644 18.922 85.3584 19.078 85.7224 19.078C86.2164 19.078 86.6844 19 87.5684 19.026C88.6084 19.052 89.9864 19.156 91.6244 19.156C92.7684 19.156 94.0944 18.974 95.1604 18.558C96.6684 17.986 98.3584 16.738 98.3584 14.19C98.3584 12.24 96.8244 10.81 94.9784 10.238C94.8484 10.186 94.7704 9.926 94.8224 9.9C95.3424 9.692 96.0964 9.224 96.3044 8.964C96.7984 8.444 97.1104 7.768 97.1104 6.806ZM94.7184 7.014C94.7184 8.652 93.8084 9.406 93.5484 9.562C93.1844 9.744 92.0404 9.978 90.6884 9.978C90.3504 9.978 90.0124 9.874 89.9864 9.718C89.8824 9.198 89.9084 6.26 89.9864 4.518C90.0124 4.258 90.1164 4.154 90.2204 4.102C90.3244 4.05 90.7404 3.972 91.0524 3.972C93.7044 3.972 94.7184 5.454 94.7184 7.014ZM95.6804 14.45C95.6804 15.256 95.4204 15.984 95.1344 16.608C94.8744 17.128 93.5224 18.142 92.2224 18.142C91.7544 18.142 90.2724 17.518 90.0644 16.582C89.8824 15.75 89.8824 12.24 89.9604 11.72C90.0384 11.356 90.2464 11.122 90.2984 11.096C90.4284 11.044 91.1304 10.966 91.5204 10.966C93.7304 10.966 95.6804 12.006 95.6804 14.45ZM110.542 2.646C110.438 2.646 110.152 2.776 109.996 2.932C109.736 3.166 109.346 3.452 109.06 3.66C109.008 3.686 108.878 3.868 108.878 3.946C108.852 4.154 108.774 4.466 108.696 4.674C107.422 8.054 104.692 14.918 103.886 16.634C103.626 17.206 103.184 17.752 101.884 18.09C101.338 18.22 101.104 18.48 101.104 18.74C101.13 19.026 101.52 19.13 101.988 19.13C102.976 19.13 103.444 19 104.328 19C105.082 19 106.2 19.078 106.486 19.078C107.084 19.078 107.396 18.766 107.37 18.506C107.37 18.298 107.136 18.194 106.798 18.09C105.55 17.7 105.498 17.336 105.498 16.998C105.498 16.452 106.2 14.476 106.564 13.41C106.616 13.28 106.85 13.046 106.98 13.046C107.786 12.968 110.906 12.968 111.426 12.994C111.738 12.994 112.05 13.202 112.102 13.358C112.414 14.138 113.09 15.88 113.272 16.608C113.532 17.544 113.428 17.726 112.206 18.09C111.738 18.22 111.608 18.506 111.608 18.714C111.608 18.896 111.842 19.052 112.336 19.052C113.168 19.052 113.168 19 114.338 19C115.612 19 116.6 19.13 117.978 19.13C118.342 19.13 118.602 19 118.602 18.844C118.602 18.558 118.394 18.272 117.822 18.09C116.392 17.596 116.21 17.466 115.664 16.114C115.066 14.528 112.856 8.886 111.53 5.116C110.932 3.374 110.802 2.646 110.542 2.646ZM111.374 11.642C110.906 11.72 107.994 11.694 107.526 11.642C107.344 11.616 107.318 11.486 107.344 11.382C107.916 9.666 108.67 7.612 109.242 6.208C109.294 6.078 109.502 6.026 109.58 6.208C109.762 6.624 111.166 10.082 111.478 11.382C111.53 11.486 111.452 11.642 111.374 11.642Z" fill="white"/>
<path d="M8.216 35.236C6.552 35.236 5.486 36.094 4.29 37.446C4.238 37.498 4.056 37.498 4.082 37.342C4.81 33.884 6.266 32.454 9.568 31.778C10.53 31.596 11.466 31.284 11.778 30.998C12.22 30.53 12.766 29.646 12.792 28.892C12.792 28.71 12.792 28.476 12.714 28.424C12.688 28.398 12.376 28.398 12.272 28.502C11.648 29.1 10.738 29.282 9.802 29.594C7.566 30.322 6.032 31.596 4.732 33.234C2.73 35.756 1.378 39.448 1.378 42.724C1.378 45.038 2.886 46.39 4.186 46.39C4.602 46.39 5.252 46.338 6.032 45.948C8.294 44.804 10.686 41.814 10.686 38.226C10.686 36.926 10.01 35.236 8.216 35.236ZM7.644 36.276C8.112 36.276 8.71 36.848 8.71 37.602C8.71 39.942 7.618 42.672 6.266 44.258C5.642 44.96 4.992 45.298 4.524 45.298C3.64 45.298 3.25 44.284 3.25 43.582C3.25 40.982 4.212 39.032 5.902 37.16C6.318 36.692 7.072 36.276 7.644 36.276ZM21.0228 35.236C18.6568 35.236 17.2008 37.004 16.1088 39.214C15.1208 41.19 14.4708 43.01 13.8468 43.582C13.5868 43.79 12.6248 44.128 11.2208 44.024C11.0388 43.998 10.8568 44.388 10.8568 44.752C10.8828 45.636 11.5068 46.312 12.0268 46.312C12.5988 46.312 12.9108 46.208 13.5348 45.688C14.2108 45.116 15.5888 43.114 16.7588 40.488C17.5648 38.694 18.5268 37.03 19.5148 37.03C19.6188 37.03 19.8268 37.316 19.7748 37.472C19.3328 39.006 17.7728 44.024 17.6428 44.856C17.5648 45.194 17.5128 45.688 17.7468 45.922C17.9808 46.13 18.1368 46.312 18.4748 46.312C19.6448 46.312 21.5428 45.298 22.5568 43.79C22.7128 43.608 22.8948 43.166 22.8948 42.958C22.8948 42.698 22.5828 42.594 22.4008 42.75C21.5948 43.452 20.7368 44.102 20.3208 44.102C20.1908 44.102 19.9308 43.868 19.9828 43.608C20.2168 42.152 21.2828 38.408 21.7768 36.536C21.9068 36.042 21.8288 35.6 21.5168 35.392C21.3868 35.288 21.2048 35.236 21.0228 35.236ZM32.29 35.548C32.16 35.548 31.744 35.574 31.068 36.016C29.118 37.264 27.324 39.084 25.868 41.112C24.906 42.438 24.36 43.972 24.36 44.856C24.36 45.168 24.386 45.688 24.75 46C24.984 46.208 25.608 46.364 25.92 46.364C27.688 46.364 30.314 43.972 31.354 42.698C31.458 42.568 31.666 42.62 31.666 42.672C31.432 43.53 30.886 45.194 30.886 45.584C30.886 45.922 31.354 46.364 31.77 46.364C33.538 46.364 35.046 44.934 35.592 43.816C35.748 43.478 35.904 43.192 35.904 42.906C35.904 42.438 35.436 42.49 35.072 43.01C34.448 43.816 33.746 44.232 33.278 44.232C33.148 44.232 33.07 44.206 32.966 44.128C32.888 44.05 32.914 43.868 32.992 43.582C33.356 42.256 35.098 36.38 35.358 35.34C35.384 35.21 35.332 34.976 35.228 34.924C35.02 34.742 34.448 34.586 34.11 34.612C34.032 34.612 33.928 34.638 33.824 34.846C33.72 35.002 33.616 35.236 33.512 35.574C33.486 35.678 33.356 35.73 33.278 35.704C33.07 35.626 32.446 35.548 32.29 35.548ZM32.108 36.978C32.264 36.978 32.55 37.16 32.732 37.394C32.81 37.472 32.862 37.758 32.81 37.888C32.29 39.5 31.744 40.488 30.704 41.944C29.482 43.608 28.338 44.492 27.402 44.492C26.986 44.492 26.726 43.946 26.726 43.686C26.726 42.62 28.052 40.228 29.638 38.46C30.548 37.446 31.536 36.978 32.108 36.978ZM42.9246 35.106C41.6766 35.106 40.5326 35.834 39.9346 36.354C39.7006 36.536 39.4406 36.9 39.4406 37.134C39.4406 37.368 39.4926 37.706 39.5966 37.836C39.6486 37.914 39.9346 37.914 40.0126 37.81C40.6106 37.056 41.3646 36.432 42.2486 36.432C43.0546 36.432 43.5746 36.926 43.5746 37.68C43.5746 38.59 42.9246 39.266 41.5466 40.098C40.6886 40.644 39.9346 41.086 39.0766 41.606C38.1146 42.178 37.3606 43.114 37.4126 44.024C37.5166 45.272 38.4006 46.364 40.2466 46.364C41.4946 46.364 43.0546 45.922 44.1986 44.57C44.3806 44.336 44.5366 44.05 44.5366 43.738C44.5366 43.504 44.2506 43.322 44.1726 43.4C43.4706 43.946 42.2226 44.778 41.2346 44.778C40.4286 44.778 39.7526 44.518 39.7006 43.582C39.6226 42.88 40.1426 42.256 41.4426 41.476C42.0146 41.112 42.9506 40.592 43.7566 40.072C44.6926 39.422 45.5766 38.798 45.5766 37.576C45.5766 35.99 44.1986 35.106 42.9246 35.106ZM52.87 35.08C52.376 35.08 51.024 35.444 50.192 36.068C48.58 37.29 47.202 39.916 47.176 42.334C47.15 44.128 48.216 46.364 50.322 46.364C51.18 46.364 52.09 45.948 52.87 45.428C54.794 44.102 55.938 41.216 55.938 38.772C55.938 36.978 54.872 35.08 52.87 35.08ZM52.844 36.224C53.936 36.224 54.17 37.16 54.17 38.07C54.17 39.5 53.156 42.464 52.298 43.686C51.466 44.83 50.92 45.142 50.452 45.142C49.36 45.142 49.022 44.388 49.022 43.374C49.022 42.074 49.464 39.916 50.686 37.914C51.544 36.536 52.324 36.224 52.844 36.224ZM61.8658 35.08C60.1758 35.08 58.9278 36.042 58.3818 37.056C58.2518 37.264 58.1478 37.576 58.1478 37.888C58.1218 38.174 58.5898 38.2 58.7458 38.07C59.2398 37.68 60.3578 36.822 61.0078 36.822C61.3718 36.822 61.0858 37.914 60.6438 39.006C60.3578 39.76 58.5638 43.79 58.3298 44.31C58.0698 44.934 57.9138 45.454 57.9138 45.584C57.9138 45.974 58.4858 46.364 59.0058 46.364C59.2138 46.364 59.4998 46.156 59.6558 45.896C59.8378 45.584 62.3338 40.254 63.5298 38.798C64.8818 37.108 65.3498 36.51 66.6498 36.51C67.3258 36.51 67.3778 36.926 66.7538 38.72C66.2078 40.202 65.0378 43.14 64.4658 44.466C64.2318 45.012 64.1538 45.402 64.1538 45.506C64.1538 46.104 65.0378 46.364 65.2458 46.364C65.4278 46.364 65.6878 46.104 65.7398 46C65.9998 45.584 67.8718 41.632 68.5738 40.566C69.9518 38.46 71.4338 36.406 72.9938 36.406C73.4358 36.406 73.4878 37.004 73.1238 37.992C72.4478 39.812 70.8098 43.556 70.1338 44.986C69.9778 45.376 69.9258 45.792 70.0038 45.896C70.2118 46.182 70.5498 46.364 70.7578 46.364C71.7198 46.364 73.6958 45.09 74.9958 43.816C75.5418 43.27 75.7238 42.984 75.7498 42.438C75.7498 42.282 75.4118 42.1 75.3338 42.178C74.3718 43.114 73.1758 43.842 72.8898 43.842C72.8118 43.842 72.6818 43.634 72.7858 43.426C72.9418 43.062 74.0598 40.41 74.5018 39.24C74.8138 38.46 75.0998 37.68 75.0998 36.926C75.0998 36.146 74.7878 35.08 73.7478 35.08C72.1098 35.08 69.8218 36.848 68.4178 38.46C68.3138 38.59 68.1318 38.512 68.2098 38.252C68.2878 38.044 68.7298 36.978 68.7298 36.562C68.7298 36.016 68.7038 35.08 67.1958 35.08C65.6358 35.08 63.6598 36.9 62.4378 38.512C62.2558 38.668 62.0478 38.59 62.1518 38.434C62.1778 38.33 62.5158 37.316 62.6198 36.796C62.7758 36.016 62.7758 35.08 61.8658 35.08ZM83.9676 35.106C81.8876 35.106 80.0416 36.38 78.7936 39.136C78.4036 39.994 77.9876 41.424 77.6496 42.62C77.3376 43.764 77.5196 45.194 78.2996 45.74C78.8976 46.13 79.5996 46.312 80.2496 46.312C83.1616 46.312 85.8396 44.544 85.8396 42.62C85.8396 40.904 84.8516 40.436 83.9416 40.124C83.8116 40.072 83.7596 40.02 83.9156 39.968C85.1116 39.526 86.5676 38.512 86.5676 37.29C86.5676 36.146 85.6836 35.106 83.9676 35.106ZM83.4736 36.068C84.1756 36.068 84.6176 36.692 84.6436 37.29C84.6956 39.292 81.9396 39.916 80.6396 40.098C80.5096 40.098 80.4836 39.916 80.4836 39.864C80.9256 38.304 81.9136 36.068 83.4736 36.068ZM81.9396 40.8C83.1876 40.8 83.6816 41.632 83.6816 42.724C83.6816 43.998 82.5376 45.272 80.9516 45.272C80.4576 45.272 79.4956 44.908 79.4956 43.894C79.4956 43.322 79.6256 42.568 79.8856 41.736C79.9636 41.502 80.2236 41.112 80.3796 41.034C80.8216 40.852 81.3156 40.8 81.9396 40.8ZM94.1044 35.08C93.6104 35.08 92.2584 35.444 91.4264 36.068C89.8144 37.29 88.4364 39.916 88.4104 42.334C88.3844 44.128 89.4504 46.364 91.5564 46.364C92.4144 46.364 93.3244 45.948 94.1044 45.428C96.0284 44.102 97.1724 41.216 97.1724 38.772C97.1724 36.978 96.1064 35.08 94.1044 35.08ZM94.0784 36.224C95.1704 36.224 95.4044 37.16 95.4044 38.07C95.4044 39.5 94.3904 42.464 93.5324 43.686C92.7004 44.83 92.1544 45.142 91.6864 45.142C90.5944 45.142 90.2564 44.388 90.2564 43.374C90.2564 42.074 90.6984 39.916 91.9204 37.914C92.7784 36.536 93.5584 36.224 94.0784 36.224ZM109.522 38.226C109.522 36.822 109.028 35.08 106.35 35.08C106.012 35.08 104.972 35.236 104.114 35.34C104.036 35.34 103.906 35.184 103.906 35.08C104.01 34.638 104.192 33.962 104.192 33.65C104.192 33.312 103.438 32.844 103.282 32.844C103.1 32.844 102.736 33.104 102.632 33.234C102.372 33.598 102.268 34.014 101.878 35.574C101.852 35.652 101.8 35.73 101.514 35.86C100.89 36.172 99.9022 36.484 99.6682 36.692C99.5902 36.744 99.2002 37.316 99.2002 37.55C99.2002 37.628 99.4082 37.836 99.6162 37.758C100.058 37.576 100.916 37.316 101.28 37.212C101.384 37.16 101.488 37.394 101.488 37.472C100.786 40.488 99.1222 47.95 98.4982 49.692C98.2382 50.498 98.0562 50.732 96.6522 50.992C96.3142 51.07 95.9762 51.512 95.9762 51.72C95.9762 51.902 96.2102 52.084 96.7822 52.084C97.1722 52.084 98.1342 52.032 98.8362 52.032C100.162 52.058 101.54 52.188 101.618 52.188C102.242 52.188 102.58 51.902 102.58 51.616C102.58 51.382 102.164 51.2 101.878 51.122C100.604 50.784 100.5 50.472 100.656 49.562C100.89 48.262 101.124 47.43 101.41 46.208C101.41 46.156 101.618 46 101.696 46.026C102.164 46.208 102.632 46.364 102.996 46.364C103.62 46.364 104.894 45.714 106.038 44.778C106.922 44.024 109.522 41.112 109.522 38.226ZM107.442 38.044C107.442 40.098 105.986 42.62 105.726 43.036C105.206 43.816 103.776 45.298 102.918 45.298C102.606 45.298 102.19 44.83 101.982 44.414C101.904 44.232 101.852 43.998 101.878 43.894C102.138 42.646 103.074 38.902 103.464 37.16C103.516 36.9 103.776 36.562 103.88 36.536C104.088 36.484 104.946 36.276 105.908 36.276C106.506 36.276 107.442 36.874 107.442 38.044ZM115.653 35.08C114.535 35.08 113.053 36.068 112.039 37.29C111.779 37.602 111.623 37.992 111.623 38.278C111.623 38.538 111.961 38.642 112.065 38.564C112.299 38.382 113.521 37.238 113.989 37.238C114.119 37.238 114.249 37.446 114.041 37.992C113.469 39.474 111.961 43.738 111.831 44.336C111.727 44.856 111.701 45.22 111.805 45.454C112.039 45.974 112.741 46.26 113.261 46.26C113.859 46.26 114.769 45.948 115.497 45.324C117.031 44.076 118.227 42.568 119.371 41.008C119.475 40.852 119.683 41.086 119.631 41.19C119.345 42.1 118.877 43.504 118.539 44.44C118.383 44.934 118.227 45.428 118.227 45.558C118.227 45.896 118.617 46.468 119.241 46.468C120.827 46.468 122.569 44.986 123.089 43.92C123.271 43.556 123.427 43.14 123.427 42.776C123.427 42.62 123.089 42.464 122.595 42.958C121.633 43.972 121.087 44.18 120.645 44.18C120.463 44.18 120.333 44.05 120.359 43.946C120.853 42.36 121.633 39.5 122.049 38.174C122.465 36.848 122.647 36.25 122.647 35.86C122.647 35.496 122.205 35.106 121.815 35.106C121.633 35.106 121.347 35.288 120.905 36.042C120.463 36.822 118.903 39.864 117.655 41.606C116.043 43.842 115.133 44.596 114.275 44.596C113.859 44.596 113.833 43.998 113.885 43.816C114.691 41.476 116.225 37.16 116.355 36.38C116.459 35.756 116.095 35.08 115.653 35.08ZM128.948 35.08C127.258 35.08 126.01 36.042 125.464 37.056C125.334 37.264 125.23 37.576 125.23 37.888C125.204 38.174 125.672 38.2 125.828 38.07C126.322 37.68 127.44 36.822 128.09 36.822C128.454 36.822 128.168 37.914 127.726 39.006C127.44 39.76 125.646 43.79 125.412 44.31C125.152 44.934 124.996 45.454 124.996 45.584C124.996 45.974 125.568 46.364 126.088 46.364C126.296 46.364 126.582 46.156 126.738 45.896C126.92 45.584 129.416 40.254 130.612 38.798C131.964 37.108 132.432 36.51 133.732 36.51C134.408 36.51 134.46 36.926 133.836 38.72C133.29 40.202 132.12 43.14 131.548 44.466C131.314 45.012 131.236 45.402 131.236 45.506C131.236 46.104 132.12 46.364 132.328 46.364C132.51 46.364 132.77 46.104 132.822 46C133.082 45.584 134.954 41.632 135.656 40.566C137.034 38.46 138.516 36.406 140.076 36.406C140.518 36.406 140.57 37.004 140.206 37.992C139.53 39.812 137.892 43.556 137.216 44.986C137.06 45.376 137.008 45.792 137.086 45.896C137.294 46.182 137.632 46.364 137.84 46.364C138.802 46.364 140.778 45.09 142.078 43.816C142.624 43.27 142.806 42.984 142.832 42.438C142.832 42.282 142.494 42.1 142.416 42.178C141.454 43.114 140.258 43.842 139.972 43.842C139.894 43.842 139.764 43.634 139.868 43.426C140.024 43.062 141.142 40.41 141.584 39.24C141.896 38.46 142.182 37.68 142.182 36.926C142.182 36.146 141.87 35.08 140.83 35.08C139.192 35.08 136.904 36.848 135.5 38.46C135.396 38.59 135.214 38.512 135.292 38.252C135.37 38.044 135.812 36.978 135.812 36.562C135.812 36.016 135.786 35.08 134.278 35.08C132.718 35.08 130.742 36.9 129.52 38.512C129.338 38.668 129.13 38.59 129.234 38.434C129.26 38.33 129.598 37.316 129.702 36.796C129.858 36.016 129.858 35.08 128.948 35.08ZM151.044 35.08C150.082 35.08 148.834 35.574 148.34 35.912C146.208 37.42 144.648 40.8 144.648 43.348C144.648 43.582 144.674 43.842 144.726 43.998C145.038 45.298 146.052 46.364 147.508 46.364C149.016 46.364 150.238 45.532 151.044 44.726C151.408 44.362 151.772 43.816 151.772 43.374C151.772 43.27 151.616 43.036 151.486 43.036C151.356 43.036 151.122 43.244 150.914 43.452C150.42 43.998 149.094 44.778 148.47 44.778C148.288 44.778 147.82 44.778 147.352 44.466C146.936 44.18 146.754 43.556 146.754 43.27C146.754 42.464 146.884 41.502 147.014 41.164C147.04 41.086 147.248 40.904 147.274 40.904C148.678 40.826 150.758 40.384 152.032 39.474C152.734 38.928 153.332 38.148 153.332 37.16C153.306 36.38 152.89 35.782 152.266 35.418C152.058 35.262 151.304 35.08 151.044 35.08ZM150.966 35.99C151.252 35.99 151.59 36.406 151.59 36.692C151.59 38.954 148.522 39.968 147.508 40.02C147.352 40.02 147.352 39.942 147.352 39.734C148.236 37.68 149.926 35.99 150.966 35.99ZM163.083 35.236C160.717 35.236 159.261 37.004 158.169 39.214C157.181 41.19 156.531 43.01 155.907 43.582C155.647 43.79 154.685 44.128 153.281 44.024C153.099 43.998 152.917 44.388 152.917 44.752C152.943 45.636 153.567 46.312 154.087 46.312C154.659 46.312 154.971 46.208 155.595 45.688C156.271 45.116 157.649 43.114 158.819 40.488C159.625 38.694 160.587 37.03 161.575 37.03C161.679 37.03 161.887 37.316 161.835 37.472C161.393 39.006 159.833 44.024 159.703 44.856C159.625 45.194 159.573 45.688 159.807 45.922C160.041 46.13 160.197 46.312 160.535 46.312C161.705 46.312 163.603 45.298 164.617 43.79C164.773 43.608 164.955 43.166 164.955 42.958C164.955 42.698 164.643 42.594 164.461 42.75C163.655 43.452 162.797 44.102 162.381 44.102C162.251 44.102 161.991 43.868 162.043 43.608C162.277 42.152 163.343 38.408 163.837 36.536C163.967 36.042 163.889 35.6 163.577 35.392C163.447 35.288 163.265 35.236 163.083 35.236ZM170.705 35.08C168.989 35.08 167.117 36.64 166.675 37.29C166.467 37.524 166.363 37.81 166.363 37.94C166.363 38.278 166.623 38.382 166.831 38.226C167.559 37.732 168.391 37.082 168.937 37.03C169.197 37.004 169.327 37.004 169.145 37.446C168.443 39.11 167.741 40.904 167.117 42.62C166.935 43.088 166.805 43.764 166.805 44.206C166.805 45.662 168.079 46.312 169.275 46.312C169.873 46.312 171.225 46.104 172.499 45.324C174.007 44.414 175.567 42.594 175.567 40.722C175.567 39.604 174.995 38.512 173.721 38.512C172.629 38.512 171.095 39.24 170.081 40.228C169.925 40.358 169.795 40.28 169.847 40.15C170.315 39.11 170.913 37.55 171.303 36.744C171.407 36.484 171.459 36.068 171.459 35.808C171.459 35.548 170.991 35.08 170.705 35.08ZM172.811 39.734C173.253 39.734 173.591 40.098 173.617 40.67C173.617 41.658 173.019 43.036 171.667 44.336C171.095 44.882 170.419 45.35 169.795 45.35C169.353 45.35 168.703 44.622 168.703 44.258C168.703 43.478 169.171 42.516 169.639 41.944C171.017 40.15 172.317 39.734 172.811 39.734ZM181.522 35.054C180.014 35.054 178.168 36.718 177.882 37.056C177.648 37.368 177.466 37.628 177.466 37.94C177.466 38.2 177.752 38.278 177.934 38.148C178.532 37.706 179.156 37.212 179.728 37.056C179.884 37.004 179.962 37.29 179.936 37.394C179.026 40.072 177.648 43.53 177.206 44.752C177.128 44.986 177.076 45.376 177.102 45.532C177.102 45.87 177.596 46.312 178.064 46.312C178.324 46.312 178.506 46.182 178.766 45.584C179.312 44.31 179.858 43.01 180.352 41.58C180.404 41.45 180.586 41.242 180.716 41.242C181.782 41.216 183.212 41.138 184.2 41.034C184.33 41.008 184.382 41.19 184.382 41.294C183.68 43.114 183.134 44.648 183.082 44.882C183.03 44.986 182.874 45.558 183.082 45.844C183.29 46.104 183.576 46.312 183.888 46.312C184.824 46.312 187.346 44.96 188.178 43.582C188.308 43.4 188.36 43.062 188.36 42.854C188.36 42.62 188.048 42.542 187.97 42.594C187.138 43.4 186.046 44.05 185.734 44.05C185.578 44.05 185.422 43.764 185.526 43.452C186.098 41.502 186.8 39.578 187.684 37.342C187.866 36.9 188.23 35.964 188.412 35.6C188.516 35.418 188.282 35.054 188.152 35.054C187.736 35.054 187.008 35.21 186.644 35.47C186.514 35.574 186.41 35.704 186.358 35.808C186.254 36.198 185.552 37.992 184.85 39.812C184.824 39.89 184.72 39.968 184.564 39.994L181.184 40.098C181.158 40.098 180.95 39.942 180.976 39.864C181.366 38.746 181.912 37.446 182.224 36.562C182.302 36.302 182.354 35.99 182.328 35.73C182.328 35.444 181.886 35.054 181.522 35.054ZM197.456 35.548C197.326 35.548 196.91 35.574 196.234 36.016C194.284 37.264 192.49 39.084 191.034 41.112C190.072 42.438 189.526 43.972 189.526 44.856C189.526 45.168 189.552 45.688 189.916 46C190.15 46.208 190.774 46.364 191.086 46.364C192.854 46.364 195.48 43.972 196.52 42.698C196.624 42.568 196.832 42.62 196.832 42.672C196.598 43.53 196.052 45.194 196.052 45.584C196.052 45.922 196.52 46.364 196.936 46.364C198.704 46.364 200.212 44.934 200.758 43.816C200.914 43.478 201.07 43.192 201.07 42.906C201.07 42.438 200.602 42.49 200.238 43.01C199.614 43.816 198.912 44.232 198.444 44.232C198.314 44.232 198.236 44.206 198.132 44.128C198.054 44.05 198.08 43.868 198.158 43.582C198.522 42.256 200.264 36.38 200.524 35.34C200.55 35.21 200.498 34.976 200.394 34.924C200.186 34.742 199.614 34.586 199.276 34.612C199.198 34.612 199.094 34.638 198.99 34.846C198.886 35.002 198.782 35.236 198.678 35.574C198.652 35.678 198.522 35.73 198.444 35.704C198.236 35.626 197.612 35.548 197.456 35.548ZM197.274 36.978C197.43 36.978 197.716 37.16 197.898 37.394C197.976 37.472 198.028 37.758 197.976 37.888C197.456 39.5 196.91 40.488 195.87 41.944C194.648 43.608 193.504 44.492 192.568 44.492C192.152 44.492 191.892 43.946 191.892 43.686C191.892 42.62 193.218 40.228 194.804 38.46C195.714 37.446 196.702 36.978 197.274 36.978ZM211.752 36.692C211.414 37.784 209.334 43.66 208.814 44.986C208.71 45.454 208.71 45.74 208.918 46C209.1 46.208 209.282 46.312 209.568 46.312C210.686 46.312 213.078 44.726 213.806 43.66C213.962 43.452 214.196 43.036 214.196 42.672C214.196 42.438 213.884 42.438 213.676 42.646C212.922 43.4 211.986 43.998 211.492 43.998C211.336 43.998 211.154 43.894 211.284 43.426C211.778 41.814 212.74 38.928 213.338 37.186C213.52 36.614 213.78 35.99 213.91 35.652C213.936 35.574 213.832 35.21 213.676 35.262C213.416 35.366 213.026 35.444 212.792 35.444C212.246 35.392 211.674 35.288 210.686 35.288C209.516 35.288 208.372 35.496 207.722 35.782C206.448 36.302 205.382 37.29 205.382 38.668C205.382 39.812 206.188 40.774 207.514 41.19C207.618 41.216 207.618 41.346 207.54 41.424C206.968 42.1 206.396 42.854 205.512 43.634C205.018 44.05 204.654 44.18 204.056 44.18C203.458 44.18 202.678 43.764 202.262 43.556C202.106 43.478 201.872 43.998 201.872 44.388C201.846 45.714 202.834 46.286 203.484 46.286C204.186 46.286 204.914 46.13 205.876 45.168C206.838 44.258 207.826 42.776 209.152 41.112C209.23 41.008 209.75 40.748 209.88 40.592C210.14 40.332 210.166 39.916 209.984 39.916C208.398 39.812 207.254 39.24 207.254 38.174C207.254 37.134 208.424 36.25 210.374 36.25C211.05 36.25 211.154 36.302 211.57 36.354C211.752 36.38 211.83 36.536 211.752 36.692Z" fill="white"/>
</svg>
