<svg width="20" height="21" viewBox="0 0 20 21" fill="none" xmlns="http://www.w3.org/2000/svg">
<mask id="path-1-inside-1" fill="white">
<path fill-rule="evenodd" clip-rule="evenodd" d="M13.2717 0.711426H6.60506V7.37812L0 7.37812V14.0448H6.60506V20.7114H13.2717V14.0448H20V7.37812L13.2717 7.37812V0.711426Z"/>
</mask>
<path d="M6.60506 0.711426V-0.288574H5.60506V0.711426H6.60506ZM13.2717 0.711426H14.2717V-0.288574H13.2717V0.711426ZM6.60506 7.37812V8.37812H7.60506V7.37812H6.60506ZM0 7.37812L-7.21927e-08 6.37812H-1V7.37812H0ZM0 14.0448H-1V15.0448H0V14.0448ZM6.60506 14.0448H7.60506V13.0448H6.60506V14.0448ZM6.60506 20.7114H5.60506V21.7114H6.60506V20.7114ZM13.2717 20.7114V21.7114H14.2717V20.7114H13.2717ZM13.2717 14.0448V13.0448H12.2717V14.0448H13.2717ZM20 14.0448V15.0448H21V14.0448H20ZM20 7.37812H21V6.37812H20V7.37812ZM13.2717 7.37812H12.2717V8.37812H13.2717V7.37812ZM6.60506 1.71143H13.2717V-0.288574H6.60506V1.71143ZM7.60506 7.37812V0.711426H5.60506V7.37812H7.60506ZM7.21927e-08 8.37812L6.60506 8.37812V6.37812L-7.21927e-08 6.37812L7.21927e-08 8.37812ZM1 14.0448V7.37812H-1V14.0448H1ZM6.60506 13.0448H0V15.0448H6.60506V13.0448ZM7.60506 20.7114V14.0448H5.60506V20.7114H7.60506ZM13.2717 19.7114H6.60506V21.7114H13.2717V19.7114ZM12.2717 14.0448V20.7114H14.2717V14.0448H12.2717ZM20 13.0448H13.2717V15.0448H20V13.0448ZM19 7.37812V14.0448H21V7.37812H19ZM13.2717 8.37812L20 8.37812V6.37812L13.2717 6.37812V8.37812ZM12.2717 0.711426V7.37812H14.2717V0.711426H12.2717Z" fill="#F50000" mask="url(#path-1-inside-1)"/>
</svg>
