<svg width="24" height="25" viewBox="0 0 24 25" fill="none" xmlns="http://www.w3.org/2000/svg">
<path d="M22.7246 12.7957C22.214 12.7954 21.7525 13.0996 21.5518 13.5689L20.6883 15.5829C20.5969 15.5235 20.5004 15.4725 20.3998 15.4305V7.79054V6.86683C20.1266 6.61439 19.8494 6.37782 19.5995 6.19054V2.71053C19.5995 2.26871 19.2412 1.91053 18.7992 1.91053H16.7986C16.3566 1.91053 15.9983 2.26871 15.9983 2.71053V3.49254L12.5236 0.888535C12.2132 0.653133 11.7841 0.652317 11.4728 0.886535C1.33187 8.55734 14.3094 -1.18375 3.59422 6.84345V7.79054V15.4373C3.49473 15.4795 3.39902 15.5301 3.30812 15.5885L2.44263 13.5689C2.25858 13.1522 1.86608 12.8652 1.41299 12.8161C0.959898 12.7671 0.515045 12.9634 0.246004 13.3311C-0.0230361 13.6989 -0.0753907 14.1822 0.108662 14.5989L1.67678 18.0473C2.10132 18.9817 2.44384 19.1993 5.01148 21.7673C4.87279 21.9143 4.79525 22.1085 4.79461 22.3105V23.9105C4.79461 24.3524 5.1529 24.7105 5.59488 24.7105H9.99634C10.4383 24.7105 10.7966 24.3524 10.7966 23.9105V22.3105C10.7966 21.8687 10.4383 21.5105 9.99634 21.5105C9.99634 20.5253 10.0428 19.7297 9.49217 18.7105H14.5018C13.9364 19.7569 13.9977 20.6433 13.9977 21.5105C13.5557 21.5105 13.1974 21.8687 13.1974 22.3105V23.9105C13.1974 24.3524 13.5557 24.7105 13.9977 24.7105H18.3991C18.8411 24.7105 19.1994 24.3524 19.1994 23.9105V22.3105C19.199 22.1081 19.1212 21.9136 18.9821 21.7665L21.4485 19.3009C22.1804 18.5693 22.252 18.1897 23.8857 14.5989C24.0651 14.2042 24.0317 13.7454 23.7969 13.3809C23.5621 13.0163 23.1582 12.7959 22.7246 12.7957ZM16.7986 2.71053H18.7992V5.59054L16.7986 4.09254V2.71053ZM4.39448 7.19054C13.8864 0.0777356 11.5901 1.79853 11.957 1.52453C12.0254 1.47373 11.6341 1.22053 18.8985 6.66454C18.9398 6.71563 18.9931 6.75563 19.0537 6.78094L19.5995 7.19054V15.2833C19.1961 15.2971 18.8088 15.4452 18.4991 15.7041C16.2584 17.5921 16.0819 16.8725 15.088 17.9105H8.90597C7.92045 16.8813 7.72918 17.5849 5.49484 15.7041C5.18521 15.4456 4.79771 15.2986 4.39448 15.2865V7.19054ZM9.99634 23.9105H5.59488V22.3105H9.99634V23.9105ZM5.88697 21.5105C2.91239 18.5369 2.75074 18.4769 2.40582 17.7165L0.836903 14.2681C0.768416 14.1212 0.780984 13.9492 0.870114 13.8137C0.965334 13.6659 1.13439 13.5828 1.30962 13.5975C1.48485 13.6123 1.63762 13.7225 1.70679 13.8841C3.15407 17.2613 2.6271 16.4765 5.43883 19.2885C5.53929 19.3925 5.68806 19.4342 5.82796 19.3976C5.96786 19.361 6.07711 19.2518 6.11373 19.1119C6.15035 18.9721 6.10863 18.8234 6.00461 18.7229C4.21362 16.9325 3.99315 16.7585 3.68385 16.2949C4.06811 15.9993 4.60568 16.0083 4.97987 16.3165C7.40868 18.3601 7.65236 17.5937 8.49504 18.6457C9.2761 19.6233 9.19607 20.6653 9.19607 21.5105H5.88697ZM18.3991 23.9105H13.9977V22.3105H18.3991V23.9105ZM23.1575 14.2677C21.4897 17.9385 21.4721 18.1477 20.8827 18.7353L18.1066 21.5105H14.7979C14.7979 20.5505 14.7343 19.6021 15.4994 18.6457C16.3528 17.5801 16.5633 18.3793 19.0145 16.3161C19.3888 16.0084 19.9262 15.9997 20.3102 16.2953C20.0077 16.7489 19.8572 16.8553 17.9894 18.7229C17.8377 18.8799 17.8399 19.1294 17.9943 19.2837C18.1486 19.438 18.3982 19.4401 18.5552 19.2885C21.3857 16.4593 20.8407 17.2581 22.2872 13.8837C22.3566 13.7222 22.5095 13.6121 22.6847 13.5974C22.86 13.5828 23.029 13.666 23.1243 13.8137C23.213 13.9492 23.2256 14.1208 23.1575 14.2677Z" fill="#FF017B"/>
<path d="M15.334 12.9917L13.6868 12.2596C13.5704 12.2079 13.4953 12.0922 13.4953 11.9649V11.5126C14.0486 11.0717 14.4043 10.3928 14.4043 9.63202V8.99528C14.5866 8.89456 14.7072 8.69992 14.7072 8.48192V8.42012C14.7072 7.09442 13.6287 6.01587 12.303 6.01587H11.6971C10.3714 6.01587 9.29281 7.09442 9.29281 8.42012V8.98081C9.29281 9.17243 9.37528 9.34602 9.51902 9.4571C9.54339 9.47592 9.56906 9.49248 9.59578 9.5068V9.63198C9.59578 10.3928 9.95139 11.0717 10.5047 11.5125V11.9649C10.5047 12.0922 10.4295 12.2079 10.3132 12.2596L8.66598 12.9917C8.12654 13.2314 7.77795 13.7678 7.77795 14.3581V17.492C7.77795 17.6486 7.90487 17.7755 8.06142 17.7755C8.21796 17.7755 8.34488 17.6486 8.34488 17.492C8.34488 17.3355 8.34488 14.3582 8.34488 14.3582C8.34488 14.3253 8.34722 14.2929 8.35062 14.2607L9.10962 15.0197C9.22773 15.1378 9.29281 15.2948 9.29281 15.4619V18.1151C9.29281 18.2717 9.41973 18.3986 9.57628 18.3986C9.73282 18.3986 9.85974 18.2717 9.85974 18.1151V15.4619C9.85974 15.1434 9.73573 14.844 9.51051 14.6188L8.60566 13.7139C8.68719 13.6293 8.785 13.5592 8.89627 13.5097L10.5157 12.79L11.7166 13.9909V18.1151C11.7166 18.2716 11.8435 18.3986 12.0001 18.3986C12.1566 18.3986 12.2835 18.2716 12.2835 18.1151V13.991L13.4845 12.7901L15.1038 13.5097C15.2151 13.5592 15.3129 13.6293 15.3944 13.714L14.4896 14.6188C14.2644 14.844 14.1404 15.1434 14.1404 15.4619V18.1151C14.1404 18.2717 14.2673 18.3986 14.4238 18.3986C14.5804 18.3986 14.7073 18.2717 14.7073 18.1151V15.4619C14.7073 15.2949 14.7723 15.1378 14.8905 15.0197L15.6494 14.2607C15.6528 14.2929 15.6552 14.3253 15.6552 14.3581V17.4825C15.6552 17.639 15.7821 17.7659 15.9386 17.7659C16.0952 17.7659 16.2221 17.639 16.2221 17.4825C16.2221 17.3259 16.2221 14.3582 16.2221 14.3582C16.222 13.7678 15.8734 13.2315 15.334 12.9917ZM12 13.4727L10.9462 12.4189C11.0263 12.2841 11.0716 12.1281 11.0716 11.9649V11.8496C11.3574 11.9697 11.6711 12.0363 12 12.0363C12.3289 12.0363 12.6425 11.9697 12.9283 11.8496V11.9649C12.9283 12.1281 12.9736 12.2841 13.0538 12.4189L12 13.4727ZM12 11.4693C10.9869 11.4693 10.1627 10.6451 10.1627 9.63202V9.50453C10.3395 9.43442 10.5122 9.32285 10.6775 9.17035C10.7925 9.06419 10.7997 8.88485 10.6935 8.7698C10.5873 8.65479 10.408 8.64757 10.2929 8.75374C10.1512 8.88462 10.0095 8.96917 9.87202 9.00507C9.8687 9.00594 9.86624 9.00632 9.8645 9.00647C9.86246 9.0025 9.8597 8.99419 9.8597 8.98085V8.42016C9.8597 7.40706 10.6839 6.58283 11.697 6.58283H12.303C13.3161 6.58283 14.1403 7.40706 14.1403 8.42016V8.48195C14.1403 8.49114 14.1348 8.49911 14.1275 8.50055C12.4301 8.83579 11.5787 8.20397 11.2915 7.91673C11.1808 7.80603 11.0013 7.80603 10.8906 7.91673C10.7799 8.02743 10.7799 8.20692 10.8906 8.31758C11.7709 9.19783 13.0553 9.2137 13.8373 9.11974V9.63198C13.8373 10.6451 13.0131 11.4693 12 11.4693Z" fill="#FF017B"/>
</svg>
