<svg width="25" height="20" viewBox="0 0 25 20" fill="none" xmlns="http://www.w3.org/2000/svg">
<path d="M24.5996 11.5522C24.5996 10.7583 24.1651 10.043 23.4659 9.68546C22.7528 9.32077 21.8294 9.13585 20.7215 9.13585H8.67816C8.59144 8.7031 8.3993 8.30991 8.11106 7.98952L6.40317 6.09094C5.98055 5.62111 5.37324 5.33583 4.69317 5.28774L4.38638 5.26603C4.2293 5.25474 4.06969 5.27691 3.9165 5.32828V4.32464C3.9165 3.97308 3.76842 3.6556 3.5317 3.43064C3.77175 3.14293 3.9165 2.77299 3.9165 2.36986C3.9165 1.45538 3.1725 0.711426 2.25806 0.711426C1.34363 0.711426 0.599579 1.45543 0.599579 2.36991C0.599579 2.77308 0.744329 3.14297 0.984376 3.43069C0.747657 3.65569 0.599579 3.97313 0.599579 4.32469V19.2868C0.599579 19.5456 0.809438 19.7555 1.06833 19.7555H2.68622C2.928 19.7555 3.13013 19.5716 3.15291 19.3309C3.20874 18.7406 3.52088 17.1195 4.29422 16.3925H9.68184C9.94073 16.3925 10.1506 16.1826 10.1506 15.9237C10.1506 15.6649 9.94073 15.455 9.68184 15.455L1.53703 15.4549V11.3282L7.79372 11.3281V12.5496C7.79372 13.2723 8.38167 13.8603 9.10444 13.8603H23.2889C23.4147 13.8603 23.5414 13.842 23.662 13.8062V15.455H21.0789L21.0778 15.455H9.67392C9.41503 15.455 9.20517 15.6649 9.20517 15.9238C9.20517 16.1826 9.41503 16.3925 9.67392 16.3925H20.9049C21.6752 17.1175 21.9894 18.7402 22.0463 19.3309C22.0691 19.5717 22.2712 19.7556 22.513 19.7556H24.1308C24.3897 19.7556 24.5996 19.5457 24.5996 19.2868V11.5522ZM3.91763 6.86096C3.92461 6.66122 3.89724 6.45483 4.06181 6.30797C4.22738 6.16022 4.42599 6.20864 4.62699 6.22289C5.06986 6.25425 5.44303 6.42539 5.70614 6.71794L7.41403 8.61657C7.69088 8.92425 7.82367 9.35316 7.78791 9.82411C7.77417 10.0054 7.77745 10.1662 7.62464 10.2941C7.485 10.411 7.33345 10.3892 7.16536 10.3842C6.69324 10.37 6.28078 10.1927 6.00394 9.885L4.29605 7.98642C4.01981 7.67925 3.90338 7.26877 3.91763 6.86096ZM1.53708 10.3907V4.32469C1.53708 4.16129 1.67002 4.02835 1.83342 4.02835H2.68256C2.84597 4.02835 2.97891 4.16129 2.97891 4.32469V10.3906L1.53708 10.3907ZM3.91645 8.96611L5.19792 10.3907H3.91645V8.96611ZM2.25802 1.64897C2.65552 1.64897 2.97895 1.97236 2.97895 2.36991C2.97895 2.76746 2.65556 3.09085 2.25802 3.09085C1.86047 3.09085 1.53708 2.76746 1.53708 2.36991C1.53708 1.97236 1.86047 1.64897 2.25802 1.64897ZM2.2778 18.8181H1.53708V16.3926H3.10889C2.60161 17.223 2.3722 18.2502 2.2778 18.8181ZM9.10449 12.9229C8.89875 12.9229 8.73136 12.7555 8.73136 12.5498L8.73117 10.0733H20.7215C21.6795 10.0733 22.4593 10.2237 23.039 10.5201C23.4233 10.7166 23.6621 11.1121 23.6621 11.5522V12.548L23.662 12.5498C23.662 12.7555 23.4946 12.9229 23.2889 12.9229L9.10449 12.9229ZM22.9214 18.8181C22.827 18.2502 22.5975 17.223 22.0903 16.3926H23.6621V18.8181H22.9214Z" fill="#000092"/>
</svg>
