<svg width="23" height="23" viewBox="0 0 23 23" fill="none" xmlns="http://www.w3.org/2000/svg">
<path d="M0.413605 9.69004V21.2211C0.413605 21.7734 0.86132 22.2211 1.41361 22.2211H21.4136C21.9659 22.2211 22.4136 21.7734 22.4136 21.2211V9.68572C22.4136 9.38689 22.28 9.10371 22.0493 8.91375L12.1239 0.740754C11.7567 0.438391 11.2273 0.436524 10.858 0.736291L0.783397 8.91361C0.549458 9.10349 0.413605 9.38873 0.413605 9.69004Z" stroke="#33B406" stroke-width="0.8" stroke-linecap="round" stroke-linejoin="round"/>
<path d="M15.362 15.4941L13.3127 14.5832C13.1679 14.5189 13.0745 14.375 13.0745 14.2166V13.6539C13.7629 13.1053 14.2053 12.2607 14.2053 11.3141V10.522C14.4321 10.3967 14.5823 10.1545 14.5823 9.88327V9.80639C14.5823 8.15705 13.2404 6.81519 11.5911 6.81519H10.8372C9.18788 6.81519 7.84602 8.15705 7.84602 9.80639V10.504C7.84602 10.7424 7.94862 10.9583 8.12744 11.0965C8.15777 11.1199 8.1897 11.1405 8.22294 11.1584V11.3141C8.22294 12.2606 8.66537 13.1053 9.35372 13.6538V14.2166C9.35372 14.3749 9.2602 14.5189 9.11546 14.5832L7.06616 15.494C6.39502 15.7923 5.96133 16.4596 5.96133 17.194V21.8682C5.96133 22.063 6.11923 22.2209 6.314 22.2209C6.50876 22.2209 6.66666 22.063 6.66666 21.8682V17.1941C6.66666 17.1532 6.66958 17.1128 6.67381 17.0728L7.6181 18.0171C7.76504 18.164 7.84602 18.3594 7.84602 18.5673V21.8682C7.84602 22.063 8.00392 22.2209 8.19868 22.2209C8.39344 22.2209 8.55134 22.063 8.55134 21.8682V18.5673C8.55134 18.1711 8.39707 17.7985 8.11686 17.5183L6.99111 16.3925C7.09254 16.2873 7.21423 16.2001 7.35266 16.1385L9.36741 15.2431L10.8615 16.7372V21.8682C10.8615 22.063 11.0194 22.2209 11.2142 22.2209C11.409 22.2209 11.5669 22.063 11.5669 21.8682V16.7373L13.061 15.2431L15.0757 16.1385C15.2141 16.2001 15.3358 16.2873 15.4372 16.3926L14.3115 17.5183C14.0313 17.7985 13.877 18.1711 13.877 18.5673V21.8682C13.877 22.063 14.0349 22.2209 14.2297 22.2209C14.4244 22.2209 14.5823 22.063 14.5823 21.8682V18.5673C14.5823 18.3595 14.6632 18.164 14.8102 18.0171L15.7545 17.0728C15.7587 17.1129 15.7616 17.1532 15.7616 17.194V21.8682C15.7616 22.063 15.9195 22.2209 16.1143 22.2209C16.3091 22.2209 16.467 22.063 16.467 21.8682V17.1941C16.4668 16.4596 16.0332 15.7923 15.362 15.4941ZM11.214 16.0925L9.90303 14.7814C10.0027 14.6137 10.059 14.4196 10.059 14.2166V14.0731C10.4146 14.2225 10.8049 14.3053 11.2141 14.3053C11.6233 14.3053 12.0135 14.2226 12.3691 14.0731V14.2166C12.3691 14.4197 12.4254 14.6137 12.5251 14.7814L11.214 16.0925ZM11.2141 13.6C9.95368 13.6 8.92822 12.5746 8.92822 11.3141V11.1555C9.14829 11.0683 9.36308 10.9295 9.56871 10.7398C9.7118 10.6077 9.72078 10.3846 9.58865 10.2414C9.45656 10.0983 9.23349 10.0894 9.09031 10.2214C8.91393 10.3843 8.73769 10.4895 8.56663 10.5341C8.56249 10.5352 8.55943 10.5357 8.55727 10.5359C8.55473 10.5309 8.5513 10.5206 8.5513 10.504V9.80643C8.5513 8.54601 9.57675 7.52056 10.8372 7.52056H11.591C12.8515 7.52056 13.8769 8.54601 13.8769 9.80643V9.88331C13.8769 9.89474 13.87 9.90466 13.861 9.90645C11.7492 10.3235 10.69 9.53747 10.3326 9.1801C10.1949 9.04237 9.97159 9.04237 9.83391 9.1801C9.69618 9.31783 9.69618 9.54114 9.83391 9.67882C10.9291 10.774 12.5271 10.7937 13.5 10.6768V11.3141C13.5 12.5745 12.4745 13.6 11.2141 13.6Z" fill="#33B406"/>
<path d="M6.77293 13.5759V12.8219C6.77293 11.9019 6.29482 11.092 5.57439 10.6259C5.61888 10.4832 5.64211 10.3337 5.64211 10.1834C5.64211 9.3654 4.97665 8.69995 4.15866 8.69995C3.34067 8.69995 2.67521 9.36545 2.67521 10.1834C2.67521 10.3356 2.69826 10.4836 2.74283 10.626C2.02246 11.092 1.54439 11.902 1.54439 12.8219V13.5758C1.54439 14.4667 1.99265 15.2545 2.67517 15.7267V16.5022C2.67517 16.6552 2.5902 16.7927 2.45341 16.8611L1.23362 17.471C0.727805 17.724 0.413605 18.2324 0.413605 18.7979V21.8684C0.413605 22.0631 0.571504 22.221 0.766269 22.221C0.961033 22.221 1.11893 22.0631 1.11893 21.8684V18.9504L1.69345 19.5249C1.84039 19.6719 1.92136 19.8673 1.92136 20.0752V21.8684C1.92136 22.0631 2.07926 22.221 2.27402 22.221C2.46879 22.221 2.62669 22.0631 2.62669 21.8684V20.0752C2.62669 19.6789 2.47236 19.3064 2.19221 19.0262L1.3926 18.2266C1.38874 18.2228 1.38461 18.2194 1.38066 18.2158C1.43083 18.1715 1.48711 18.133 1.54909 18.1019L2.76888 17.492C2.83137 17.4608 2.88954 17.4239 2.94376 17.3829L3.806 18.2452V21.8684C3.806 22.0632 3.9639 22.2211 4.15866 22.2211C4.35342 22.2211 4.51132 22.0632 4.51132 21.8684V18.2451L5.37361 17.3828C5.42787 17.4239 5.48599 17.4608 5.54848 17.492L5.88483 17.6602C5.93547 17.6855 5.98927 17.6975 6.04231 17.6975C6.17167 17.6975 6.29623 17.6261 6.35801 17.5025C6.44514 17.3283 6.37452 17.1165 6.2003 17.0294L5.86395 16.8612C5.72712 16.7928 5.64215 16.6553 5.64215 16.5024V15.7268C6.32467 15.2547 6.77293 14.4668 6.77293 13.5759ZM4.15866 9.40528C4.58773 9.40528 4.93678 9.75437 4.93678 10.1834C4.93678 10.2307 4.93255 10.277 4.92446 10.3223C4.68211 10.248 4.42504 10.2077 4.15866 10.2077C3.89266 10.2077 3.63592 10.2478 3.39394 10.322C3.38581 10.2766 3.38054 10.2306 3.38054 10.1834C3.38054 9.75432 3.72959 9.40528 4.15866 9.40528ZM4.15866 10.913C5.21124 10.913 6.06761 11.7694 6.06761 12.822V12.9498C4.59935 13.3993 3.72432 12.2824 3.68694 12.2335C3.62557 12.1517 3.53176 12.1005 3.42982 12.0933C3.32788 12.0861 3.22772 12.1234 3.15545 12.1957C2.81882 12.5323 2.4891 12.6947 2.25098 12.7731C2.27708 11.743 3.12249 10.913 4.15866 10.913ZM4.15866 17.6002L3.34372 16.7853C3.36752 16.6944 3.38054 16.5996 3.38054 16.5023V16.0718C3.62642 16.1486 3.88781 16.1901 4.15866 16.1901C4.42951 16.1901 4.6909 16.1486 4.93678 16.0718V16.5023C4.93678 16.5996 4.9498 16.6944 4.9736 16.7853L4.15866 17.6002ZM4.15866 15.4847C3.10608 15.4847 2.24971 14.6284 2.24971 13.5758V13.5027C2.53095 13.4381 2.94794 13.288 3.38294 12.9381C3.53684 13.0833 3.75681 13.2614 4.03692 13.4142C4.36824 13.5949 4.82581 13.7621 5.38471 13.7621C5.59711 13.7621 5.82436 13.7374 6.0646 13.6807C6.00991 14.6847 5.17602 15.4847 4.15866 15.4847Z" fill="#33B406"/>
<path d="M21.5936 16.7171L19.6199 15.7303C19.4831 15.6619 19.3982 15.5244 19.3982 15.3714V14.8717C19.8602 14.4615 20.152 13.8637 20.152 13.1989V12.7974C20.1602 12.7974 20.1682 12.7977 20.1763 12.7977C20.3711 12.7977 20.529 12.6398 20.529 12.445V11.6911C20.529 10.4575 19.5253 9.4538 18.2916 9.4538H17.5378C16.3041 9.4538 15.3004 10.4575 15.3004 11.6911V12.445C15.3004 12.6398 15.4583 12.7977 15.6531 12.7977C15.656 12.7977 15.6645 12.7976 15.6773 12.797V13.1989C15.6773 13.8638 15.9693 14.4615 16.4312 14.8717V15.3715C16.4312 15.5245 16.3463 15.6619 16.2094 15.7303C16.0352 15.8174 15.9646 16.0292 16.0517 16.2035C16.1135 16.327 16.2381 16.3985 16.3674 16.3985C16.4204 16.3985 16.4742 16.3865 16.5249 16.3612C16.5874 16.3299 16.6455 16.293 16.6997 16.252L17.562 17.1143V21.8684C17.562 22.0631 17.7199 22.221 17.9147 22.221C18.1095 22.221 18.2674 22.0631 18.2674 21.8684V17.1142L19.1296 16.2519C19.1839 16.293 19.242 16.3299 19.3045 16.3611L21.2143 17.316L20.635 17.8953C20.3548 18.1755 20.2005 18.548 20.2005 18.9443V21.8683C20.2005 22.063 20.3584 22.2209 20.5532 22.2209C20.7479 22.2209 20.9058 22.063 20.9058 21.8683V18.9443C20.9058 18.7364 20.9868 18.541 21.1338 18.394L21.6825 17.8453C21.6991 17.9091 21.7082 17.9757 21.7082 18.0439V21.8683C21.7082 22.063 21.8661 22.2209 22.0609 22.2209C22.2557 22.2209 22.4135 22.063 22.4135 21.8683V18.0439C22.4136 17.4784 22.0994 16.9701 21.5936 16.7171ZM16.0057 12.0198V11.6911H16.0057C16.0057 10.8463 16.693 10.1591 17.5378 10.1591H18.2916C19.1364 10.1591 19.8236 10.8463 19.8236 11.6911V12.0828C18.2906 12.0001 17.3654 11.4036 17.3564 11.3977C17.2968 11.3579 17.2287 11.3384 17.1609 11.3384C17.0699 11.3384 16.9796 11.3736 16.9114 11.4417C16.574 11.7792 16.2434 11.9416 16.0057 12.0198ZM17.9147 16.4694L17.0998 15.6545C17.1235 15.5635 17.1366 15.4687 17.1366 15.3714V15.2964C17.379 15.3866 17.6412 15.4362 17.9147 15.4362C18.1882 15.4362 18.4504 15.3866 18.6928 15.2964V15.3714C18.6928 15.4687 18.7058 15.5635 18.7296 15.6545L17.9147 16.4694ZM17.9147 14.7309C17.0699 14.7309 16.3827 14.0436 16.3827 13.1989V12.6303C16.6297 12.5316 16.9174 12.3747 17.2103 12.1252C17.5806 12.3179 18.3555 12.651 19.4467 12.761V13.1989C19.4467 14.0436 18.7594 14.7309 17.9147 14.7309Z" fill="#33B406"/>
</svg>
