<svg width="55" height="66" viewBox="0 0 55 66" fill="none" xmlns="http://www.w3.org/2000/svg">
<path d="M24.1719 59.25H28.5469V61.4375H24.1719V59.25Z" fill="white"/>
<path d="M24.1719 54.875H28.5469V57.0625H24.1719V54.875Z" fill="white"/>
<path d="M54.25 47.7656L49 35.1875H46.4844L45.7188 36.8281L35.7656 30.5938L37.8438 29.0625C41.5625 26.4375 43.9687 22.1719 44.1875 17.5781L44.4062 14.8438C44.7344 10.25 42.1094 5.98438 37.8438 4.125L31.6094 1.28125C28.2188 -0.140625 24.5 -0.140625 21.1094 1.28125L14.7656 4.01562C10.5 5.875 7.98437 10.1406 8.20312 14.7344L8.42188 17.4688C8.75 22.0625 11.0469 26.2188 14.7656 28.9531L16.8438 30.4844L5.6875 37.4844C2.1875 39.6719 0 43.5 0 47.6562V65.8125H52.5V55.9688C54.7969 53.7812 55.3438 50.6094 54.25 47.7656ZM38.8281 35.0781L32.7031 39.6719C32.2656 40 31.6094 40 31.2812 39.5625L28.2188 36.5L29.9688 35.625C31.6094 34.75 33.1406 33.6562 34.4531 32.2344L38.8281 35.0781ZM30.1875 41.5312L26.3594 49.1875L22.5312 41.5312C22.6406 41.4219 22.8594 41.3125 22.9688 41.2031L26.3594 37.8125L29.75 41.2031C29.8594 41.3125 29.9688 41.4219 30.1875 41.5312ZM14.3281 16.9219V22.0625C14.3281 23.4844 14.5469 25.0156 14.9844 26.4375C12.4688 24.1406 10.8281 20.9688 10.6094 17.4688L10.3906 14.7344C10.1719 11.0156 12.25 7.625 15.6406 6.09375L21.9844 3.35938C24.8281 2.15625 28 2.15625 30.7344 3.35938L37.0781 6.09375C40.4687 7.625 42.5469 11.0156 42.3281 14.7344L42.1094 17.4688C41.8906 20.8594 40.3594 24.1406 37.7344 26.4375C38.1719 25.0156 38.3906 23.5938 38.3906 22.0625V17.6875C38.3906 15.8281 36.9688 14.4062 35.1094 14.4062H31.8281C30.625 14.4062 29.6406 13.4219 29.6406 12.2188V8.39062L16.2969 13.9688C15.0938 14.4063 14.3281 15.6094 14.3281 16.9219ZM16.5156 22.0625V17.0312C16.5156 16.5938 16.7344 16.1562 17.1719 16.0469L27.4531 11.7813V12.2188C27.4531 14.625 29.4219 16.5938 31.8281 16.5938H35.1094C35.7656 16.5938 36.2031 17.0312 36.2031 17.6875V22.0625C36.2031 26.9844 33.3594 31.5781 28.9844 33.7656L26.9062 34.8594C26.5781 34.9688 26.25 34.9688 25.9219 34.8594L23.8438 33.7656C19.3594 31.5781 16.5156 26.9844 16.5156 22.0625ZM18.2656 32.3438C19.5781 33.7656 21 34.8594 22.75 35.7344L24.5 36.6094L21.4375 39.6719C21 40 20.4531 40.1094 20.0156 39.7812L13.8906 35.1875L18.2656 32.3438ZM19.7969 63.625H13.2344V50.5H11.0469V63.625H2.29688V47.7656C2.29688 44.375 4.04688 41.2031 6.89062 39.4531L11.8125 36.3906L18.5938 41.5312C19.0312 41.8594 19.6875 42.0781 20.2344 42.1875L24.3906 50.6094H19.7969V63.625ZM30.7344 63.625H21.9844V52.6875H30.7344V63.625ZM50.4219 63.625H32.9219V50.5H28.1094L32.2656 42.0781C32.9219 42.0781 33.4688 41.8594 33.9063 41.4219L40.6875 36.2812L44.7344 38.7969L35.1094 60.8906L37.0781 61.7656L41.8906 50.6094L44.2969 51.375C45.5 51.8125 46.1562 53.125 45.7188 54.3281C45.3906 55.3125 44.5156 55.8594 43.5312 55.8594H42.7656V58.0469H47.3594C48.4531 58.0469 49.4375 57.8281 50.4219 57.3906V63.625ZM47.5781 55.9688C47.6875 55.75 47.7969 55.5312 47.9062 55.3125C48.7812 53.0156 47.6875 50.3906 45.3906 49.5156C45.2812 49.5156 45.2812 49.4062 45.1719 49.4062L42.9844 48.6406L47.6875 37.7031L52.1719 48.5312C53.2656 51.2656 52.0625 54.3281 49.3281 55.4219C48.7812 55.75 48.2344 55.9688 47.5781 55.9688Z" fill="white"/>
</svg>
