<svg width="60" height="71" viewBox="0 0 60 71" fill="none" xmlns="http://www.w3.org/2000/svg">
<g clip-path="url(#clip0)">
<path d="M59.4264 19.7196L40.453 11.1599C39.993 10.9524 39.478 11.2254 39.3027 11.7693C39.1274 12.3137 39.3581 12.9231 39.8181 13.1305L56.6075 20.7049L44.9849 25.949L30.3676 18.1173C29.919 17.8768 29.3912 18.1124 29.1884 18.6427C28.9851 19.1736 29.1843 19.7981 29.6324 20.0387L42.6389 27.0075L30 32.7093L3.39249 20.7049L30 8.7006L36.557 11.6593C37.0161 11.8662 37.5316 11.5938 37.7074 11.0494C37.8827 10.5055 37.652 9.8961 37.1919 9.68864L30.3177 6.58694C30.1131 6.49485 29.8869 6.49431 29.6823 6.58694L0.573584 19.7196C0.22843 19.8756 5.72205e-06 20.2678 5.72205e-06 20.7049V25.5205C5.72205e-06 25.9577 0.22843 26.3498 0.573584 26.5059L9.6634 30.6064V34.2606C9.6634 34.843 10.0621 35.3153 10.5542 35.3153C11.0468 35.3153 11.4455 34.843 11.4455 34.2606V31.4108L29.6823 39.6385C29.7849 39.6846 29.8924 39.7078 30 39.7078C30.1076 39.7078 30.2152 39.6846 30.3177 39.6385L44.0643 33.4367V50.125C39.7485 52.8058 34.9091 54.2424 30 54.2424C23.3002 54.2424 16.7285 51.5697 11.4455 46.7059V38.4788C11.4455 37.8964 11.0468 37.4241 10.5542 37.4241C10.0621 37.4241 9.6634 37.8964 9.6634 38.4788V47.2167C9.6634 47.5368 9.78608 47.8397 9.99711 48.0395C15.6509 53.3995 22.755 56.3512 30 56.3512C34.8862 56.3512 39.7073 55.0067 44.0643 52.4884V56.7564C42.6283 57.2206 41.5695 58.7769 41.5695 60.6213C41.5695 62.8303 43.0884 64.6282 44.9551 64.6282C46.8224 64.6282 48.3412 62.8303 48.3412 60.6213C48.3412 58.7769 47.2824 57.2206 45.8464 56.7564V51.3747C47.2989 50.397 48.6905 49.2843 50.0034 48.0395C50.2144 47.8397 50.3375 47.5368 50.3375 47.2167V30.6059L59.4264 26.5053C59.7716 26.3498 60 25.9577 60 25.52V20.7049C60 20.2678 59.7716 19.8756 59.4264 19.7196ZM46.5591 60.6213C46.5591 61.6673 45.8395 62.5188 44.9551 62.5188C44.0712 62.5188 43.3516 61.6673 43.3516 60.6213C43.3516 59.5748 44.0712 58.7232 44.9551 58.7232C45.8395 58.7232 46.5591 59.5748 46.5591 60.6213ZM1.78208 22.2357L29.1087 34.5645V37.1224L1.78208 24.7936V22.2357ZM30.8913 37.1224V34.5645L44.0643 28.6211V31.1795L30.8913 37.1224ZM48.555 46.7054C47.6857 47.506 46.7807 48.2459 45.8464 48.9252V32.6323L48.555 31.4103V46.7054ZM45.8464 30.3751V27.8173L58.2179 22.2357V24.7936L45.8464 30.3751Z" fill="#96BF31"/>
</g>
<defs>
<clipPath id="clip0">
<rect width="60" height="71" fill="white"/>
</clipPath>
</defs>
</svg>
