<svg width="30" height="30" viewBox="0 0 30 30" fill="none" xmlns="http://www.w3.org/2000/svg">
<path d="M15 0C6.729 0 0 6.729 0 15C0 23.271 6.729 30 15 30C23.271 30 30 23.271 30 15C30 6.729 23.271 0 15 0ZM15 29C7.2805 29 1 22.7195 1 15C1 7.2805 7.2805 1 15 1C22.7195 1 29 7.2805 29 15C29 22.7195 22.7195 29 15 29Z" fill="#AAAAAA"/>
<path d="M15.5 13.0105V7.93948C15.5 7.66298 15.276 7.43948 15 7.43948C14.724 7.43948 14.5 7.66298 14.5 7.93948V13.0105C13.8005 13.1925 13.253 13.74 13.071 14.4395H9.5C9.224 14.4395 9 14.663 9 14.9395C9 15.216 9.224 15.4395 9.5 15.4395H13.071C13.2945 16.2995 14.071 16.9395 15 16.9395C16.103 16.9395 17 16.0425 17 14.9395C17 14.01 16.36 13.234 15.5 13.0105ZM15 15.9395C14.4485 15.9395 14 15.491 14 14.9395C14 14.388 14.4485 13.9395 15 13.9395C15.5515 13.9395 16 14.388 16 14.9395C16 15.491 15.5515 15.9395 15 15.9395Z" fill="#AAAAAA"/>
<path d="M15 4.93948C15.276 4.93948 15.5 4.71598 15.5 4.43948V3.93948C15.5 3.66298 15.276 3.43948 15 3.43948C14.724 3.43948 14.5 3.66298 14.5 3.93948V4.43948C14.5 4.71598 14.724 4.93948 15 4.93948Z" fill="#AAAAAA"/>
<path d="M15 24.9395C14.724 24.9395 14.5 25.163 14.5 25.4395V25.9395C14.5 26.216 14.724 26.4395 15 26.4395C15.276 26.4395 15.5 26.216 15.5 25.9395V25.4395C15.5 25.163 15.276 24.9395 15 24.9395Z" fill="#AAAAAA"/>
<path d="M26 14.4395H25.5C25.224 14.4395 25 14.663 25 14.9395C25 15.216 25.224 15.4395 25.5 15.4395H26C26.276 15.4395 26.5 15.216 26.5 14.9395C26.5 14.663 26.276 14.4395 26 14.4395Z" fill="#AAAAAA"/>
<path d="M4.5 14.4395H4C3.724 14.4395 3.5 14.663 3.5 14.9395C3.5 15.216 3.724 15.4395 4 15.4395H4.5C4.776 15.4395 5 15.216 5 14.9395C5 14.663 4.776 14.4395 4.5 14.4395Z" fill="#AAAAAA"/>
<path d="M22.4245 6.80748L22.071 7.16098C21.8755 7.35648 21.8755 7.67248 22.071 7.86798C22.1685 7.96548 22.2965 8.01448 22.4245 8.01448C22.5525 8.01448 22.6805 7.96548 22.778 7.86798L23.1315 7.51448C23.327 7.31898 23.327 7.00298 23.1315 6.80748C22.936 6.61198 22.62 6.61248 22.4245 6.80748Z" fill="#AAAAAA"/>
<path d="M7.22199 22.0105L6.86849 22.364C6.67299 22.5595 6.67299 22.8755 6.86849 23.071C6.96599 23.1685 7.09399 23.2175 7.22199 23.2175C7.34999 23.2175 7.47799 23.1685 7.57549 23.071L7.92899 22.7175C8.12449 22.522 8.12449 22.206 7.92899 22.0105C7.73349 21.815 7.41699 21.8155 7.22199 22.0105Z" fill="#AAAAAA"/>
<path d="M22.778 22.0105C22.5825 21.815 22.2665 21.815 22.071 22.0105C21.8755 22.206 21.8755 22.522 22.071 22.7175L22.4245 23.071C22.522 23.1685 22.65 23.2175 22.778 23.2175C22.906 23.2175 23.034 23.1685 23.1315 23.071C23.327 22.8755 23.327 22.5595 23.1315 22.364L22.778 22.0105Z" fill="#AAAAAA"/>
<path d="M7.57549 6.80751C7.37999 6.61201 7.06399 6.61201 6.86849 6.80751C6.67299 7.00301 6.67299 7.31901 6.86849 7.51451L7.22199 7.86801C7.31949 7.96551 7.44749 8.01451 7.57549 8.01451C7.70349 8.01451 7.83149 7.96551 7.92899 7.86801C8.12449 7.67251 8.12449 7.35651 7.92899 7.16101L7.57549 6.80751Z" fill="#AAAAAA"/>
</svg>
