<svg width="48" height="48" viewBox="0 0 48 48" fill="none" xmlns="http://www.w3.org/2000/svg">
<g clip-path="url(#clip0)">
<path d="M47.2 30.7999C47.6418 30.7999 48 30.4417 48 29.9999V23.5999C48 23.1581 47.6418 22.7999 47.2 22.7999H37.1312L42.1656 17.7655C42.4779 17.4531 42.4779 16.9467 42.1656 16.6343L37.7944 12.2631C37.482 11.9508 36.9756 11.9508 36.6632 12.2631C35.4133 13.513 33.3867 13.513 32.1368 12.2631C30.8869 11.0132 30.8869 8.9866 32.1368 7.7367C32.4491 7.4243 32.4491 6.9179 32.1368 6.6055L28.5656 3.0343C28.2532 2.722 27.7468 2.722 27.4344 3.0343L7.6688 22.7999H0.8C0.3582 22.7999 0 23.1581 0 23.5999V29.9999C0 30.4417 0.3582 30.7999 0.8 30.7999C2.5673 30.7999 4 32.2326 4 33.9999C4 35.7672 2.5673 37.1999 0.8 37.1999C0.3582 37.1999 0 37.5581 0 37.9999V44.3999C0 44.8417 0.3582 45.1999 0.8 45.1999H47.2C47.6418 45.1999 48 44.8417 48 44.3999V37.9999C48 37.5581 47.6418 37.1999 47.2 37.1999C45.4327 37.1999 44 35.7672 44 33.9999C44 32.2326 45.4327 30.7999 47.2 30.7999ZM28 4.7311L30.4864 7.2175C28.9453 9.3745 29.4446 12.3724 31.6016 13.9135C33.2707 15.1061 35.5133 15.1061 37.1824 13.9135L40.4688 17.1999L34.8688 22.7999H32.3312L34.1656 20.9655C34.4779 20.6531 34.4779 20.1467 34.1656 19.8343L25.3656 11.0343C25.0532 10.722 24.5468 10.722 24.2344 11.0343L12.4688 22.7999H9.9312L28 4.7311ZM30.0688 22.7999H14.7312L24.8 12.7311L32.4688 20.3999L30.0688 22.7999ZM42.462 34.7955C42.8012 36.8133 44.3822 38.3943 46.4 38.7335V43.5999H40V40.3999H38.4V43.5999H9.6V42.7999H8V43.5999H1.6V38.7335C4.2143 38.2941 5.9774 35.8186 5.538 33.2043C5.1988 31.1865 3.6179 29.6055 1.6 29.2663V24.3999H8V26.7999H9.6V24.3999H46.4V29.2663C43.7857 29.7057 42.0226 32.1813 42.462 34.7955Z" fill="#AAAAAA"/>
<path d="M40 25.9999H38.4V29.1999H40V25.9999Z" fill="#AAAAAA"/>
<path d="M40 30.7999H38.4V33.9999H40V30.7999Z" fill="#AAAAAA"/>
<path d="M40 35.5999H38.4V38.7999H40V35.5999Z" fill="#AAAAAA"/>
<path d="M9.6 28.3999H8V31.5999H9.6V28.3999Z" fill="#AAAAAA"/>
<path d="M9.6 33.1999H8V36.3999H9.6V33.1999Z" fill="#AAAAAA"/>
<path d="M9.6 37.9999H8V41.1999H9.6V37.9999Z" fill="#AAAAAA"/>
<path d="M35.2 28.3999C34.3163 28.3999 33.6 27.6836 33.6 26.7999C33.6 26.3581 33.2418 25.9999 32.8 25.9999H15.2C14.7582 25.9999 14.4 26.3581 14.4 26.7999C14.4 27.6836 13.6837 28.3999 12.8 28.3999C12.3582 28.3999 12 28.7581 12 29.1999V38.7999C12 39.2417 12.3582 39.5999 12.8 39.5999C13.6837 39.5999 14.4 40.3162 14.4 41.1999C14.4 41.6417 14.7582 41.9999 15.2 41.9999H32.8C33.2418 41.9999 33.6 41.6417 33.6 41.1999C33.6 40.3162 34.3163 39.5999 35.2 39.5999C35.6418 39.5999 36 39.2417 36 38.7999V29.1999C36 28.7581 35.6418 28.3999 35.2 28.3999ZM34.4 38.1007C33.2737 38.3941 32.3942 39.2736 32.1008 40.3999H15.8992C15.6058 39.2736 14.7263 38.3941 13.6 38.1007V29.8991C14.7263 29.6057 15.6058 28.7262 15.8992 27.5999H32.1008C32.3942 28.7262 33.2737 29.6057 34.4 29.8991V38.1007Z" fill="#AAAAAA"/>
</g>
<defs>
<clipPath id="clip0">
<rect width="48" height="48" fill="white"/>
</clipPath>
</defs>
</svg>
