<svg width="35" height="35" viewBox="0 0 35 35" fill="none" xmlns="http://www.w3.org/2000/svg">
<g clip-path="url(#clip0)">
<path d="M34.4167 22.4583C34.7388 22.4583 35 22.1971 35 21.8749V17.2083C35 16.8861 34.7388 16.6249 34.4167 16.6249H27.0748L30.7457 12.954C30.9735 12.7262 30.9735 12.357 30.7457 12.1292L27.5584 8.94184C27.3306 8.71412 26.9614 8.71412 26.7336 8.94184C25.8222 9.85323 24.3445 9.85323 23.4331 8.94184C22.5217 8.03046 22.5217 6.55273 23.4331 5.64134C23.6608 5.41355 23.6608 5.0443 23.4331 4.81651L20.8291 2.21251C20.6013 1.98479 20.232 1.98479 20.0042 2.21251L5.59183 16.6249H0.583333C0.261187 16.6249 0 16.8861 0 17.2083V21.8749C0 22.1971 0.261187 22.4583 0.583333 22.4583C1.87199 22.4583 2.91667 23.5029 2.91667 24.7916C2.91667 26.0802 1.87199 27.1249 0.583333 27.1249C0.261187 27.1249 0 27.3861 0 27.7083V32.3749C0 32.6971 0.261187 32.9583 0.583333 32.9583H34.4167C34.7388 32.9583 35 32.6971 35 32.3749V27.7083C35 27.3861 34.7388 27.1249 34.4167 27.1249C33.128 27.1249 32.0833 26.0802 32.0833 24.7916C32.0833 23.5029 33.128 22.4583 34.4167 22.4583ZM20.4167 3.44976L22.2297 5.26276C21.1059 6.83557 21.47 9.02154 23.0428 10.1453C24.2599 11.0149 25.8951 11.0149 27.1122 10.1453L29.5085 12.5416L25.4252 16.6249H23.5748L24.9124 15.2873C25.1401 15.0595 25.1401 14.6903 24.9124 14.4625L18.4958 8.04584C18.268 7.81812 17.8987 7.81812 17.6709 8.04584L9.09183 16.6249H7.2415L20.4167 3.44976ZM21.9252 16.6249H10.7415L18.0833 9.28309L23.6752 14.8749L21.9252 16.6249ZM30.9619 25.3717C31.2092 26.843 32.362 27.9958 33.8333 28.2432V31.7916H29.1667V29.4583H28V31.7916H7V31.2083H5.83333V31.7916H1.16667V28.2432C3.07293 27.9228 4.35852 26.1177 4.03813 24.2115C3.79079 22.7402 2.63805 21.5873 1.16667 21.34V17.7916H5.83333V19.5416H7V17.7916H33.8333V21.34C31.9271 21.6604 30.6415 23.4655 30.9619 25.3717Z" fill="#AAAAAA"/>
<path d="M29.1667 18.9583H28V21.2916H29.1667V18.9583Z" fill="#AAAAAA"/>
<path d="M29.1667 22.4583H28V24.7916H29.1667V22.4583Z" fill="#AAAAAA"/>
<path d="M29.1667 25.9583H28V28.2916H29.1667V25.9583Z" fill="#AAAAAA"/>
<path d="M7.00004 20.7083H5.83337V23.0416H7.00004V20.7083Z" fill="#AAAAAA"/>
<path d="M7.00004 24.2083H5.83337V26.5416H7.00004V24.2083Z" fill="#AAAAAA"/>
<path d="M7.00004 27.7083H5.83337V30.0416H7.00004V27.7083Z" fill="#AAAAAA"/>
<path d="M25.6667 20.7083C25.0223 20.7083 24.5 20.1859 24.5 19.5416C24.5 19.2194 24.2388 18.9583 23.9167 18.9583H11.0833C10.7612 18.9583 10.5 19.2194 10.5 19.5416C10.5 20.1859 9.9777 20.7083 9.33333 20.7083C9.01119 20.7083 8.75 20.9694 8.75 21.2916V28.2916C8.75 28.6137 9.01119 28.8749 9.33333 28.8749C9.9777 28.8749 10.5 29.3972 10.5 30.0416C10.5 30.3637 10.7612 30.6249 11.0833 30.6249H23.9167C24.2388 30.6249 24.5 30.3637 24.5 30.0416C24.5 29.3972 25.0223 28.8749 25.6667 28.8749C25.9888 28.8749 26.25 28.6137 26.25 28.2916V21.2916C26.25 20.9694 25.9888 20.7083 25.6667 20.7083ZM25.0833 27.7817C24.2621 27.9957 23.6208 28.637 23.4068 29.4582H11.5932C11.3792 28.637 10.7379 27.9957 9.91667 27.7817V21.8014C10.7379 21.5875 11.3792 20.9462 11.5932 20.1249H23.4068C23.6208 20.9462 24.2621 21.5875 25.0833 21.8014V27.7817Z" fill="#AAAAAA"/>
</g>
<defs>
<clipPath id="clip0">
<rect width="35" height="35" fill="white"/>
</clipPath>
</defs>
</svg>
