<svg width="60" height="60" viewBox="0 0 60 60" fill="none" xmlns="http://www.w3.org/2000/svg">
<g clip-path="url(#clip0)">
<path d="M55.014 45.389L45.461 40.613C44.56 40.162 44 39.256 44 38.248V34.867C44.229 34.587 44.47 34.268 44.719 33.916C45.958 32.166 46.951 30.218 47.673 28.117C49.084 27.47 50 26.075 50 24.5V20.5C50 19.537 49.64 18.604 49 17.875V12.556C49.056 12.006 49.276 8.732 46.908 6.031C44.854 3.688 41.521 2.5 37 2.5C32.479 2.5 29.146 3.688 27.092 6.03C25.657 7.667 25.174 9.511 25.028 10.835C23.314 9.949 21.294 9.5 19 9.5C8.61098 9.5 8.00598 18.355 7.99998 18.5V23.079C7.35198 23.785 6.99998 24.6 6.99998 25.409V28.863C6.99998 29.942 7.48298 30.948 8.31098 31.628C9.13598 34.738 11.165 37.088 11.955 37.913V40.656C11.955 41.443 11.527 42.165 10.784 42.571L4.13098 46.744C1.58298 48.134 -1.52588e-05 50.801 -1.52588e-05 53.703V57.5H14H16H60V53.457C60 50.019 58.089 46.927 55.014 45.389ZM14 53.262V55.5H1.99998V53.703C1.99998 51.533 3.18398 49.539 5.14098 48.47L11.793 44.297C13.126 43.57 13.954 42.176 13.954 40.656V37.065L13.636 36.768C13.61 36.744 10.953 34.234 10.168 30.813L10.077 30.417L9.73498 30.197C9.27498 29.899 8.99998 29.4 8.99998 28.863V25.409C8.99998 25.049 9.24498 24.621 9.67098 24.235L9.99998 23.938L9.99798 18.558C10.016 18.271 10.537 11.5 19 11.5C21.393 11.5 23.408 12.053 25 13.144V17.875C24.36 18.604 24 19.537 24 20.5V24.5C24 24.804 24.035 25.103 24.101 25.393C24.128 25.509 24.182 25.615 24.219 25.727C24.274 25.895 24.318 26.068 24.395 26.227C24.396 26.229 24.397 26.23 24.398 26.232C24.654 26.76 25.027 27.232 25.497 27.609C25.502 27.628 25.508 27.645 25.513 27.663C25.573 27.892 25.636 28.12 25.704 28.343L25.785 28.604C25.799 28.65 25.816 28.697 25.831 28.743C25.866 28.851 25.9 28.958 25.936 29.064C25.996 29.239 26.059 29.42 26.132 29.617C26.163 29.699 26.197 29.773 26.229 29.854C26.311 30.063 26.393 30.265 26.479 30.465C26.5 30.513 26.518 30.565 26.539 30.612L26.595 30.738C26.621 30.796 26.648 30.848 26.674 30.905C26.772 31.119 26.868 31.326 26.968 31.526C26.984 31.558 26.999 31.593 27.015 31.625C27.078 31.75 27.141 31.868 27.204 31.988C27.312 32.194 27.418 32.388 27.524 32.576C27.576 32.668 27.627 32.758 27.678 32.845C27.822 33.091 27.959 33.317 28.092 33.527C28.121 33.572 28.149 33.619 28.177 33.662C28.419 34.037 28.629 34.341 28.803 34.578C28.849 34.641 28.889 34.695 28.928 34.748C28.95 34.777 28.98 34.819 28.999 34.845V38.154C28.999 39.122 28.471 40.01 27.622 40.474L24.976 41.917L24.515 41.876L24.327 42.271L18.701 45.34C15.801 46.924 14 49.958 14 53.262ZM58 55.5H16V53.262C16 50.691 17.402 48.328 19.659 47.098L28.58 42.232C30.073 41.417 31 39.854 31 38.155V34.137V34.136L30.806 33.904L30.768 33.859C30.766 33.856 30.704 33.781 30.603 33.649C30.597 33.641 30.591 33.633 30.584 33.625C30.531 33.556 30.469 33.473 30.398 33.374C30.397 33.372 30.396 33.371 30.395 33.369C30.246 33.162 30.059 32.893 29.851 32.569C29.846 32.562 29.842 32.554 29.837 32.547C29.739 32.394 29.635 32.227 29.529 32.05C29.521 32.037 29.513 32.024 29.505 32.01C29.279 31.631 29.039 31.202 28.8 30.727C28.8 30.727 28.799 30.726 28.799 30.725C28.672 30.47 28.545 30.202 28.421 29.923C28.404 29.884 28.386 29.846 28.369 29.807C28.314 29.682 28.259 29.551 28.203 29.416C28.183 29.367 28.163 29.316 28.143 29.266C28.091 29.135 28.038 29.003 27.982 28.852C27.88 28.58 27.784 28.296 27.692 28.003L27.637 27.825C27.631 27.805 27.624 27.785 27.618 27.764C27.524 27.448 27.434 27.125 27.358 26.793L27.267 26.397L26.926 26.177C26.346 25.803 26 25.176 26 24.5V20.5C26 19.939 26.238 19.416 26.67 19.025L27 18.728V12.5V12.146L26.973 12.125C26.939 11.403 26.982 9.19 28.596 7.349C30.253 5.458 33.081 4.5 37 4.5C40.905 4.5 43.727 5.451 45.386 7.328C47.333 9.529 47.011 12.345 47.009 12.369L47 18.728L47.33 19.026C47.762 19.416 48 19.939 48 20.5V24.5C48 25.373 47.428 26.137 46.578 26.399L46.08 26.552L45.92 27.047C45.251 29.128 44.298 31.05 43.086 32.76C42.789 33.181 42.5 33.554 42.249 33.839L42 34.123V38.248C42 40.018 42.983 41.609 44.566 42.401L54.119 47.177C56.513 48.374 58 50.78 58 53.457V55.5Z" fill="#96BF31"/>
</g>
<defs>
<clipPath id="clip0">
<rect width="60" height="60" fill="white"/>
</clipPath>
</defs>
</svg>
