<?xml version="1.0" encoding="utf-8"?>
<!-- Generator: Adobe Illustrator 18.0.0, SVG Export Plug-In . SVG Version: 6.00 Build 0)  -->
<!DOCTYPE svg PUBLIC "-//W3C//DTD SVG 1.1//EN" "http://www.w3.org/Graphics/SVG/1.1/DTD/svg11.dtd">
<svg version="1.1" id="Слой_1" xmlns="http://www.w3.org/2000/svg" xmlns:xlink="http://www.w3.org/1999/xlink" x="0px" y="0px"
	 viewBox="-245.6 0 60 60" enable-background="new -245.6 0 60 60" xml:space="preserve">
<path fill="#96BF31" d="M48,42.9l-9.6-4.8c-0.9-0.5-1.5-1.4-1.5-2.4v-3.4c0.2-0.3,0.5-0.6,0.7-1c1.2-1.8,2.2-3.7,3-5.8
	c1.4-0.6,2.3-2,2.3-3.6v-4c0-1-0.4-1.9-1-2.6v-5.3c0.1-0.6,0.3-3.8-2.1-6.5C37.9,1.2,34.5,0,30,0s-7.9,1.2-9.9,3.5
	c-2.4,2.7-2.1,6-2.1,6.5v5.3c-0.6,0.7-1,1.7-1,2.6v4c0,1.2,0.6,2.4,1.5,3.1c0.9,3.6,2.8,6.4,3.5,7.2v3.3c0,1-0.5,1.9-1.4,2.3
	l-8.9,4.9C8.8,44.4,7,47.5,7,50.8V54c0,4.7,15,6,23,6s23-1.3,23-6v-3C53,47.5,51.1,44.4,48,42.9z M51,54c0,1.4-7.4,4-21,4
	S9,55.4,9,54v-3.2c0-2.6,1.4-4.9,3.7-6.2l8.9-4.9c1.5-0.8,2.4-2.4,2.4-4.1v-4l-0.2-0.3c0,0-2.5-3-3.4-7.1l-0.1-0.4l-0.3-0.2
	c-0.6-0.4-0.9-1-0.9-1.7v-4c0-0.6,0.2-1.1,0.7-1.5l0.3-0.3V10l0-0.1c0,0-0.3-2.8,1.6-5C23.3,3,26.1,2,30,2c3.9,0,6.7,1,8.4,2.8
	c1.9,2.2,1.6,5,1.6,5l0,6.4l0.3,0.3c0.4,0.4,0.7,0.9,0.7,1.5v4c0,0.9-0.6,1.6-1.4,1.9l-0.5,0.2l-0.2,0.5c-0.7,2.1-1.6,4-2.8,5.7
	c-0.3,0.4-0.6,0.8-0.8,1.1L35,31.6v4.1c0,1.8,1,3.4,2.6,4.2l9.6,4.8c2.4,1.2,3.9,3.6,3.9,6.3V54z"/>
<path fill="#96BF31" d="M-40.3,57.7c-2.3,0.2-4.9,0.3-7.7,0.3c-13.6,0-21-2.6-21-4v-3.2c0-2.6,1.4-4.9,3.7-6.2l8.9-4.9
	c1.5-0.8,2.4-2.4,2.4-4.1v-4l-0.2-0.3c0,0-2.5-3-3.4-7.1l-0.1-0.4l-0.3-0.2c-0.6-0.4-0.9-1-0.9-1.7v-4c0-0.6,0.2-1.1,0.7-1.5
	l0.3-0.3V10l0-0.1c0,0-0.3-2.8,1.6-5C-54.7,3-51.9,2-48,2c3.9,0,6.7,1,8.4,2.8c1.9,2.2,1.6,5,1.6,5l0,6.4l0.3,0.3
	c0.4,0.4,0.7,0.9,0.7,1.5v4c0,0.9-0.6,1.6-1.4,1.9l-0.5,0.2l-0.2,0.5c-0.7,2.1-1.6,4-2.8,5.7c-0.3,0.4-0.6,0.8-0.8,1.1l-0.2,0.3v4.1
	c0,0.1,0,0.2,0,0.3c0.6-0.6,1.2-1,2-1.4v-2.3c0.2-0.3,0.5-0.6,0.7-1c1.2-1.8,2.2-3.7,3-5.8c1.4-0.6,2.3-2,2.3-3.6v-4
	c0-1-0.4-1.9-1-2.6v-5.3c0.1-0.5,0.3-3.8-2.1-6.5C-40.1,1.2-43.5,0-48,0s-7.9,1.2-9.9,3.5c-2.4,2.7-2.1,6-2.1,6.5v5.3
	c-0.6,0.7-1,1.7-1,2.6v4c0,1.2,0.6,2.4,1.5,3.1c0.9,3.6,2.8,6.4,3.5,7.2v3.3c0,1-0.5,1.9-1.4,2.3l-8.9,4.9c-2.9,1.6-4.7,4.6-4.7,7.9
	V54c0,4.7,15,6,23,6c2.6,0,6-0.1,9.4-0.5C-39.2,59-39.8,58.4-40.3,57.7z"/>
<g>
	<path fill="#96BF31" d="M-42.3,41.1c0-1.3,0.4-2.4,1.2-3.2c0.8-0.8,1.9-1.2,3.3-1.2c1.4,0,2.5,0.4,3.3,1.2c0.8,0.8,1.2,1.9,1.2,3.3
		v1.1c0,1.3-0.4,2.3-1.2,3.2c-0.8,0.8-1.9,1.2-3.3,1.2c-1.3,0-2.4-0.4-3.3-1.2c-0.9-0.8-1.3-1.9-1.3-3.3V41.1z M-39.8,42.2
		c0,0.7,0.2,1.2,0.6,1.6c0.4,0.4,0.9,0.6,1.5,0.6c0.6,0,1.1-0.2,1.5-0.6c0.4-0.4,0.6-1,0.6-1.7v-1.1c0-0.7-0.2-1.2-0.6-1.7
		c-0.4-0.4-0.9-0.6-1.5-0.6c-0.6,0-1.1,0.2-1.5,0.6c-0.4,0.4-0.6,1-0.6,1.7V42.2z M-37,56.8l-1.8-1.1L-28.4,39l1.8,1.1L-37,56.8z
		 M-32,53.2c0-1.3,0.4-2.4,1.3-3.2c0.9-0.8,1.9-1.2,3.3-1.2c1.3,0,2.4,0.4,3.3,1.2c0.8,0.8,1.3,1.9,1.3,3.3v1c0,1.3-0.4,2.3-1.2,3.2
		c-0.8,0.8-1.9,1.2-3.3,1.2c-1.4,0-2.5-0.4-3.3-1.2c-0.8-0.8-1.3-1.9-1.3-3.2V53.2z M-29.5,54.3c0,0.7,0.2,1.2,0.6,1.6
		c0.4,0.4,0.9,0.6,1.5,0.6c0.6,0,1.1-0.2,1.5-0.6c0.4-0.4,0.5-1,0.5-1.7v-1.1c0-0.7-0.2-1.2-0.6-1.6c-0.4-0.4-0.9-0.6-1.5-0.6
		c-0.6,0-1.1,0.2-1.5,0.6c-0.4,0.4-0.6,1-0.6,1.7V54.3z"/>
</g>
<g>
	<path fill="#96BF31" d="M-152.9-43.1c-2.3,0.2-4.9,0.3-7.7,0.3c-13.6,0-21-2.6-21-4V-50c0-2.6,1.4-4.9,3.7-6.2l8.9-4.9
		c1.5-0.8,2.4-2.4,2.4-4.1v-4l-0.2-0.3c0,0-2.5-3-3.4-7.1l-0.1-0.4l-0.3-0.2c-0.6-0.4-0.9-1-0.9-1.7v-4c0-0.6,0.2-1.1,0.7-1.5
		l0.3-0.3v-6.2l0-0.1c0,0-0.3-2.8,1.6-5c1.7-1.9,4.5-2.8,8.4-2.8c3.9,0,6.7,1,8.4,2.8c1.9,2.2,1.6,5,1.6,5l0,6.4l0.3,0.3
		c0.4,0.4,0.7,0.9,0.7,1.5v4c0,0.9-0.6,1.6-1.4,1.9l-0.5,0.2l-0.2,0.5c-0.7,2.1-1.6,4-2.8,5.7c-0.3,0.4-0.6,0.8-0.8,1.1l-0.2,0.3
		v4.1c0,0.1,0,0.2,0,0.3c0.6-0.6,1.2-1,2-1.4v-2.3c0.2-0.3,0.5-0.6,0.7-1c1.2-1.8,2.2-3.7,3-5.8c1.4-0.6,2.3-2,2.3-3.6v-4
		c0-1-0.4-1.9-1-2.6v-5.3c0.1-0.5,0.3-3.8-2.1-6.5c-2.1-2.3-5.4-3.5-9.9-3.5s-7.9,1.2-9.9,3.5c-2.4,2.7-2.1,6-2.1,6.5v5.3
		c-0.6,0.7-1,1.7-1,2.6v4c0,1.2,0.6,2.4,1.5,3.1c0.9,3.6,2.8,6.4,3.5,7.2v3.3c0,1-0.5,1.9-1.4,2.3l-8.9,4.9
		c-2.9,1.6-4.7,4.6-4.7,7.9v3.2c0,4.7,15,6,23,6c2.6,0,6-0.1,9.4-0.5C-151.8-41.8-152.4-42.4-152.9-43.1z"/>
	<g>
		<path fill="#96BF31" d="M-154.9-59.6c0-1.3,0.4-2.4,1.2-3.2c0.8-0.8,1.9-1.2,3.3-1.2c1.4,0,2.5,0.4,3.3,1.2
			c0.8,0.8,1.2,1.9,1.2,3.3v1.1c0,1.3-0.4,2.3-1.2,3.2c-0.8,0.8-1.9,1.2-3.3,1.2c-1.3,0-2.4-0.4-3.3-1.2c-0.9-0.8-1.3-1.9-1.3-3.3
			V-59.6z M-152.4-58.5c0,0.7,0.2,1.2,0.6,1.6c0.4,0.4,0.9,0.6,1.5,0.6c0.6,0,1.1-0.2,1.5-0.6s0.6-1,0.6-1.7v-1.1
			c0-0.7-0.2-1.2-0.6-1.7c-0.4-0.4-0.9-0.6-1.5-0.6c-0.6,0-1.1,0.2-1.5,0.6c-0.4,0.4-0.6,1-0.6,1.7V-58.5z M-149.6-43.9l-1.8-1.1
			l10.4-16.7l1.8,1.1L-149.6-43.9z M-144.6-47.6c0-1.3,0.4-2.4,1.3-3.2c0.9-0.8,1.9-1.2,3.3-1.2c1.3,0,2.4,0.4,3.3,1.2
			c0.8,0.8,1.3,1.9,1.3,3.3v1c0,1.3-0.4,2.3-1.2,3.2c-0.8,0.8-1.9,1.2-3.3,1.2c-1.4,0-2.5-0.4-3.3-1.2c-0.8-0.8-1.3-1.9-1.3-3.2
			V-47.6z M-142.1-46.5c0,0.7,0.2,1.2,0.6,1.6c0.4,0.4,0.9,0.6,1.5,0.6c0.6,0,1.1-0.2,1.5-0.6c0.4-0.4,0.5-1,0.5-1.7v-1.1
			c0-0.7-0.2-1.2-0.6-1.6c-0.4-0.4-0.9-0.6-1.5-0.6c-0.6,0-1.1,0.2-1.5,0.6c-0.4,0.4-0.6,1-0.6,1.7V-46.5z"/>
	</g>
</g>
<g>
	<path fill="#96BF31" d="M-119.9-58.3c0-1.3,0.4-2.4,1.2-3.2c0.8-0.8,1.9-1.2,3.3-1.2c1.4,0,2.5,0.4,3.3,1.2
		c0.8,0.8,1.2,1.9,1.2,3.3v1.1c0,1.3-0.4,2.3-1.2,3.2c-0.8,0.8-1.9,1.2-3.3,1.2c-1.3,0-2.4-0.4-3.3-1.2c-0.9-0.8-1.3-1.9-1.3-3.3
		V-58.3z M-117.4-57.2c0,0.7,0.2,1.2,0.6,1.6c0.4,0.4,0.9,0.6,1.5,0.6c0.6,0,1.1-0.2,1.5-0.6c0.4-0.4,0.6-1,0.6-1.7v-1.1
		c0-0.7-0.2-1.2-0.6-1.7c-0.4-0.4-0.9-0.6-1.5-0.6c-0.6,0-1.1,0.2-1.5,0.6c-0.4,0.4-0.6,1-0.6,1.7V-57.2z M-114.6-42.6l-1.8-1.1
		l10.4-16.7l1.8,1.1L-114.6-42.6z M-109.6-46.3c0-1.3,0.4-2.4,1.3-3.2c0.9-0.8,1.9-1.2,3.3-1.2c1.3,0,2.4,0.4,3.3,1.2
		c0.8,0.8,1.3,1.9,1.3,3.3v1c0,1.3-0.4,2.3-1.2,3.2c-0.8,0.8-1.9,1.2-3.3,1.2c-1.4,0-2.5-0.4-3.3-1.2c-0.8-0.8-1.3-1.9-1.3-3.2
		V-46.3z M-107.1-45.2c0,0.7,0.2,1.2,0.6,1.6c0.4,0.4,0.9,0.6,1.5,0.6c0.6,0,1.1-0.2,1.5-0.6c0.4-0.4,0.5-1,0.5-1.7v-1.1
		c0-0.7-0.2-1.2-0.6-1.6c-0.4-0.4-0.9-0.6-1.5-0.6c-0.6,0-1.1,0.2-1.5,0.6c-0.4,0.4-0.6,1-0.6,1.7V-45.2z"/>
</g>
<g>
	<circle fill="#FFFFFF" stroke="#96BF31" stroke-width="1.75" stroke-miterlimit="10" cx="46" cy="47.7" r="11"/>
	<g>
		<path fill="#96BF31" d="M39.4,43.2c0-0.9,0.3-1.6,0.9-2.2c0.6-0.6,1.3-0.8,2.2-0.8c0.9,0,1.7,0.3,2.2,0.8c0.6,0.6,0.8,1.3,0.8,2.2
			V44c0,0.9-0.3,1.6-0.8,2.2c-0.6,0.6-1.3,0.8-2.2,0.8c-0.9,0-1.6-0.3-2.2-0.8c-0.6-0.6-0.9-1.3-0.9-2.2V43.2z M41.1,44
			c0,0.5,0.1,0.8,0.4,1.1c0.3,0.3,0.6,0.4,1,0.4c0.4,0,0.7-0.1,1-0.4c0.3-0.3,0.4-0.7,0.4-1.2v-0.7c0-0.5-0.1-0.8-0.4-1.1
			c-0.3-0.3-0.6-0.4-1-0.4c-0.4,0-0.8,0.1-1,0.4c-0.3,0.3-0.4,0.7-0.4,1.2V44z M43,53.9l-1.3-0.7l7.1-11.4l1.3,0.7L43,53.9z
			 M46.4,51.4c0-0.9,0.3-1.6,0.9-2.2c0.6-0.6,1.3-0.8,2.2-0.8c0.9,0,1.7,0.3,2.2,0.8c0.6,0.6,0.9,1.3,0.9,2.2v0.7
			c0,0.9-0.3,1.6-0.8,2.1c-0.6,0.6-1.3,0.8-2.2,0.8c-0.9,0-1.7-0.3-2.3-0.8c-0.6-0.6-0.9-1.3-0.9-2.2V51.4z M48.2,52.2
			c0,0.5,0.1,0.8,0.4,1.1c0.3,0.3,0.6,0.4,1,0.4c0.4,0,0.8-0.1,1-0.4c0.2-0.3,0.4-0.7,0.4-1.2v-0.8c0-0.5-0.1-0.8-0.4-1.1
			c-0.3-0.3-0.6-0.4-1-0.4c-0.4,0-0.8,0.1-1,0.4c-0.3,0.3-0.4,0.7-0.4,1.2V52.2z"/>
	</g>
</g>
<path fill="#FFFFFF" d="M-227,280.6c1.5-0.1,2.9-0.2,4.4-0.2c133.6,0,267.3,0,400.9,0c1.5,0,2.9,0.1,4.4,0.2c0,5.6,0,11.2,0,16.8
	c-136.5,0-273.1,0-409.6,0C-227,291.8-227,286.2-227,280.6z"/>
<g>
	<path fill="#96BF31" d="M-127.6,44.8l-8.2-4.1c-0.8-0.4-1.3-1.2-1.3-2v-2.9c0.2-0.2,0.4-0.5,0.6-0.8c1.1-1.5,1.9-3.2,2.5-5
		c1.2-0.6,2-1.8,2-3.1v-3.4c0-0.8-0.3-1.6-0.9-2.3v-4.6c0-0.2,0-0.7,0-1.4c-0.3,0.4-0.6,0.8-1,1.1c-0.2,0.6-0.4,1.2-0.7,1.7l0,3.9
		l0.3,0.3c0.4,0.3,0.6,0.8,0.6,1.3v3.4c0,0.7-0.5,1.4-1.2,1.6l-0.4,0.1l-0.1,0.4c-0.6,1.8-1.4,3.4-2.4,4.9c-0.3,0.4-0.5,0.7-0.7,0.9
		l-0.2,0.2v3.5c0,1.5,0.8,2.9,2.2,3.6l8.2,4.1c2.1,1,3.3,3.1,3.3,5.4v2.6c0,1.2-6.4,3.4-18,3.4s-18-2.3-18-3.4v-2.8
		c0-2.2,1.2-4.2,3.1-5.3l7.6-4.2c1.3-0.7,2.1-2,2.1-3.5v-3.4l-0.2-0.2c0,0-2.1-2.6-2.9-6.1l-0.1-0.3l-0.3-0.2
		c-0.5-0.3-0.8-0.9-0.8-1.4v-3.4c0-0.5,0.2-0.9,0.6-1.3l0.3-0.3v-3.7c-0.5-0.7-0.9-1.5-1.2-2.3c0,0,0-0.1-0.1-0.1
		c-0.1,0-0.3,0.1-0.4,0.1c0,0.3,0,0.6,0,0.7v4.6c-0.5,0.6-0.9,1.4-0.9,2.3v3.4c0,1,0.5,2,1.3,2.7c0.8,3.1,2.4,5.5,3,6.2v2.8
		c0,0.8-0.5,1.6-1.2,2l-7.6,4.2c-2.5,1.4-4,4-4,6.8v2.8c0,4.1,12.9,5.1,19.7,5.1c6.8,0,19.7-1.1,19.7-5.1v-2.6
		C-123.3,48.8-125,46.1-127.6,44.8z"/>
	<g>
		<path fill="#96BF31" stroke="#96BF31" stroke-width="0.5" stroke-miterlimit="10" d="M-128.5,7l-9.4-4.2c-0.2-0.1-0.5,0-0.6,0.3
			c-0.1,0.3,0,0.6,0.3,0.7l8.3,3.7l-5.8,2.6l-7.2-3.9c-0.2-0.1-0.5,0-0.6,0.3c-0.1,0.3,0,0.6,0.2,0.7l6.4,3.4l-6.3,2.8l-13.2-5.9
			l13.2-5.9l3.2,1.5c0.2,0.1,0.5,0,0.6-0.3c0.1-0.3,0-0.6-0.3-0.7l-3.4-1.5c-0.1,0-0.2,0-0.3,0L-157.6,7c-0.2,0.1-0.3,0.3-0.3,0.5
			v2.4c0,0.2,0.1,0.4,0.3,0.5l4.5,2v1.8c0,0.3,0.2,0.5,0.4,0.5c0.2,0,0.4-0.2,0.4-0.5v-1.4l9,4.1c0.1,0,0.1,0,0.2,0s0.1,0,0.2,0
			l6.8-3.1v5c-2.1,1.3-4.5,2-7,2c-3.3,0-6.6-1.3-9.2-3.7v-0.8c0-0.3-0.2-0.5-0.4-0.5c-0.2,0-0.4,0.2-0.4,0.5v1.1
			c0,0.2,0.1,0.3,0.2,0.4c2.8,2.7,6.3,4.1,9.9,4.1c2.4,0,4.8-0.7,7-1.9v2.1c-0.7,0.2-1.2,1-1.2,1.9c0,1.1,0.8,2,1.7,2
			c0.9,0,1.7-0.9,1.7-2c0-0.9-0.5-1.7-1.2-1.9v-2.7c0.7-0.5,1.4-1,2.1-1.7c0.1-0.1,0.2-0.2,0.2-0.4v-5l4.5-2
			c0.2-0.1,0.3-0.3,0.3-0.5V7.5C-128.2,7.3-128.3,7.1-128.5,7z M-134.9,24.1c0,0.5-0.4,0.9-0.8,0.9c-0.4,0-0.8-0.4-0.8-0.9
			c0-0.5,0.4-0.9,0.8-0.9C-135.2,23.1-134.9,23.5-134.9,24.1z M-157,8.3l13.5,6.1v1.3L-157,9.5V8.3z M-142.6,15.7v-1.3l6.5-2.9v1.3
			L-142.6,15.7z M-133.9,17.2c-0.4,0.4-0.9,0.8-1.3,1.1v-4.8l1.3-0.6V17.2z M-135.2,12.3V11l6.1-2.8v1.3L-135.2,12.3z"/>
	</g>
</g>
<g>
	<path fill="#96BF31" stroke="#96BF31" stroke-width="0.25" stroke-miterlimit="10" d="M-123.9,38.6c0,0-1.7-2.1-2.4-4.9l-0.1-0.3
		l-0.2-0.2c-0.4-0.3-0.6-0.7-0.6-1.2v-2.8c0-0.4,0.2-0.8,0.5-1l0.2-0.2v-3c-0.4-0.6-0.8-1.2-1-1.9c0,0,0-0.1-0.1-0.1
		c-0.1,0-0.2,0.1-0.4,0.1c0,0.3,0,0.5,0,0.6v3.7c-0.4,0.5-0.7,1.2-0.7,1.8v2.8c0,0.8,0.4,1.6,1,2.2c0.6,2.5,2,4.4,2.4,5v2.3
		c0,0.7-0.4,1.3-1,1.6l-3.1,1.7c0.3,0.3,0.6,0.7,0.9,1.1l2.9-1.6c1-0.6,1.7-1.7,1.7-2.8v-2.8L-123.9,38.6z"/>
	<path fill="#96BF31" stroke="#96BF31" stroke-width="0.25" stroke-miterlimit="10" d="M-107,46.6l-6.6-3.3c-0.6-0.3-1-0.9-1-1.6
		v-2.4c0.2-0.2,0.3-0.4,0.5-0.7c0.9-1.2,1.6-2.6,2.1-4c1-0.4,1.6-1.4,1.6-2.5v-2.8c0-0.7-0.3-1.3-0.7-1.8v-3.7c0-0.1,0-0.6,0-1.1
		c-0.2,0.3-0.5,0.6-0.8,0.9c-0.1,0.5-0.3,0.9-0.6,1.4l0,3.1l0.2,0.2c0.3,0.3,0.5,0.6,0.5,1v2.8c0,0.6-0.4,1.1-1,1.3l-0.3,0.1
		l-0.1,0.3c-0.5,1.4-1.1,2.8-2,4c-0.2,0.3-0.4,0.6-0.6,0.8l-0.2,0.2v2.9c0,1.2,0.7,2.3,1.8,2.9l6.6,3.3c1.7,0.8,2.7,2.5,2.7,4.4v2.1
		c0,0.9-5.2,2.8-14.6,2.8c-3.8,0-6.9-0.3-9.2-0.7c-0.2,0.4-0.5,0.9-0.8,1.2c3.3,0.6,7.3,0.9,10.1,0.9c5.5,0,16-0.9,16-4.2v-2.1
		C-103.5,49.8-104.9,47.7-107,46.6z"/>
	<g>
		<path fill="#96BF31" stroke="#96BF31" stroke-width="0.5" stroke-miterlimit="10" d="M-107.7,15.9l-7.6-3.4
			c-0.2-0.1-0.4,0-0.5,0.2c-0.1,0.2,0,0.5,0.2,0.5l6.7,3l-4.7,2.1l-5.9-3.1c-0.2-0.1-0.4,0-0.5,0.2c-0.1,0.2,0,0.5,0.2,0.6l5.2,2.8
			l-5.1,2.3l-10.7-4.8l10.7-4.8l2.6,1.2c0.2,0.1,0.4,0,0.5-0.2c0.1-0.2,0-0.5-0.2-0.5l-2.8-1.2c-0.1,0-0.2,0-0.3,0l-11.7,5.3
			c-0.1,0.1-0.2,0.2-0.2,0.4v1.9c0,0.2,0.1,0.3,0.2,0.4l3.7,1.6v1.5c0,0.2,0.2,0.4,0.4,0.4c0.2,0,0.4-0.2,0.4-0.4v-1.1l7.3,3.3
			c0,0,0.1,0,0.1,0c0,0,0.1,0,0.1,0l5.5-2.5v4.1c-1.7,1.1-3.7,1.7-5.6,1.7c-2.7,0-5.3-1.1-7.5-3v-0.7c0-0.2-0.2-0.4-0.4-0.4
			c-0.2,0-0.4,0.2-0.4,0.4v0.9c0,0.1,0,0.3,0.1,0.3c2.3,2.2,5.1,3.3,8,3.3c2,0,3.9-0.5,5.6-1.6v1.7c-0.6,0.2-1,0.8-1,1.6
			c0,0.9,0.6,1.6,1.4,1.6c0.7,0,1.4-0.7,1.4-1.6c0-0.7-0.4-1.4-1-1.6V26c0.6-0.4,1.1-0.8,1.7-1.3c0.1-0.1,0.1-0.2,0.1-0.3v-4.1
			l3.6-1.6c0.1-0.1,0.2-0.2,0.2-0.4v-1.9C-107.5,16.2-107.6,16-107.7,15.9z M-112.9,29.8c0,0.4-0.3,0.8-0.6,0.8
			c-0.4,0-0.6-0.3-0.6-0.8c0-0.4,0.3-0.8,0.6-0.8C-113.2,29-112.9,29.3-112.9,29.8z M-130.9,17l11,5v1l-11-5V17z M-119.2,22.9v-1
			l5.3-2.4v1L-119.2,22.9z M-112.1,24.2c-0.3,0.3-0.7,0.6-1.1,0.9v-3.9l1.1-0.5V24.2z M-113.2,20.2v-1l5-2.2v1L-113.2,20.2z"/>
	</g>
</g>
<g>
	<g>
		<g>
			<path fill="#96BF31" stroke="#FFFFFF" stroke-width="0.5" stroke-miterlimit="10" d="M-256.3,26.4l-6.7-20.6
				c-0.2-0.6-0.8-0.9-1.4-0.7L-313.4,21c-0.6,0.2-0.9,0.8-0.7,1.4l3.2,9.7c0,0,0,0,0,0.1v21.6c0,0.6,0.5,1.1,1.1,1.1h51.6
				c0.6,0,1.1-0.5,1.1-1.1V32.2c0-0.6-0.5-1.1-1.1-1.1h-8.9l10.2-3.3C-256.4,27.6-256.1,27-256.3,26.4z M-259.4,33.4v19.4h-49.3
				V33.4h6.3V46c0,0.6,0.5,1.1,1.1,1.1s1.1-0.5,1.1-1.1V33.4h25.9H-259.4z M-274.5,31.1H-309l-2.7-8.3l6-1.9l2.3,6.9
				c0.2,0.5,0.6,0.8,1.1,0.8c0.1,0,0.2,0,0.4-0.1c0.6-0.2,0.9-0.8,0.7-1.4l-2.3-6.9l38.8-12.6l6,18.4L-274.5,31.1z"/>
			<path fill="#96BF31" stroke="#FFFFFF" stroke-width="0.5" stroke-miterlimit="10" d="M-266.5,12.5c-0.2-0.6-0.8-0.9-1.4-0.7
				l-29.5,9.6c-0.6,0.2-0.9,0.8-0.7,1.4c0.2,0.5,0.6,0.8,1.1,0.8c0.1,0,0.2,0,0.4-0.1l29.5-9.6C-266.6,13.8-266.3,13.1-266.5,12.5z"
				/>
			<path fill="#96BF31" stroke="#FFFFFF" stroke-width="0.5" stroke-miterlimit="10" d="M-271.4,19.9l5.6-1.8
				c0.6-0.2,0.9-0.8,0.7-1.4c-0.2-0.6-0.8-0.9-1.4-0.7l-5.6,1.8c-0.6,0.2-0.9,0.8-0.7,1.4c0.2,0.5,0.6,0.8,1.1,0.8
				C-271.7,19.9-271.6,19.9-271.4,19.9z"/>
			<path fill="#96BF31" stroke="#FFFFFF" stroke-width="0.5" stroke-miterlimit="10" d="M-266.7,25.1c0.2,0.5,0.6,0.8,1.1,0.8
				c0.1,0,0.2,0,0.4-0.1l1.8-0.6c0.6-0.2,0.9-0.8,0.7-1.4c-0.2-0.6-0.8-0.9-1.4-0.7l-1.8,0.6C-266.6,23.9-266.9,24.5-266.7,25.1z"/>
			<path fill="#96BF31" stroke="#FFFFFF" stroke-width="0.5" stroke-miterlimit="10" d="M-269.9,25l-1.8,0.6
				c-0.6,0.2-0.9,0.8-0.7,1.4c0.2,0.5,0.6,0.8,1.1,0.8c0.1,0,0.2,0,0.4-0.1l1.8-0.6c0.6-0.2,0.9-0.8,0.7-1.4
				C-268.7,25.1-269.3,24.8-269.9,25z"/>
			<path fill="#96BF31" stroke="#FFFFFF" stroke-width="0.5" stroke-miterlimit="10" d="M-285.8,22.2l-10.3,3.4
				c-0.6,0.2-0.9,0.8-0.7,1.4c0.2,0.5,0.6,0.8,1.1,0.8c0.1,0,0.2,0,0.4-0.1l10.3-3.4c0.6-0.2,0.9-0.8,0.7-1.4
				C-284.5,22.3-285.2,22-285.8,22.2z"/>
			<path fill="#96BF31" stroke="#FFFFFF" stroke-width="0.5" stroke-miterlimit="10" d="M-301.3,48.6c-0.6,0-1.1,0.5-1.1,1.1v0.4
				c0,0.6,0.5,1.1,1.1,1.1s1.1-0.5,1.1-1.1v-0.4C-300.2,49.1-300.7,48.6-301.3,48.6z"/>
			<path fill="#96BF31" stroke="#FFFFFF" stroke-width="0.5" stroke-miterlimit="10" d="M-295.9,37.6c0,0.6,0.5,1.1,1.1,1.1h31.1
				c0.6,0,1.1-0.5,1.1-1.1s-0.5-1.1-1.1-1.1h-31.1C-295.4,36.4-295.9,36.9-295.9,37.6z"/>
			<path fill="#96BF31" stroke="#FFFFFF" stroke-width="0.5" stroke-miterlimit="10" d="M-263.7,40.7h-5.9c-0.6,0-1.1,0.5-1.1,1.1
				c0,0.6,0.5,1.1,1.1,1.1h5.9c0.6,0,1.1-0.5,1.1-1.1S-263.1,40.7-263.7,40.7z"/>
			<path fill="#96BF31" stroke="#FFFFFF" stroke-width="0.5" stroke-miterlimit="10" d="M-263.7,48.3h-1.9c-0.6,0-1.1,0.5-1.1,1.1
				s0.5,1.1,1.1,1.1h1.9c0.6,0,1.1-0.5,1.1-1.1S-263.1,48.3-263.7,48.3z"/>
			<path fill="#96BF31" stroke="#FFFFFF" stroke-width="0.5" stroke-miterlimit="10" d="M-269.7,48.3h-1.9c-0.6,0-1.1,0.5-1.1,1.1
				s0.5,1.1,1.1,1.1h1.9c0.6,0,1.1-0.5,1.1-1.1S-269.1,48.3-269.7,48.3z"/>
			<path fill="#96BF31" stroke="#FFFFFF" stroke-width="0.5" stroke-miterlimit="10" d="M-283.9,40.7h-10.9c-0.6,0-1.1,0.5-1.1,1.1
				c0,0.6,0.5,1.1,1.1,1.1h10.9c0.6,0,1.1-0.5,1.1-1.1S-283.3,40.7-283.9,40.7z"/>
		</g>
	</g>
</g>
<g>
	<g>
		<g>
			<path fill="#96BF31" stroke="#FFFFFF" stroke-width="0.5" stroke-miterlimit="10" d="M-186.6,26.4l-6.7-20.6
				c-0.2-0.6-0.8-0.9-1.4-0.7L-243.8,21c-0.6,0.2-0.9,0.8-0.7,1.4l3.2,9.7c0,0,0,0,0,0.1v21.6c0,0.6,0.5,1.1,1.1,1.1h51.6
				c0.6,0,1.1-0.5,1.1-1.1V32.2c0-0.6-0.5-1.1-1.1-1.1h-8.9l10.2-3.3C-186.7,27.6-186.4,27-186.6,26.4z M-189.8,33.4v19.4h-49.3
				V33.4h6.3V46c0,0.6,0.5,1.1,1.1,1.1s1.1-0.5,1.1-1.1V33.4h25.9H-189.8z M-204.8,31.1h-34.5l-2.7-8.3l6-1.9l2.3,6.9
				c0.2,0.5,0.6,0.8,1.1,0.8c0.1,0,0.2,0,0.4-0.1c0.6-0.2,0.9-0.8,0.7-1.4l-2.3-6.9l38.8-12.6l6,18.4L-204.8,31.1z"/>
			<path fill="#96BF31" stroke="#FFFFFF" stroke-width="0.5" stroke-miterlimit="10" d="M-196.8,12.5c-0.2-0.6-0.8-0.9-1.4-0.7
				l-29.5,9.6c-0.6,0.2-0.9,0.8-0.7,1.4c0.2,0.5,0.6,0.8,1.1,0.8c0.1,0,0.2,0,0.4-0.1l29.5-9.6C-197,13.8-196.6,13.1-196.8,12.5z"/>
			<path fill="#96BF31" stroke="#FFFFFF" stroke-width="0.5" stroke-miterlimit="10" d="M-201.8,19.9l5.6-1.8
				c0.6-0.2,0.9-0.8,0.7-1.4c-0.2-0.6-0.8-0.9-1.4-0.7l-5.6,1.8c-0.6,0.2-0.9,0.8-0.7,1.4c0.2,0.5,0.6,0.8,1.1,0.8
				C-202,19.9-201.9,19.9-201.8,19.9z"/>
			<path fill="#96BF31" stroke="#FFFFFF" stroke-width="0.5" stroke-miterlimit="10" d="M-197.1,25.1c0.2,0.5,0.6,0.8,1.1,0.8
				c0.1,0,0.2,0,0.4-0.1l1.8-0.6c0.6-0.2,0.9-0.8,0.7-1.4c-0.2-0.6-0.8-0.9-1.4-0.7l-1.8,0.6C-196.9,23.9-197.3,24.5-197.1,25.1z"/>
			<path fill="#96BF31" stroke="#FFFFFF" stroke-width="0.5" stroke-miterlimit="10" d="M-200.3,25l-1.8,0.6
				c-0.6,0.2-0.9,0.8-0.7,1.4c0.2,0.5,0.6,0.8,1.1,0.8c0.1,0,0.2,0,0.4-0.1l1.8-0.6c0.6-0.2,0.9-0.8,0.7-1.4
				C-199.1,25.1-199.7,24.8-200.3,25z"/>
			<path fill="#96BF31" stroke="#FFFFFF" stroke-width="0.5" stroke-miterlimit="10" d="M-216.1,22.2l-10.3,3.4
				c-0.6,0.2-0.9,0.8-0.7,1.4c0.2,0.5,0.6,0.8,1.1,0.8c0.1,0,0.2,0,0.4-0.1l10.3-3.4c0.6-0.2,0.9-0.8,0.7-1.4
				C-214.9,22.3-215.5,22-216.1,22.2z"/>
			<path fill="#96BF31" stroke="#FFFFFF" stroke-width="0.5" stroke-miterlimit="10" d="M-231.7,48.6c-0.6,0-1.1,0.5-1.1,1.1v0.4
				c0,0.6,0.5,1.1,1.1,1.1s1.1-0.5,1.1-1.1v-0.4C-230.5,49.1-231.1,48.6-231.7,48.6z"/>
			<path fill="#96BF31" stroke="#FFFFFF" stroke-width="0.5" stroke-miterlimit="10" d="M-226.3,37.6c0,0.6,0.5,1.1,1.1,1.1h31.1
				c0.6,0,1.1-0.5,1.1-1.1s-0.5-1.1-1.1-1.1h-31.1C-225.8,36.4-226.3,36.9-226.3,37.6z"/>
			<path fill="#96BF31" stroke="#FFFFFF" stroke-width="0.5" stroke-miterlimit="10" d="M-194.1,40.7h-5.9c-0.6,0-1.1,0.5-1.1,1.1
				c0,0.6,0.5,1.1,1.1,1.1h5.9c0.6,0,1.1-0.5,1.1-1.1S-193.4,40.7-194.1,40.7z"/>
			<path fill="#96BF31" stroke="#FFFFFF" stroke-width="0.5" stroke-miterlimit="10" d="M-194.1,48.3h-1.9c-0.6,0-1.1,0.5-1.1,1.1
				s0.5,1.1,1.1,1.1h1.9c0.6,0,1.1-0.5,1.1-1.1S-193.4,48.3-194.1,48.3z"/>
			<path fill="#96BF31" stroke="#FFFFFF" stroke-width="0.5" stroke-miterlimit="10" d="M-200.1,48.3h-1.9c-0.6,0-1.1,0.5-1.1,1.1
				s0.5,1.1,1.1,1.1h1.9c0.6,0,1.1-0.5,1.1-1.1S-199.5,48.3-200.1,48.3z"/>
			<path fill="#96BF31" stroke="#FFFFFF" stroke-width="0.5" stroke-miterlimit="10" d="M-214.3,40.7h-10.9c-0.6,0-1.1,0.5-1.1,1.1
				c0,0.6,0.5,1.1,1.1,1.1h10.9c0.6,0,1.1-0.5,1.1-1.1S-213.6,40.7-214.3,40.7z"/>
		</g>
	</g>
</g>
<g>
	<circle fill="#FFFFFF" stroke="#96BF31" stroke-width="1.5" stroke-miterlimit="10" cx="-213.3" cy="33.4" r="15.2"/>
	<g>
		<path fill="#96BF31" d="M-222.4,27.1c0-1.2,0.4-2.2,1.2-3c0.8-0.8,1.8-1.2,3.1-1.2c1.3,0,2.3,0.4,3.1,1.2c0.8,0.8,1.2,1.8,1.2,3.1
			v1c0,1.2-0.4,2.2-1.2,3c-0.8,0.8-1.8,1.2-3.1,1.2c-1.2,0-2.3-0.4-3.1-1.1c-0.8-0.8-1.2-1.8-1.2-3.1V27.1z M-220.1,28.2
			c0,0.6,0.2,1.2,0.5,1.5c0.4,0.4,0.8,0.6,1.4,0.6c0.6,0,1-0.2,1.4-0.6c0.4-0.4,0.5-0.9,0.5-1.6v-1c0-0.6-0.2-1.2-0.5-1.6
			c-0.4-0.4-0.8-0.6-1.4-0.6c-0.6,0-1,0.2-1.4,0.6c-0.3,0.4-0.5,0.9-0.5,1.6V28.2z M-217.4,41.9l-1.7-1l9.9-15.8l1.7,1L-217.4,41.9z
			 M-212.7,38.5c0-1.2,0.4-2.2,1.2-3c0.8-0.8,1.8-1.2,3.1-1.2c1.3,0,2.3,0.4,3.1,1.2c0.8,0.8,1.2,1.8,1.2,3.1v1c0,1.2-0.4,2.2-1.2,3
			c-0.8,0.8-1.8,1.2-3.1,1.2c-1.3,0-2.3-0.4-3.1-1.2c-0.8-0.8-1.2-1.8-1.2-3.1V38.5z M-210.4,39.5c0,0.6,0.2,1.1,0.5,1.5
			c0.4,0.4,0.8,0.6,1.4,0.6c0.6,0,1.1-0.2,1.4-0.6c0.3-0.4,0.5-0.9,0.5-1.6v-1c0-0.6-0.2-1.2-0.5-1.6c-0.4-0.4-0.8-0.6-1.4-0.6
			c-0.6,0-1,0.2-1.4,0.6c-0.4,0.4-0.5,0.9-0.5,1.6V39.5z"/>
	</g>
</g>
<g>
	<g>
		<g>
			<path fill="#96BF31" d="M-186.6,96.4l-6.7-20.6c-0.2-0.6-0.8-0.9-1.4-0.7L-243.8,91c-0.6,0.2-0.9,0.8-0.7,1.4l3.2,9.7
				c0,0,0,0,0,0.1v21.6c0,0.6,0.5,1.1,1.1,1.1h51.6c0.6,0,1.1-0.5,1.1-1.1v-21.6c0-0.6-0.5-1.1-1.1-1.1h-8.9l10.2-3.3
				C-186.7,97.6-186.4,97-186.6,96.4z M-189.8,103.4v19.4h-49.3v-19.4h6.3V116c0,0.6,0.5,1.1,1.1,1.1s1.1-0.5,1.1-1.1v-12.6h25.9
				H-189.8z M-204.8,101.1h-34.5l-2.7-8.3l6-1.9l2.3,6.9c0.2,0.5,0.6,0.8,1.1,0.8c0.1,0,0.2,0,0.4-0.1c0.6-0.2,0.9-0.8,0.7-1.4
				l-2.3-6.9l38.8-12.6l6,18.4L-204.8,101.1z"/>
			<path fill="#96BF31" d="M-196.8,82.5c-0.2-0.6-0.8-0.9-1.4-0.7l-29.5,9.6c-0.6,0.2-0.9,0.8-0.7,1.4c0.2,0.5,0.6,0.8,1.1,0.8
				c0.1,0,0.2,0,0.4-0.1l29.5-9.6C-197,83.8-196.6,83.1-196.8,82.5z"/>
			<path fill="#96BF31" d="M-201.8,89.9l5.6-1.8c0.6-0.2,0.9-0.8,0.7-1.4c-0.2-0.6-0.8-0.9-1.4-0.7l-5.6,1.8
				c-0.6,0.2-0.9,0.8-0.7,1.4c0.2,0.5,0.6,0.8,1.1,0.8C-202,89.9-201.9,89.9-201.8,89.9z"/>
			<path fill="#96BF31" d="M-197.1,95.1c0.2,0.5,0.6,0.8,1.1,0.8c0.1,0,0.2,0,0.4-0.1l1.8-0.6c0.6-0.2,0.9-0.8,0.7-1.4
				c-0.2-0.6-0.8-0.9-1.4-0.7l-1.8,0.6C-196.9,93.9-197.3,94.5-197.1,95.1z"/>
			<path fill="#96BF31" d="M-200.3,95l-1.8,0.6c-0.6,0.2-0.9,0.8-0.7,1.4c0.2,0.5,0.6,0.8,1.1,0.8c0.1,0,0.2,0,0.4-0.1l1.8-0.6
				c0.6-0.2,0.9-0.8,0.7-1.4C-199.1,95.1-199.7,94.8-200.3,95z"/>
			<path fill="#96BF31" d="M-216.1,92.2l-10.3,3.4c-0.6,0.2-0.9,0.8-0.7,1.4c0.2,0.5,0.6,0.8,1.1,0.8c0.1,0,0.2,0,0.4-0.1l10.3-3.4
				c0.6-0.2,0.9-0.8,0.7-1.4C-214.9,92.3-215.5,92-216.1,92.2z"/>
			<path fill="#96BF31" d="M-231.7,118.6c-0.6,0-1.1,0.5-1.1,1.1v0.4c0,0.6,0.5,1.1,1.1,1.1s1.1-0.5,1.1-1.1v-0.4
				C-230.5,119.1-231.1,118.6-231.7,118.6z"/>
			<path fill="#96BF31" d="M-226.3,107.6c0,0.6,0.5,1.1,1.1,1.1h31.1c0.6,0,1.1-0.5,1.1-1.1c0-0.6-0.5-1.1-1.1-1.1h-31.1
				C-225.8,106.4-226.3,106.9-226.3,107.6z"/>
			<path fill="#96BF31" d="M-194.1,110.7h-5.9c-0.6,0-1.1,0.5-1.1,1.1c0,0.6,0.5,1.1,1.1,1.1h5.9c0.6,0,1.1-0.5,1.1-1.1
				C-192.9,111.3-193.4,110.7-194.1,110.7z"/>
			<path fill="#96BF31" d="M-194.1,118.3h-1.9c-0.6,0-1.1,0.5-1.1,1.1s0.5,1.1,1.1,1.1h1.9c0.6,0,1.1-0.5,1.1-1.1
				S-193.4,118.3-194.1,118.3z"/>
			<path fill="#96BF31" d="M-200.1,118.3h-1.9c-0.6,0-1.1,0.5-1.1,1.1s0.5,1.1,1.1,1.1h1.9c0.6,0,1.1-0.5,1.1-1.1
				S-199.5,118.3-200.1,118.3z"/>
			<path fill="#96BF31" d="M-214.3,110.7h-10.9c-0.6,0-1.1,0.5-1.1,1.1c0,0.6,0.5,1.1,1.1,1.1h10.9c0.6,0,1.1-0.5,1.1-1.1
				C-213.1,111.3-213.6,110.7-214.3,110.7z"/>
		</g>
	</g>
</g>
<g>
	<circle fill="#FFFFFF" stroke="#96BF31" stroke-width="2" stroke-miterlimit="10" cx="-212.7" cy="103" r="12"/>
	<g>
		<path fill="#96BF31" d="M-219.9,98.1c0-1,0.3-1.8,0.9-2.4c0.6-0.6,1.4-0.9,2.4-0.9c1,0,1.8,0.3,2.5,0.9c0.6,0.6,0.9,1.4,0.9,2.4
			v0.8c0,1-0.3,1.7-0.9,2.4c-0.6,0.6-1.4,0.9-2.4,0.9c-1,0-1.8-0.3-2.4-0.9c-0.6-0.6-1-1.4-1-2.4V98.1z M-218,98.9
			c0,0.5,0.1,0.9,0.4,1.2c0.3,0.3,0.7,0.5,1.1,0.5c0.5,0,0.8-0.2,1.1-0.5s0.4-0.7,0.4-1.3v-0.8c0-0.5-0.1-0.9-0.4-1.2
			c-0.3-0.3-0.7-0.5-1.1-0.5c-0.5,0-0.8,0.2-1.1,0.5c-0.3,0.3-0.4,0.7-0.4,1.3V98.9z M-216,109.8l-1.4-0.8l7.8-12.5l1.4,0.8
			L-216,109.8z M-212.2,107.1c0-1,0.3-1.8,1-2.4c0.6-0.6,1.4-0.9,2.4-0.9c1,0,1.8,0.3,2.4,0.9c0.6,0.6,0.9,1.4,0.9,2.5v0.8
			c0,1-0.3,1.7-0.9,2.4c-0.6,0.6-1.4,0.9-2.5,0.9c-1,0-1.8-0.3-2.5-0.9c-0.6-0.6-0.9-1.4-0.9-2.4V107.1z M-210.4,107.9
			c0,0.5,0.1,0.9,0.4,1.2c0.3,0.3,0.7,0.5,1.1,0.5c0.5,0,0.8-0.2,1.1-0.5c0.3-0.3,0.4-0.7,0.4-1.3V107c0-0.5-0.1-0.9-0.4-1.2
			c-0.3-0.3-0.7-0.5-1.1-0.5c-0.5,0-0.8,0.2-1.1,0.5c-0.3,0.3-0.4,0.7-0.4,1.3V107.9z"/>
	</g>
</g>
</svg>
