<svg width="24" height="25" viewBox="0 0 24 25" fill="none" xmlns="http://www.w3.org/2000/svg">
<path d="M0.607764 13.2247H0.79976V20.0246C0.79976 20.4664 1.15793 20.8246 1.59975 20.8246H7.19965V21.6245C6.75783 21.6245 6.39967 21.9827 6.39967 22.4245V23.2245C6.39967 23.6663 6.75783 24.0245 7.19965 24.0245H16.7995C17.2413 24.0245 17.5995 23.6663 17.5995 23.2245V22.4245C17.5995 21.9827 17.2413 21.6245 16.7995 21.6245V20.8246H22.3994C22.8412 20.8246 23.1994 20.4664 23.1994 20.0246V13.2247H23.3914C23.6545 13.2246 23.8879 13.0554 23.9697 12.8053C24.0516 12.5552 23.9635 12.2808 23.7514 12.1251L20.7994 9.98073V6.70479C20.9617 6.5833 21.0516 6.38811 21.0385 6.18586C21.0254 5.9836 20.9111 5.80161 20.7346 5.70201L17.9995 4.15683V2.02487C17.9986 1.74034 17.8462 1.47784 17.5995 1.33608V0.424896C17.5995 0.203985 17.4204 0.0249023 17.1995 0.0249023C16.9786 0.0249023 16.7995 0.203985 16.7995 0.424896V1.22488H16.3995V0.424896C16.3995 0.203985 16.2204 0.0249023 15.9995 0.0249023C15.7786 0.0249023 15.5995 0.203985 15.5995 0.424896V1.33608C15.3528 1.47784 15.2004 1.74034 15.1995 2.02487V2.57406L12.2952 0.934087C12.1119 0.830414 11.8877 0.830414 11.7044 0.934087L8.79963 2.57406V2.02487C8.79877 1.74034 8.64633 1.47784 8.39963 1.33608V0.424896C8.39963 0.203985 8.22055 0.0249023 7.99964 0.0249023C7.77873 0.0249023 7.59965 0.203985 7.59965 0.424896V1.22488H7.19965V0.424896C7.19965 0.203985 7.02057 0.0249023 6.79966 0.0249023C6.57875 0.0249023 6.39967 0.203985 6.39967 0.424896V1.33608C6.15297 1.47784 6.00053 1.74034 5.99967 2.02487V4.15683L3.26572 5.70241C3.08922 5.80183 2.97481 5.9836 2.9615 6.18574C2.94819 6.38788 3.03778 6.58308 3.19972 6.70479V9.97673L0.24377 12.1287C0.0341846 12.2857 -0.0514765 12.5592 0.0310697 12.8078C0.113616 13.0563 0.345869 13.2242 0.607764 13.2247ZM13.9995 16.8246V18.4246H12.3996V14.8647C13.3301 15.056 13.9983 15.8746 13.9995 16.8246ZM11.5996 18.4246H9.99961V16.8246C10.0008 15.8746 10.669 15.056 11.5996 14.8647V18.4246ZM14.3995 19.2246H15.1995V20.0246H8.79963V19.2246H14.3995ZM16.7995 23.2245H7.19965V22.4245H16.7995V23.2245ZM15.9995 21.6245H7.99964V20.8246H15.9995V21.6245ZM22.3994 18.4246H17.5995C17.3786 18.4246 17.1995 18.6037 17.1995 18.8246C17.1995 19.0455 17.3786 19.2246 17.5995 19.2246H22.3994V20.0246H15.9995V19.2246C15.9995 18.7828 15.6413 18.4246 15.1995 18.4246H14.7995V16.8246C14.7995 15.2782 13.5459 14.0247 11.9996 14.0247C10.4532 14.0247 9.19962 15.2782 9.19962 16.8246V18.4246H8.79963C8.35781 18.4246 7.99964 18.7828 7.99964 19.2246V20.0246H1.59975V19.2246H6.39967C6.62058 19.2246 6.79966 19.0455 6.79966 18.8246C6.79966 18.6037 6.62058 18.4246 6.39967 18.4246H1.59975V13.2247H22.3994V18.4246ZM3.99971 6.82479H19.9994V12.4247H3.99971V6.82479ZM22.8018 12.4247H20.7994V10.9699L22.8018 12.4247ZM15.9995 2.02487H17.1995V3.70484L15.9995 3.02485V2.02487ZM6.79966 2.02487H7.99964V3.02485L6.79966 3.70484V2.02487ZM11.9996 1.68447L19.6794 6.0248H4.3197L11.9996 1.68447ZM3.19972 10.9667V12.4247H1.19655L3.19972 10.9667Z" fill="#00C092"/>
<path d="M3.99972 14.0247H3.19974C2.75792 14.0247 2.39975 14.3828 2.39975 14.8246V17.2246C2.39975 17.6664 2.75792 18.0246 3.19974 18.0246H3.99972C4.44154 18.0246 4.79971 17.6664 4.79971 17.2246V14.8246C4.79971 14.3828 4.44154 14.0247 3.99972 14.0247ZM3.19974 17.2246V14.8246H3.99972V17.2246H3.19974Z" fill="#00C092"/>
<path d="M7.19964 14.0247H6.39966C5.95784 14.0247 5.59967 14.3828 5.59967 14.8246V17.2246C5.59967 17.6664 5.95784 18.0246 6.39966 18.0246H7.19964C7.64146 18.0246 7.99962 17.6664 7.99962 17.2246V14.8246C7.99962 14.3828 7.64146 14.0247 7.19964 14.0247ZM6.39966 17.2246V14.8246H7.19964V17.2246H6.39966Z" fill="#00C092"/>
<path d="M17.5995 14.0247H16.7995C16.3576 14.0247 15.9995 14.3828 15.9995 14.8246V17.2246C15.9995 17.6664 16.3576 18.0246 16.7995 18.0246H17.5995C18.0413 18.0246 18.3994 17.6664 18.3994 17.2246V14.8246C18.3994 14.3828 18.0413 14.0247 17.5995 14.0247ZM16.7995 17.2246V14.8246H17.5995V17.2246H16.7995Z" fill="#00C092"/>
<path d="M19.1995 14.8246V17.2246C19.1995 17.6664 19.5576 18.0246 19.9994 18.0246H20.7994C21.2413 18.0246 21.5994 17.6664 21.5994 17.2246V14.8246C21.5994 14.3828 21.2413 14.0247 20.7994 14.0247H19.9994C19.5576 14.0247 19.1995 14.3828 19.1995 14.8246ZM20.7994 17.2246H19.9994V14.8246H20.7994V17.2246Z" fill="#00C092"/>
<path d="M6.39962 7.62488H5.59964C5.15782 7.62488 4.79965 7.98304 4.79965 8.42486V10.8248C4.79965 11.2666 5.15782 11.6248 5.59964 11.6248H6.39962C6.84144 11.6248 7.19961 11.2666 7.19961 10.8248V8.42486C7.19961 7.98304 6.84144 7.62488 6.39962 7.62488ZM5.59964 10.8248V8.42486H6.39962V10.8248H5.59964Z" fill="#00C092"/>
<path d="M9.59963 7.62488H8.79965C8.35783 7.62488 7.99966 7.98304 7.99966 8.42486V10.8248C7.99966 11.2666 8.35783 11.6248 8.79965 11.6248H9.59963C10.0415 11.6248 10.3996 11.2666 10.3996 10.8248V8.42486C10.3996 7.98304 10.0415 7.62488 9.59963 7.62488ZM8.79965 10.8248V8.42486H9.59963V10.8248H8.79965Z" fill="#00C092"/>
<path d="M15.1995 7.62488H14.3996C13.9577 7.62488 13.5996 7.98304 13.5996 8.42486V10.8248C13.5996 11.2666 13.9577 11.6248 14.3996 11.6248H15.1995C15.6414 11.6248 15.9995 11.2666 15.9995 10.8248V8.42486C15.9995 7.98304 15.6414 7.62488 15.1995 7.62488ZM14.3996 10.8248V8.42486H15.1995V10.8248H14.3996Z" fill="#00C092"/>
<path d="M18.3994 7.62488H17.5995C17.1576 7.62488 16.7995 7.98304 16.7995 8.42486V10.8248C16.7995 11.2666 17.1576 11.6248 17.5995 11.6248H18.3994C18.8413 11.6248 19.1994 11.2666 19.1994 10.8248V8.42486C19.1994 7.98304 18.8413 7.62488 18.3994 7.62488ZM17.5995 10.8248V8.42486H18.3994V10.8248H17.5995Z" fill="#00C092"/>
</svg>
