<svg width="24" height="25" viewBox="0 0 24 25" fill="none" xmlns="http://www.w3.org/2000/svg">
<path d="M22.7309 20.4467H18.1861L18.9861 12.066C19.0237 12.0291 19.0609 11.9918 19.0977 11.9537L19.6388 11.3935L19.6394 11.3929L21.9774 8.97471C21.9884 8.96341 21.9987 8.95138 22.0086 8.93902C22.0125 8.93417 22.0158 8.92903 22.0194 8.92403C22.025 8.91632 22.0308 8.90876 22.036 8.90071C22.0397 8.89479 22.043 8.88863 22.0466 8.88252C22.051 8.87506 22.0556 8.86759 22.0596 8.85983C22.0627 8.85386 22.0653 8.84771 22.0681 8.84165C22.072 8.83335 22.0759 8.82516 22.0793 8.81662C22.0815 8.81114 22.0832 8.80547 22.0851 8.79994C22.0885 8.79058 22.0919 8.78127 22.0947 8.77162C22.0961 8.76677 22.0971 8.76183 22.0984 8.75693C22.1011 8.74655 22.1038 8.73617 22.1058 8.72551C22.1067 8.72104 22.1071 8.71649 22.1078 8.71198C22.1096 8.70092 22.1114 8.68987 22.1125 8.67857C22.1128 8.67542 22.1127 8.67212 22.113 8.66897C22.1139 8.6566 22.1148 8.64428 22.1148 8.63172C22.1148 8.61839 22.1139 8.60534 22.1129 8.5923C22.1127 8.58992 22.1127 8.5875 22.1125 8.58512C22.1113 8.57271 22.1094 8.56054 22.1074 8.54841C22.1068 8.54507 22.1066 8.54167 22.106 8.53833C22.1037 8.52635 22.1007 8.51471 22.0976 8.50303C22.0967 8.49949 22.096 8.49594 22.0949 8.4924C22.0917 8.48115 22.0878 8.47024 22.0838 8.45938C22.0823 8.45545 22.0811 8.45148 22.0797 8.4476C22.0754 8.43703 22.0706 8.4268 22.0657 8.41661C22.0638 8.41264 22.0622 8.40851 22.0601 8.40454C22.0547 8.39402 22.0487 8.38388 22.0426 8.37379C22.0406 8.3705 22.0387 8.36701 22.0366 8.36376C22.0286 8.3512 22.02 8.33907 22.0108 8.32739L22.0094 8.32554C21.9893 8.29999 21.9667 8.27657 21.942 8.25576L21.9395 8.25378C21.9284 8.24456 21.917 8.23578 21.905 8.22764C21.9017 8.22526 21.8981 8.22327 21.8945 8.22099C21.8851 8.21488 21.8756 8.20882 21.8657 8.20339C21.8615 8.20107 21.8572 8.19922 21.853 8.19709C21.8435 8.19219 21.834 8.18739 21.8241 8.18317C21.82 8.18143 21.8158 8.18007 21.8116 8.17847C21.8014 8.17449 21.7913 8.17056 21.7808 8.16731C21.777 8.1661 21.7732 8.16533 21.7693 8.16421C21.7585 8.16116 21.7475 8.1582 21.7364 8.15592C21.7326 8.15514 21.7289 8.1548 21.7251 8.15412C21.7139 8.15214 21.7027 8.1502 21.6912 8.14903C21.6877 8.14869 21.6842 8.14874 21.6807 8.14845C21.6692 8.14758 21.6577 8.14666 21.646 8.14666H19.1348L19.9576 7.29552L23.0038 7.29577C23.1831 7.29577 23.3466 7.19005 23.4252 7.02348C24.0201 5.76172 24.1587 4.32044 23.8155 2.96499C23.773 2.79697 23.6467 2.66526 23.4846 2.61987C23.3224 2.57434 23.1493 2.6222 23.0305 2.74498L20.7945 5.05815V3.21604C20.7945 3.05892 20.721 2.91155 20.5971 2.82063C20.4732 2.72966 20.3145 2.70638 20.1711 2.75827C19.7512 2.91005 19.3554 3.10955 18.986 3.35409V3.08787C18.986 1.3907 17.6512 0.0098877 16.0106 0.0098877H2.97545C1.33486 0.0098392 0 1.3907 0 3.08802C0 3.35584 0.209907 3.57294 0.468752 3.57294H5.01339L4.21339 20.9317C4.21339 22.629 5.54826 24.0099 7.18889 24.0099H20.2242C21.8649 24.0099 23.1996 22.629 23.1996 20.9317C23.1996 20.6638 22.9898 20.4467 22.7309 20.4467ZM23.0504 4.09626C23.1032 4.8541 22.9849 5.61833 22.7012 6.32602L20.895 6.32583L23.0504 4.09626ZM0.991878 2.6031C1.20422 1.6735 2.01296 0.97968 2.97545 0.97968C3.93784 0.97968 4.74602 1.67365 4.95836 2.6031H0.991878ZM20.5143 9.11659L19.1132 10.5658H16.7966L17.6503 9.68255L17.6527 9.68007L18.1975 9.11659H20.5143ZM15.8592 11.5356H18.1556C17.2932 12.2995 16.2108 12.716 15.069 12.716C14.9558 12.716 14.8429 12.7117 14.7302 12.7034L15.8592 11.5356ZM14.0677 12.0171C13.9723 10.6136 14.4687 9.20466 15.4522 8.18725L16.8515 6.73971V9.1374L15.3337 10.7076L14.0677 12.0171ZM18.6561 4.87286L18.6839 4.8442C19.0344 4.48153 19.4273 4.18292 19.8571 3.95195V6.02804L19.4321 6.46777L17.789 8.16761V5.76992L18.6561 4.87286ZM7.18884 23.0401C6.06505 23.04 5.15085 22.0942 5.15085 20.9317L5.95085 3.08792C5.95085 2.27296 5.64307 1.53089 5.1415 0.97968H16.0107C17.1344 0.97968 18.0486 1.92542 18.0486 3.08782V4.1306C18.0397 4.13976 18.0304 4.14863 18.0215 4.15785L14.8178 7.47199L14.7899 7.50074C13.4281 8.90953 12.8475 10.9452 13.2398 12.8736L12.1081 14.0443C11.925 14.2337 11.925 14.5407 12.1081 14.7301C12.1996 14.8248 12.3196 14.8722 12.4395 14.8722C12.5594 14.8722 12.6794 14.8248 12.771 14.7301L13.9026 13.5595C14.2852 13.6429 14.6763 13.6859 15.069 13.6859C16.1362 13.6858 17.1595 13.3819 18.0486 12.8135L17.2486 20.4468H9.69563C9.43683 20.4468 9.22688 20.6639 9.22688 20.9317C9.22693 22.0943 8.31267 23.0401 7.18884 23.0401ZM20.2242 23.04H9.3541C9.75446 22.6002 10.0319 22.0394 10.1275 21.4165H22.2077C21.9954 22.3462 21.1867 23.04 20.2242 23.04Z" fill="#7F00FF"/>
</svg>
