<svg width="26" height="19" viewBox="0 0 26 19" fill="none" xmlns="http://www.w3.org/2000/svg">
<path d="M6.7394 9.46857C4.72818 8.86889 3.17825 10.3173 3.11367 10.3911C2.89755 10.5261 2.8317 10.8106 2.96663 11.0267C3.10156 11.2429 3.38612 11.3087 3.60223 11.1738C3.65511 11.1407 3.70077 11.0974 3.73641 11.0462C4.47614 10.3814 5.49467 10.1212 6.46263 10.3497C6.70481 10.4287 6.96521 10.2964 7.04426 10.0542C7.04576 10.0497 7.04714 10.0452 7.04847 10.0406C7.1202 9.79735 6.98216 9.54185 6.7394 9.46857Z" fill="#0000FF"/>
<path d="M12.4316 8.03391V8.02468C10.4204 7.42962 8.87046 8.87346 8.80588 8.94726C8.62119 9.12307 8.61392 9.4153 8.78973 9.59999C8.96554 9.78468 9.25777 9.79194 9.44246 9.61613C10.1795 8.94623 11.2007 8.68531 12.1687 8.91959C12.4133 8.99218 12.6704 8.85281 12.743 8.60822C12.8156 8.36362 12.6762 8.10651 12.4316 8.03391Z" fill="#0000FF"/>
<path d="M12.2887 13.1866C12.2548 13.0736 12.1788 12.9778 12.0765 12.919C11.971 12.8561 11.8449 12.8378 11.7259 12.8683L6.04281 14.3075C5.79452 14.3646 5.63959 14.6122 5.69673 14.8605C5.69679 14.8606 5.69685 14.8609 5.69685 14.8611C6.01514 16.1158 7.23755 16.9599 8.73213 16.9599C9.06051 16.959 9.38745 16.9171 9.70545 16.8354C11.5229 16.3741 12.6808 14.7411 12.2887 13.1866ZM9.47942 15.9543C9.23661 16.0155 8.98717 16.0465 8.73675 16.0466C7.95947 16.0804 7.21922 15.7129 6.77626 15.0732L11.4399 13.8923C11.3984 14.7965 10.6096 15.6683 9.47942 15.9543Z" fill="#0000FF"/>
<path d="M25.6656 4.11944C25.6645 4.11915 25.6635 4.11887 25.6625 4.11858L13.3378 0.728097C13.0915 0.66046 12.8368 0.804729 12.7689 1.05037C12.7689 1.0506 12.7688 1.05077 12.7688 1.051L12.5652 1.77523L0.346939 4.86125C0.101105 4.92462 -0.0475753 5.17372 0.0138399 5.41941L2.07721 13.552C2.99924 17.206 6.71758 19.423 10.3823 18.5036C11.5642 18.2071 12.6452 17.6013 13.5136 16.7487C16.7247 18.7449 20.9508 17.7677 22.9528 14.566C23.3011 14.0091 23.5671 13.405 23.7425 12.7724L25.9817 4.69058C26.0526 4.4458 25.911 4.19008 25.6656 4.11944ZM10.178 17.6021C7.00852 18.4064 3.78527 16.4966 2.97854 13.3364C2.97727 13.3313 2.976 13.3263 2.97472 13.3213L1.02239 5.64083L12.5375 2.73932L14.4898 10.4244C15.2857 13.5935 13.3557 16.8061 10.178 17.6021ZM22.8543 12.5279C21.9806 15.6757 18.7132 17.5213 15.5563 16.6502C15.0595 16.5131 14.5828 16.3121 14.1382 16.0521C14.5886 15.4724 14.9431 14.8245 15.1884 14.1332L19.0144 15.1895C19.0559 15.1952 19.0978 15.1952 19.1393 15.1895C19.353 15.1974 19.5443 15.0582 19.6019 14.8528C20.0276 13.3121 18.9034 11.6514 17.0898 11.1625C16.5827 11.022 16.0522 10.9859 15.5307 11.0564C15.4984 10.7659 15.4474 10.4777 15.3781 10.1938L14.6008 7.17232C15.0731 7.38693 15.5854 7.50006 16.1044 7.50444C16.417 7.50467 16.7283 7.46281 17.0297 7.3799C17.2788 7.30984 17.4238 7.05169 17.3535 6.80328C17.2833 6.55488 17.0243 6.41032 16.7752 6.48038C15.9 6.686 14.9787 6.47467 14.2816 5.90838L13.3702 2.32877L13.5368 1.72448L24.9685 4.87509L22.8543 12.5279ZM15.4521 13.2429C15.5377 12.8284 15.5842 12.4067 15.5909 11.9836C16.0119 11.9149 16.4429 11.9385 16.8539 12.0528C17.9827 12.3618 18.7553 13.2475 18.7784 14.1562L15.4521 13.2429Z" fill="#0000FF"/>
<path d="M22.9723 8.3763C22.9048 8.13043 22.6508 7.98587 22.4049 8.05339C21.4312 8.26703 20.4151 7.98357 19.6925 7.29688C19.5116 7.11726 19.2194 7.1183 19.0398 7.29918C18.8602 7.48007 18.8612 7.7723 19.0421 7.95191C19.7732 8.63548 20.7266 9.03191 21.7268 9.06823C22.0385 9.06858 22.3489 9.02666 22.6494 8.94368C22.8952 8.87616 23.0398 8.62211 22.9723 8.3763Z" fill="#0000FF"/>
</svg>
