<svg width="61" height="57" viewBox="0 0 61 57" fill="none" xmlns="http://www.w3.org/2000/svg">
<mask id="path-1-inside-1_1768_520" fill="white">
<path d="M61 19.5548C60.9765 20.6173 60.8827 21.7034 60.6949 22.7895C60.4368 24.3006 59.9909 25.7409 59.3572 27.134C58.747 28.5034 57.9726 29.7784 57.0573 30.9826C56.6584 31.5021 56.2125 31.9507 55.79 32.4465C55.7196 32.5173 55.6962 32.5882 55.6962 32.6826C55.6962 33.7687 55.3207 34.7368 54.6636 35.6104C53.7952 36.7674 52.6453 37.4521 51.2137 37.6646C50.9556 37.7118 50.6974 37.7118 50.4393 37.7118C50.2985 37.7118 50.228 37.759 50.228 37.9243C50.228 39.0104 49.9464 40.0257 49.3362 40.9229C48.773 41.7493 48.0455 42.3868 47.1068 42.8118C46.4027 43.1188 45.6752 43.2605 44.9242 43.2605C44.713 43.2605 44.7365 43.3785 44.7365 43.5202C44.7365 44.323 44.5722 45.1021 44.2202 45.8105C43.8447 46.5896 43.3049 47.2507 42.6008 47.7466C41.6856 48.4077 40.6999 48.7619 39.5734 48.7383C39.151 48.7383 38.752 48.7383 38.3531 48.6438C38.2592 48.6202 38.1653 48.5966 38.1419 48.7619C38.048 49.6119 37.7194 50.391 37.2031 51.0758C36.2879 52.2327 35.1614 53.2008 34.1523 54.2633C33.6359 54.7827 33.1431 55.3258 32.5799 55.798C31.8054 56.4355 30.9371 56.8133 29.928 56.955C29.0831 57.073 28.2382 56.955 27.4638 56.648C26.0087 56.105 24.9996 55.0897 24.4129 53.6258C24.1782 53.0119 24.0609 52.3744 24.0609 51.7133C24.0609 51.5244 24.0139 51.4535 23.8027 51.4535C22.5354 51.4772 21.4324 51.0522 20.4702 50.273C19.4846 49.4466 18.8509 48.3841 18.6632 47.0619C18.6162 46.7549 18.6162 46.448 18.6162 46.1646C18.6162 45.9757 18.5458 45.9285 18.3815 45.9285C17.3489 45.9757 16.4102 45.6924 15.5419 45.1493C14.744 44.6535 14.1573 43.9924 13.7114 43.166C13.3124 42.3868 13.1012 41.5841 13.1247 40.7104C13.1247 40.4979 13.0542 40.4507 12.8665 40.4507C10.6135 40.3563 8.97076 39.2938 8.03203 37.216C7.68 36.4132 7.51573 35.5396 7.68 34.6424C7.70347 34.4535 7.65653 34.3118 7.49226 34.1465C6.81168 33.509 6.15456 32.8479 5.52092 32.1632C4.95768 31.5493 4.44138 30.9118 3.94854 30.2507C3.40877 29.5423 2.96287 28.7868 2.51698 27.984C1.69559 26.4729 1.08541 24.8673 0.66298 23.1909C0.428297 22.2701 0.264019 21.302 0.146677 20.3576C0.0293355 19.4367 -0.0176012 18.4923 0.00586707 17.5714C0.0528037 16.4145 0.170145 15.2575 0.404828 14.1006C0.733385 12.4242 1.29662 10.8186 2.09455 9.30751C2.70472 8.17417 3.43224 7.11167 4.2771 6.14361C5.40358 4.84499 6.7178 3.75887 8.14937 2.83804C9.25238 2.1297 10.4258 1.56303 11.6696 1.11442C12.5849 0.760249 13.5471 0.524137 14.5093 0.335247C15.096 0.217191 15.6827 0.122746 16.2929 0.0991347C16.95 0.0519123 17.6071 -0.0189213 18.2877 0.0046899C19.2499 0.0519123 20.2121 0.122746 21.1743 0.288025C22.2538 0.476915 23.3334 0.760249 24.366 1.13803C26.1026 1.77553 27.6985 2.67276 29.177 3.8061C29.8106 4.27832 30.3739 4.82138 30.9606 5.34083C31.031 5.41166 31.0779 5.43527 31.1718 5.36444C32.6737 4.27832 34.3165 3.42832 36.0767 2.79081C37.0154 2.43665 38.0011 2.17692 38.9867 1.96442C39.6438 1.82275 40.3009 1.72831 40.9581 1.65748C41.6856 1.58664 42.4366 1.51581 43.1641 1.51581C44.5252 1.53942 45.9099 1.65748 47.2476 1.96442C48.7965 2.29498 50.2515 2.81443 51.6596 3.54637C52.7157 4.08943 53.7014 4.75055 54.6166 5.52972C56.0951 6.78111 57.3155 8.24501 58.3481 9.89779C59.1225 11.1728 59.7327 12.495 60.2021 13.9117C60.5306 14.8798 60.7418 15.895 60.8827 16.9103C60.9061 17.7367 60.9531 18.6339 61 19.5548ZM23.967 23.427C22.0661 23.4742 20.3294 22.9784 18.7336 21.9631C17.8652 21.4201 17.1847 20.6881 16.4806 19.9798C16.2459 19.7673 16.2694 19.2478 16.4806 19.0117C18.2877 17.1937 20.0713 15.3992 21.8783 13.5811C23.967 11.4797 26.0557 9.37835 28.1444 7.27695C28.2852 7.15889 28.2617 7.06445 28.1444 6.97C27.9097 6.7575 27.675 6.56861 27.4403 6.37972C26.4312 5.52972 25.3282 4.8686 24.1548 4.32554C22.4181 3.52276 20.5876 3.07415 18.6632 2.93248C17.4428 2.86165 16.2225 2.95609 15.0256 3.21582C13.4767 3.52276 12.0216 4.06582 10.6605 4.82138C8.94729 5.76583 7.44532 6.99361 6.17803 8.48112C5.38011 9.42557 4.74647 10.4881 4.23016 11.645C3.3853 13.5339 2.96287 15.4937 2.89247 17.5478C2.84553 18.9645 3.03328 20.3576 3.33837 21.727C3.61999 22.9548 4.01895 24.159 4.53525 25.2923C5.52092 27.4645 6.92902 29.3534 8.6422 30.9826C8.78301 31.1243 8.85342 31.1243 8.99423 30.9826C9.83909 30.1326 10.6839 29.259 11.5523 28.409C12.092 27.8895 12.5849 27.2993 13.1716 26.8507C14.4154 25.9062 15.8704 25.7409 17.3489 25.9062C18.6866 26.0479 19.8131 26.6618 20.7049 27.677C21.5028 28.5979 21.9018 29.6604 21.9722 30.8409C21.9957 31.3132 21.9722 31.3132 22.4416 31.3604C22.512 31.3604 22.6058 31.384 22.6763 31.384C24.2017 31.5021 25.422 32.1868 26.3842 33.3673C27.1352 34.3118 27.4873 35.4215 27.4873 36.6257C27.4873 36.8146 27.5342 36.8854 27.7219 36.8854C29.3413 36.909 30.6789 37.4993 31.735 38.7507C32.5329 39.6952 32.9319 40.8049 32.9554 42.0327C32.9554 42.4813 32.9554 42.4104 33.3309 42.4104C34.5981 42.4341 35.7012 42.8827 36.6634 43.6855C37.1797 44.1105 37.5317 44.7007 38.0949 45.1021C38.6582 45.4799 39.1979 45.8577 39.902 45.6452C40.6764 45.4327 41.2162 44.9368 41.5448 44.2049C41.709 43.8271 41.8264 43.4493 41.6856 43.0243C41.5213 42.4577 41.1693 42.0563 40.7703 41.6549C37.1093 37.9479 33.4247 34.2646 29.7637 30.5576C29.2708 30.0618 29.1535 28.9993 29.4821 28.3618C29.9045 27.5354 31.0779 27.5354 31.782 27.7951C31.8993 27.8423 32.0166 27.9368 32.1105 28.0312C33.3778 29.3062 34.6451 30.5812 35.9124 31.8562C37.649 33.6035 39.3857 35.3507 41.1223 37.0979C41.9907 37.9715 42.8121 38.8924 43.7508 39.6952C44.1498 40.0493 44.6426 40.2618 45.2058 40.1674C45.9568 40.0257 46.4966 39.5771 46.8955 38.9396C47.1068 38.609 47.271 38.2076 47.2241 37.8063C47.1772 37.2868 46.919 36.8382 46.567 36.4604C45.5578 35.4687 44.5722 34.4535 43.563 33.4618C42.5539 32.4465 41.5448 31.4548 40.5356 30.4396C38.8694 28.7632 37.2266 27.0868 35.5369 25.434C34.8563 24.7729 34.6451 24.0173 34.8798 23.1201C34.9736 22.7423 35.2083 22.4826 35.5603 22.3173C35.9828 22.1048 36.4287 22.1756 36.898 22.1992C37.2031 22.2229 37.4378 22.3645 37.649 22.5534C38.6816 23.5923 39.6908 24.6312 40.7234 25.6465C43.5161 28.4326 46.2619 31.2896 49.125 34.0285C49.6413 34.5243 50.2515 34.784 51.0025 34.5243C51.4953 34.359 51.8708 34.0757 52.1759 33.6743C52.5514 33.1785 52.833 32.6118 52.6453 31.9507C52.5279 31.5257 52.3167 31.1715 52.0116 30.8646C48.7026 27.5354 45.3701 24.1826 42.0611 20.8534C40.2071 18.9881 38.3531 17.1228 36.4991 15.2575C36.3817 15.1395 36.3113 15.0923 36.1471 15.2339C34.5981 16.7923 33.0492 18.3506 31.5003 19.909C30.8198 20.5937 30.1392 21.2784 29.2943 21.8215C27.6985 22.9784 25.9149 23.4979 23.967 23.427ZM58.0195 19.5548C58.043 18.8228 57.9726 18.1145 57.8552 17.4062C57.644 16.1075 57.292 14.8561 56.7757 13.6284C56.1186 12.0936 55.2503 10.677 54.1472 9.40196C53.2789 8.41028 52.2933 7.51306 51.1902 6.80472C49.9464 6.00194 48.6087 5.41166 47.2006 5.01027C46.215 4.72693 45.2293 4.56166 44.1967 4.46721C43.2814 4.37277 42.3896 4.41999 41.4744 4.51443C40.5591 4.60888 39.6438 4.77416 38.752 5.01027C37.6725 5.31721 36.6164 5.67138 35.6073 6.16722C34.692 6.61583 33.8002 7.13528 32.9554 7.72556C31.8524 8.50473 30.8667 9.44918 29.928 10.4172C28.5433 11.8103 27.1587 13.2034 25.7741 14.5964C24.3425 16.0367 22.8875 17.5006 21.4559 18.9409C21.0335 19.3659 21.0335 19.3659 21.5967 19.6256C22.7232 20.1215 23.8731 20.3576 25.0935 20.0742C26.4077 19.7673 27.5342 19.1298 28.4729 18.1853C30.6085 16.0603 32.7442 13.9117 34.8563 11.7631C35.5838 11.0311 36.593 10.8659 37.4378 11.4325C37.6725 11.5978 37.8602 11.8339 38.0715 12.0464C43.563 17.5714 49.0781 23.1201 54.5697 28.6451C54.7574 28.834 54.8278 28.8104 54.9686 28.6215C55.837 27.4173 56.541 26.1187 57.0573 24.702C57.6675 23.0256 57.9961 21.302 58.0195 19.5548ZM35.2553 47.9355C35.1849 47.2035 34.8328 46.6605 34.2931 46.2119C33.988 45.9521 33.6125 45.7868 33.237 45.716C32.7676 45.598 32.3217 45.7868 31.9462 46.0466C31.3595 46.4244 30.9371 46.991 30.4443 47.4869C29.9749 47.9355 29.529 48.4313 29.0596 48.9035C28.5903 49.3521 28.0974 49.8244 27.6515 50.3202C27.2526 50.7452 26.9475 51.2647 27.0414 51.8549C27.2056 52.9411 27.8862 53.5786 28.8719 53.9327C29.0362 53.9799 29.2004 54.0272 29.3882 54.0036C29.928 53.9091 30.3973 53.673 30.7728 53.2952C31.6646 52.398 32.5799 51.5008 33.4717 50.5799C33.9176 50.1077 34.4104 49.7063 34.8094 49.1633C35.044 48.7855 35.2083 48.3605 35.2553 47.9355ZM18.7805 31.3132C18.7101 30.6521 18.3581 30.0618 17.7948 29.6368C17.302 29.2826 16.7857 29.0229 16.1286 29.1882C15.6592 29.3062 15.2837 29.5659 14.9552 29.8965C13.8991 30.9354 12.843 31.9979 11.8104 33.0604C11.4584 33.4146 11.0594 33.7687 10.8248 34.2174C10.637 34.5479 10.4727 34.9021 10.5431 35.3035C10.6839 36.059 11.1064 36.6493 11.74 37.0507C12.0686 37.2632 12.4441 37.4521 12.8196 37.4049C13.2889 37.3813 13.7348 37.1688 14.0869 36.8382C14.4623 36.484 14.8144 36.1063 15.1899 35.7521C16.2694 34.7368 17.302 33.6979 18.2877 32.6118C18.5928 32.2576 18.757 31.8326 18.7805 31.3132ZM16.0347 40.6632C16.1051 41.3243 16.3867 41.8674 16.8796 42.2924C17.4193 42.741 17.9826 43.0716 18.7101 42.8591C19.1325 42.741 19.508 42.5049 19.8131 42.1743C21.0569 40.9229 22.3008 39.6715 23.5446 38.4202C23.9905 37.9479 24.3425 37.4049 24.2252 36.7201C24.1078 35.9646 23.6854 35.4215 23.0517 35.0201C22.6528 34.784 22.2304 34.5715 21.761 34.666C21.3386 34.7368 20.9631 34.9257 20.658 35.2326C19.2733 36.6021 17.9122 37.9715 16.551 39.3646C16.2225 39.7188 16.0817 40.1674 16.0347 40.6632ZM23.8027 48.4549C24.2956 48.4077 24.7415 48.2424 25.07 47.9119C26.4312 46.566 27.7923 45.1966 29.1535 43.8035C29.6463 43.3077 29.9749 42.4813 29.5759 41.6785C29.2708 41.0882 28.8484 40.6396 28.2382 40.3563C27.9801 40.2382 27.675 40.1202 27.3934 40.1674C26.9005 40.2382 26.4546 40.4507 26.1026 40.8049C24.7884 42.1035 23.4742 43.4021 22.2069 44.748C21.6906 45.291 21.3855 45.9521 21.6436 46.7313C21.7845 47.1091 21.9957 47.4396 22.2773 47.723C22.6997 48.148 23.216 48.3605 23.8027 48.4549Z"/>
</mask>
<path d="M61 19.5548C60.9765 20.6173 60.8827 21.7034 60.6949 22.7895C60.4368 24.3006 59.9909 25.7409 59.3572 27.134C58.747 28.5034 57.9726 29.7784 57.0573 30.9826C56.6584 31.5021 56.2125 31.9507 55.79 32.4465C55.7196 32.5173 55.6962 32.5882 55.6962 32.6826C55.6962 33.7687 55.3207 34.7368 54.6636 35.6104C53.7952 36.7674 52.6453 37.4521 51.2137 37.6646C50.9556 37.7118 50.6974 37.7118 50.4393 37.7118C50.2985 37.7118 50.228 37.759 50.228 37.9243C50.228 39.0104 49.9464 40.0257 49.3362 40.9229C48.773 41.7493 48.0455 42.3868 47.1068 42.8118C46.4027 43.1188 45.6752 43.2605 44.9242 43.2605C44.713 43.2605 44.7365 43.3785 44.7365 43.5202C44.7365 44.323 44.5722 45.1021 44.2202 45.8105C43.8447 46.5896 43.3049 47.2507 42.6008 47.7466C41.6856 48.4077 40.6999 48.7619 39.5734 48.7383C39.151 48.7383 38.752 48.7383 38.3531 48.6438C38.2592 48.6202 38.1653 48.5966 38.1419 48.7619C38.048 49.6119 37.7194 50.391 37.2031 51.0758C36.2879 52.2327 35.1614 53.2008 34.1523 54.2633C33.6359 54.7827 33.1431 55.3258 32.5799 55.798C31.8054 56.4355 30.9371 56.8133 29.928 56.955C29.0831 57.073 28.2382 56.955 27.4638 56.648C26.0087 56.105 24.9996 55.0897 24.4129 53.6258C24.1782 53.0119 24.0609 52.3744 24.0609 51.7133C24.0609 51.5244 24.0139 51.4535 23.8027 51.4535C22.5354 51.4772 21.4324 51.0522 20.4702 50.273C19.4846 49.4466 18.8509 48.3841 18.6632 47.0619C18.6162 46.7549 18.6162 46.448 18.6162 46.1646C18.6162 45.9757 18.5458 45.9285 18.3815 45.9285C17.3489 45.9757 16.4102 45.6924 15.5419 45.1493C14.744 44.6535 14.1573 43.9924 13.7114 43.166C13.3124 42.3868 13.1012 41.5841 13.1247 40.7104C13.1247 40.4979 13.0542 40.4507 12.8665 40.4507C10.6135 40.3563 8.97076 39.2938 8.03203 37.216C7.68 36.4132 7.51573 35.5396 7.68 34.6424C7.70347 34.4535 7.65653 34.3118 7.49226 34.1465C6.81168 33.509 6.15456 32.8479 5.52092 32.1632C4.95768 31.5493 4.44138 30.9118 3.94854 30.2507C3.40877 29.5423 2.96287 28.7868 2.51698 27.984C1.69559 26.4729 1.08541 24.8673 0.66298 23.1909C0.428297 22.2701 0.264019 21.302 0.146677 20.3576C0.0293355 19.4367 -0.0176012 18.4923 0.00586707 17.5714C0.0528037 16.4145 0.170145 15.2575 0.404828 14.1006C0.733385 12.4242 1.29662 10.8186 2.09455 9.30751C2.70472 8.17417 3.43224 7.11167 4.2771 6.14361C5.40358 4.84499 6.7178 3.75887 8.14937 2.83804C9.25238 2.1297 10.4258 1.56303 11.6696 1.11442C12.5849 0.760249 13.5471 0.524137 14.5093 0.335247C15.096 0.217191 15.6827 0.122746 16.2929 0.0991347C16.95 0.0519123 17.6071 -0.0189213 18.2877 0.0046899C19.2499 0.0519123 20.2121 0.122746 21.1743 0.288025C22.2538 0.476915 23.3334 0.760249 24.366 1.13803C26.1026 1.77553 27.6985 2.67276 29.177 3.8061C29.8106 4.27832 30.3739 4.82138 30.9606 5.34083C31.031 5.41166 31.0779 5.43527 31.1718 5.36444C32.6737 4.27832 34.3165 3.42832 36.0767 2.79081C37.0154 2.43665 38.0011 2.17692 38.9867 1.96442C39.6438 1.82275 40.3009 1.72831 40.9581 1.65748C41.6856 1.58664 42.4366 1.51581 43.1641 1.51581C44.5252 1.53942 45.9099 1.65748 47.2476 1.96442C48.7965 2.29498 50.2515 2.81443 51.6596 3.54637C52.7157 4.08943 53.7014 4.75055 54.6166 5.52972C56.0951 6.78111 57.3155 8.24501 58.3481 9.89779C59.1225 11.1728 59.7327 12.495 60.2021 13.9117C60.5306 14.8798 60.7418 15.895 60.8827 16.9103C60.9061 17.7367 60.9531 18.6339 61 19.5548ZM23.967 23.427C22.0661 23.4742 20.3294 22.9784 18.7336 21.9631C17.8652 21.4201 17.1847 20.6881 16.4806 19.9798C16.2459 19.7673 16.2694 19.2478 16.4806 19.0117C18.2877 17.1937 20.0713 15.3992 21.8783 13.5811C23.967 11.4797 26.0557 9.37835 28.1444 7.27695C28.2852 7.15889 28.2617 7.06445 28.1444 6.97C27.9097 6.7575 27.675 6.56861 27.4403 6.37972C26.4312 5.52972 25.3282 4.8686 24.1548 4.32554C22.4181 3.52276 20.5876 3.07415 18.6632 2.93248C17.4428 2.86165 16.2225 2.95609 15.0256 3.21582C13.4767 3.52276 12.0216 4.06582 10.6605 4.82138C8.94729 5.76583 7.44532 6.99361 6.17803 8.48112C5.38011 9.42557 4.74647 10.4881 4.23016 11.645C3.3853 13.5339 2.96287 15.4937 2.89247 17.5478C2.84553 18.9645 3.03328 20.3576 3.33837 21.727C3.61999 22.9548 4.01895 24.159 4.53525 25.2923C5.52092 27.4645 6.92902 29.3534 8.6422 30.9826C8.78301 31.1243 8.85342 31.1243 8.99423 30.9826C9.83909 30.1326 10.6839 29.259 11.5523 28.409C12.092 27.8895 12.5849 27.2993 13.1716 26.8507C14.4154 25.9062 15.8704 25.7409 17.3489 25.9062C18.6866 26.0479 19.8131 26.6618 20.7049 27.677C21.5028 28.5979 21.9018 29.6604 21.9722 30.8409C21.9957 31.3132 21.9722 31.3132 22.4416 31.3604C22.512 31.3604 22.6058 31.384 22.6763 31.384C24.2017 31.5021 25.422 32.1868 26.3842 33.3673C27.1352 34.3118 27.4873 35.4215 27.4873 36.6257C27.4873 36.8146 27.5342 36.8854 27.7219 36.8854C29.3413 36.909 30.6789 37.4993 31.735 38.7507C32.5329 39.6952 32.9319 40.8049 32.9554 42.0327C32.9554 42.4813 32.9554 42.4104 33.3309 42.4104C34.5981 42.4341 35.7012 42.8827 36.6634 43.6855C37.1797 44.1105 37.5317 44.7007 38.0949 45.1021C38.6582 45.4799 39.1979 45.8577 39.902 45.6452C40.6764 45.4327 41.2162 44.9368 41.5448 44.2049C41.709 43.8271 41.8264 43.4493 41.6856 43.0243C41.5213 42.4577 41.1693 42.0563 40.7703 41.6549C37.1093 37.9479 33.4247 34.2646 29.7637 30.5576C29.2708 30.0618 29.1535 28.9993 29.4821 28.3618C29.9045 27.5354 31.0779 27.5354 31.782 27.7951C31.8993 27.8423 32.0166 27.9368 32.1105 28.0312C33.3778 29.3062 34.6451 30.5812 35.9124 31.8562C37.649 33.6035 39.3857 35.3507 41.1223 37.0979C41.9907 37.9715 42.8121 38.8924 43.7508 39.6952C44.1498 40.0493 44.6426 40.2618 45.2058 40.1674C45.9568 40.0257 46.4966 39.5771 46.8955 38.9396C47.1068 38.609 47.271 38.2076 47.2241 37.8063C47.1772 37.2868 46.919 36.8382 46.567 36.4604C45.5578 35.4687 44.5722 34.4535 43.563 33.4618C42.5539 32.4465 41.5448 31.4548 40.5356 30.4396C38.8694 28.7632 37.2266 27.0868 35.5369 25.434C34.8563 24.7729 34.6451 24.0173 34.8798 23.1201C34.9736 22.7423 35.2083 22.4826 35.5603 22.3173C35.9828 22.1048 36.4287 22.1756 36.898 22.1992C37.2031 22.2229 37.4378 22.3645 37.649 22.5534C38.6816 23.5923 39.6908 24.6312 40.7234 25.6465C43.5161 28.4326 46.2619 31.2896 49.125 34.0285C49.6413 34.5243 50.2515 34.784 51.0025 34.5243C51.4953 34.359 51.8708 34.0757 52.1759 33.6743C52.5514 33.1785 52.833 32.6118 52.6453 31.9507C52.5279 31.5257 52.3167 31.1715 52.0116 30.8646C48.7026 27.5354 45.3701 24.1826 42.0611 20.8534C40.2071 18.9881 38.3531 17.1228 36.4991 15.2575C36.3817 15.1395 36.3113 15.0923 36.1471 15.2339C34.5981 16.7923 33.0492 18.3506 31.5003 19.909C30.8198 20.5937 30.1392 21.2784 29.2943 21.8215C27.6985 22.9784 25.9149 23.4979 23.967 23.427ZM58.0195 19.5548C58.043 18.8228 57.9726 18.1145 57.8552 17.4062C57.644 16.1075 57.292 14.8561 56.7757 13.6284C56.1186 12.0936 55.2503 10.677 54.1472 9.40196C53.2789 8.41028 52.2933 7.51306 51.1902 6.80472C49.9464 6.00194 48.6087 5.41166 47.2006 5.01027C46.215 4.72693 45.2293 4.56166 44.1967 4.46721C43.2814 4.37277 42.3896 4.41999 41.4744 4.51443C40.5591 4.60888 39.6438 4.77416 38.752 5.01027C37.6725 5.31721 36.6164 5.67138 35.6073 6.16722C34.692 6.61583 33.8002 7.13528 32.9554 7.72556C31.8524 8.50473 30.8667 9.44918 29.928 10.4172C28.5433 11.8103 27.1587 13.2034 25.7741 14.5964C24.3425 16.0367 22.8875 17.5006 21.4559 18.9409C21.0335 19.3659 21.0335 19.3659 21.5967 19.6256C22.7232 20.1215 23.8731 20.3576 25.0935 20.0742C26.4077 19.7673 27.5342 19.1298 28.4729 18.1853C30.6085 16.0603 32.7442 13.9117 34.8563 11.7631C35.5838 11.0311 36.593 10.8659 37.4378 11.4325C37.6725 11.5978 37.8602 11.8339 38.0715 12.0464C43.563 17.5714 49.0781 23.1201 54.5697 28.6451C54.7574 28.834 54.8278 28.8104 54.9686 28.6215C55.837 27.4173 56.541 26.1187 57.0573 24.702C57.6675 23.0256 57.9961 21.302 58.0195 19.5548ZM35.2553 47.9355C35.1849 47.2035 34.8328 46.6605 34.2931 46.2119C33.988 45.9521 33.6125 45.7868 33.237 45.716C32.7676 45.598 32.3217 45.7868 31.9462 46.0466C31.3595 46.4244 30.9371 46.991 30.4443 47.4869C29.9749 47.9355 29.529 48.4313 29.0596 48.9035C28.5903 49.3521 28.0974 49.8244 27.6515 50.3202C27.2526 50.7452 26.9475 51.2647 27.0414 51.8549C27.2056 52.9411 27.8862 53.5786 28.8719 53.9327C29.0362 53.9799 29.2004 54.0272 29.3882 54.0036C29.928 53.9091 30.3973 53.673 30.7728 53.2952C31.6646 52.398 32.5799 51.5008 33.4717 50.5799C33.9176 50.1077 34.4104 49.7063 34.8094 49.1633C35.044 48.7855 35.2083 48.3605 35.2553 47.9355ZM18.7805 31.3132C18.7101 30.6521 18.3581 30.0618 17.7948 29.6368C17.302 29.2826 16.7857 29.0229 16.1286 29.1882C15.6592 29.3062 15.2837 29.5659 14.9552 29.8965C13.8991 30.9354 12.843 31.9979 11.8104 33.0604C11.4584 33.4146 11.0594 33.7687 10.8248 34.2174C10.637 34.5479 10.4727 34.9021 10.5431 35.3035C10.6839 36.059 11.1064 36.6493 11.74 37.0507C12.0686 37.2632 12.4441 37.4521 12.8196 37.4049C13.2889 37.3813 13.7348 37.1688 14.0869 36.8382C14.4623 36.484 14.8144 36.1063 15.1899 35.7521C16.2694 34.7368 17.302 33.6979 18.2877 32.6118C18.5928 32.2576 18.757 31.8326 18.7805 31.3132ZM16.0347 40.6632C16.1051 41.3243 16.3867 41.8674 16.8796 42.2924C17.4193 42.741 17.9826 43.0716 18.7101 42.8591C19.1325 42.741 19.508 42.5049 19.8131 42.1743C21.0569 40.9229 22.3008 39.6715 23.5446 38.4202C23.9905 37.9479 24.3425 37.4049 24.2252 36.7201C24.1078 35.9646 23.6854 35.4215 23.0517 35.0201C22.6528 34.784 22.2304 34.5715 21.761 34.666C21.3386 34.7368 20.9631 34.9257 20.658 35.2326C19.2733 36.6021 17.9122 37.9715 16.551 39.3646C16.2225 39.7188 16.0817 40.1674 16.0347 40.6632ZM23.8027 48.4549C24.2956 48.4077 24.7415 48.2424 25.07 47.9119C26.4312 46.566 27.7923 45.1966 29.1535 43.8035C29.6463 43.3077 29.9749 42.4813 29.5759 41.6785C29.2708 41.0882 28.8484 40.6396 28.2382 40.3563C27.9801 40.2382 27.675 40.1202 27.3934 40.1674C26.9005 40.2382 26.4546 40.4507 26.1026 40.8049C24.7884 42.1035 23.4742 43.4021 22.2069 44.748C21.6906 45.291 21.3855 45.9521 21.6436 46.7313C21.7845 47.1091 21.9957 47.4396 22.2773 47.723C22.6997 48.148 23.216 48.3605 23.8027 48.4549Z" fill="#90B83C" stroke="#96BF31" stroke-width="2" mask="url(#path-1-inside-1_1768_520)"/>
</svg>
