<svg width="22" height="16" viewBox="0 0 22 16" fill="none" xmlns="http://www.w3.org/2000/svg">
<path d="M21.5736 1.328C21.5721 1.328 21.5707 1.328 21.5693 1.328H20.1237V0.833326C20.1314 0.637537 20.0048 0.461578 19.8166 0.406887C18.813 0.143881 17.7795 0.0120043 16.742 0.0145629C15.0362 0.0145629 12.7122 0.398358 10.9936 2.14676C9.28785 0.381301 6.94669 0.0145629 5.2452 0.0145629C4.20768 0.0120043 3.1742 0.143881 2.17058 0.406887C1.98241 0.461578 1.85576 0.637537 1.86354 0.833326V1.32373H0.426439C0.190938 1.32373 0 1.51467 0 1.75017V15.3706C0 15.6061 0.190938 15.7971 0.426439 15.7971C0.49968 15.7969 0.571642 15.7778 0.635394 15.7416C0.678038 15.7203 4.94243 13.3877 10.8955 14.8888H10.9595H10.9979C11.0319 14.8929 11.0662 14.8929 11.1002 14.8888C17.0704 13.3749 21.3348 15.7033 21.3603 15.7416C21.4923 15.8178 21.6549 15.8178 21.7868 15.7416C21.9179 15.6659 21.9991 15.5263 22 15.3749V1.75443C22 1.51893 21.8091 1.328 21.5736 1.328ZM0.852878 14.6926V2.18087H1.87207V12.876C1.8694 13.1115 2.05816 13.3045 2.29366 13.3072C2.31668 13.3075 2.33971 13.3059 2.36247 13.3024C3.24467 13.1677 4.13534 13.0964 5.02772 13.0892C6.26386 13.0678 7.49483 13.2537 8.66951 13.6393C6.01679 13.3185 3.32607 13.6811 0.852878 14.6926ZM5.02772 12.2406C4.25208 12.2423 3.47735 12.2922 2.70789 12.3898V1.17021C3.53817 0.985245 4.38603 0.890842 5.23667 0.888763C6.83156 0.888763 9.03198 1.2555 10.5586 2.97832L10.5714 13.6009C9.68443 13.021 7.95309 12.2406 5.02772 12.2406ZM11.4243 2.97832C12.951 1.27256 15.1514 0.888763 16.7463 0.888763C17.5969 0.891269 18.4447 0.985618 19.2751 1.17021V12.3898C18.5099 12.2913 17.7394 12.24 16.968 12.2363C14.0597 12.2363 12.3241 13.0167 11.4243 13.5967V2.97832ZM21.1429 14.6926C18.6644 13.6783 15.9675 13.3157 13.3092 13.6393C14.4894 13.2523 15.7262 13.0663 16.968 13.0892C17.866 13.0942 18.7624 13.164 19.6503 13.2981C19.8832 13.3335 20.1006 13.1734 20.1359 12.9405C20.1394 12.9178 20.141 12.8947 20.1407 12.8717V2.18087H21.1599L21.1429 14.6926Z" fill="#D500E8"/>
</svg>
