<svg width="21" height="21" viewBox="0 0 21 21" fill="none" xmlns="http://www.w3.org/2000/svg">
<g clip-path="url(#clip0)">
<path d="M20.5292 15.9452L17.4405 12.8562C16.8253 12.2435 15.8065 12.2621 15.1698 12.899L13.6137 14.4547C13.5154 14.4005 13.4137 14.3439 13.3067 14.2839C12.324 13.7394 10.9791 12.9931 9.56382 11.5768C8.14436 10.1576 7.3974 8.81056 6.85126 7.82727C6.79363 7.7231 6.73841 7.62266 6.68388 7.52728L7.72825 6.48446L8.2417 5.97038C8.87932 5.33259 8.8969 4.31408 8.28313 3.69956L5.19444 0.610188C4.58067 -0.00346979 3.56141 0.0151468 2.9238 0.652937L2.0533 1.52843L2.07709 1.55205C1.7852 1.92449 1.54128 2.35405 1.35977 2.81729C1.19245 3.25822 1.08828 3.67899 1.04065 4.10062C0.632808 7.48171 2.17787 10.5718 6.37096 14.7649C12.1671 20.5607 16.838 20.1228 17.0395 20.1014C17.4784 20.049 17.899 19.9441 18.3264 19.7781C18.7856 19.5987 19.2149 19.3552 19.5871 19.0639L19.6061 19.0808L20.488 18.2173C21.1243 17.5796 21.1426 16.5607 20.5292 15.9452Z" fill="#96BF31"/>
</g>
<defs>
<clipPath id="clip0">
<rect width="20" height="20" fill="white" transform="translate(0.977539 0.139404)"/>
</clipPath>
</defs>
</svg>
