<svg width="21" height="21" viewBox="0 0 21 21" fill="none" xmlns="http://www.w3.org/2000/svg">
<g clip-path="url(#clip0)">
<path d="M20.7634 10.032L11.3887 1.90726C11.1537 1.70352 10.805 1.70352 10.57 1.90726L7.22757 4.80217V3.62969C7.22757 2.93969 6.66758 2.37975 5.97762 2.37975C5.28766 2.37975 4.72764 2.93973 4.72764 3.62969V6.96835L1.19272 10.032C0.932735 10.2582 0.903994 10.6533 1.13022 10.9145C1.35773 11.1745 1.75148 11.202 2.0127 10.977L10.9775 3.20721L19.941 10.977C20.061 11.0795 20.2047 11.1295 20.351 11.1295C20.5272 11.1295 20.6985 11.0557 20.8222 10.9145C21.0522 10.6533 21.0222 10.2607 20.7634 10.032Z" fill="#96BF31"/>
<path d="M11.7686 6.4146C11.5399 6.22587 11.2586 6.12961 10.9774 6.12961C10.6962 6.12961 10.4149 6.22459 10.1849 6.4146L3.93514 11.5382C3.64513 11.7757 3.47766 12.1294 3.47766 12.5056V18.6292C3.47766 19.3192 4.03765 19.8792 4.7276 19.8792H8.47748V13.6294H13.4773V19.8792H17.2272C17.9159 19.8792 18.4771 19.3192 18.4771 18.6292V12.5057C18.4771 12.1282 18.3084 11.7757 18.0184 11.5395L11.7686 6.4146Z" fill="#96BF31"/>
</g>
<defs>
<clipPath id="clip0">
<rect width="20" height="20" fill="white" transform="translate(0.977539 0.816833)"/>
</clipPath>
</defs>
</svg>
