<svg width="19" height="19" viewBox="0 0 19 19" fill="none" xmlns="http://www.w3.org/2000/svg">
<path d="M18.0915 16.4243L13.8075 11.9687C14.909 10.6593 15.5125 9.0118 15.5125 7.29667C15.5125 3.28944 12.2523 0.0291748 8.24503 0.0291748C4.2378 0.0291748 0.977539 3.28944 0.977539 7.29667C0.977539 11.3039 4.2378 14.5642 8.24503 14.5642C9.7494 14.5642 11.183 14.1104 12.4087 13.2491L16.7252 17.7385C16.9057 17.9259 17.1483 18.0292 17.4084 18.0292C17.6545 18.0292 17.888 17.9353 18.0653 17.7647C18.442 17.4023 18.454 16.8013 18.0915 16.4243ZM8.24503 1.92504C11.207 1.92504 13.6167 4.33469 13.6167 7.29667C13.6167 10.2586 11.207 12.6683 8.24503 12.6683C5.28305 12.6683 2.87341 10.2586 2.87341 7.29667C2.87341 4.33469 5.28305 1.92504 8.24503 1.92504Z" fill="black"/>
</svg>
