<svg width="18" height="19" viewBox="0 0 18 19" fill="none" xmlns="http://www.w3.org/2000/svg">
<g clip-path="url(#clip0)">
<path d="M17.745 11.5807C17.5315 11.4132 17.2376 11.3921 17.0023 11.5274C15.8863 12.1688 14.7068 12.4941 13.4964 12.4941C9.60752 12.4941 6.44375 9.33017 6.44375 5.44116C6.44375 4.22549 6.76949 3.04756 7.41199 1.9402C7.54844 1.70511 7.5282 1.41063 7.36085 1.19631C7.19359 0.981998 6.91278 0.89082 6.65159 0.966283C4.77291 1.50784 3.082 2.65684 1.8904 4.20152C0.653688 5.8048 0 7.72494 0 9.75445C0 14.818 4.1194 18.9377 9.18289 18.9377C11.2124 18.9377 13.133 18.2843 14.7371 17.0479C16.2828 15.8566 17.4323 14.1667 17.9739 12.2893C18.0492 12.0285 17.9586 11.7482 17.745 11.5807ZM9.18289 17.6059C4.8537 17.6059 1.3317 14.0837 1.3317 9.75445C1.3317 6.83376 3.00299 4.17586 5.54308 2.84008C5.2565 3.68216 5.11205 4.55211 5.11205 5.44116C5.11205 10.0645 8.87331 13.8258 13.4964 13.8258C14.3842 13.8258 15.2557 13.6808 16.1019 13.3932C14.7663 15.9338 12.1061 17.6059 9.18289 17.6059Z" fill="black"/>
</g>
<defs>
<clipPath id="clip0">
<rect width="18" height="18" fill="white" transform="translate(0 0.937988)"/>
</clipPath>
</defs>
</svg>
