<svg width="22" height="22" viewBox="0 0 22 22" fill="none" xmlns="http://www.w3.org/2000/svg">
<path d="M21.8602 10.5721C21.6636 10.3032 16.9808 3.98901 10.9999 3.98901C5.01902 3.98901 0.33593 10.3032 0.139606 10.5718C-0.0465353 10.8269 -0.0465353 11.1728 0.139606 11.4279C0.33593 11.6968 5.01902 18.011 10.9999 18.011C16.9808 18.011 21.6636 11.6967 21.8602 11.4281C22.0466 11.1731 22.0466 10.8269 21.8602 10.5721ZM10.9999 16.5604C6.59434 16.5604 2.77867 12.3696 1.64914 10.9995C2.77721 9.62824 6.58489 5.43956 10.9999 5.43956C15.4052 5.43956 19.2206 9.6297 20.3506 11.0005C19.2226 12.3717 15.4149 16.5604 10.9999 16.5604Z" fill="black"/>
<path d="M10.9999 6.64838C8.60039 6.64838 6.64819 8.60058 6.64819 11C6.64819 13.3995 8.60039 15.3517 10.9999 15.3517C13.3993 15.3517 15.3515 13.3995 15.3515 11C15.3515 8.60058 13.3993 6.64838 10.9999 6.64838ZM10.9999 13.9011C9.40013 13.9011 8.09878 12.5997 8.09878 11C8.09878 9.40036 9.40017 8.09896 10.9999 8.09896C12.5995 8.09896 13.9009 9.40036 13.9009 11C13.9009 12.5997 12.5996 13.9011 10.9999 13.9011Z" fill="black"/>
</svg>
