<svg width="21" height="21" viewBox="0 0 21 21" fill="none" xmlns="http://www.w3.org/2000/svg">
<g clip-path="url(#clip0)">
<path d="M19.4849 0.624451H1.04831C0.616791 0.624451 0.267059 0.974182 0.267059 1.4057C0.267059 3.5813 1.19968 5.65833 2.82581 7.10379L6.24729 10.1449C6.84055 10.6722 7.18082 11.43 7.18082 12.2239V19.8423C7.18082 20.4648 7.87662 20.8381 8.39527 20.4922L13.0045 17.4195C13.2218 17.2745 13.3524 17.0307 13.3524 16.7695V12.2239C13.3524 11.43 13.6927 10.6722 14.2859 10.1449L17.7073 7.10379C19.3334 5.65833 20.266 3.5813 20.266 1.4057C20.266 0.974182 19.9163 0.624451 19.4849 0.624451ZM16.6692 5.93588L13.2479 8.97711C12.3214 9.80078 11.7899 10.9841 11.7899 12.2237V16.3514L8.74317 18.3825V12.2239C8.74317 10.9841 8.2117 9.80078 7.28519 8.97711L3.86386 5.93604C2.76737 4.96115 2.06744 3.6254 1.88007 2.1868H18.653C18.4656 3.6254 17.7658 4.96115 16.6692 5.93588Z" fill="white"/>
</g>
<defs>
<clipPath id="clip0">
<rect width="20" height="20" fill="white" transform="translate(0.228027 0.624451)"/>
</clipPath>
</defs>
</svg>
