<svg width="50" height="51" viewBox="0 0 50 51" fill="none" xmlns="http://www.w3.org/2000/svg">
<mask id="path-1-inside-1_1866_1338" fill="white">
<path fill-rule="evenodd" clip-rule="evenodd" d="M33.1793 0.5H16.5126V17.1667H0V33.8334H16.5126V50.5H33.1793V33.8334H50V17.1667H33.1793V0.5Z"/>
</mask>
<path d="M16.5126 0.5V-1.5H14.5126V0.5H16.5126ZM33.1793 0.5H35.1793V-1.5H33.1793V0.5ZM16.5126 17.1667V19.1667H18.5126V17.1667H16.5126ZM0 17.1667V15.1667H-2V17.1667H0ZM0 33.8334H-2V35.8334H0V33.8334ZM16.5126 33.8334H18.5126V31.8334H16.5126V33.8334ZM16.5126 50.5H14.5126V52.5H16.5126V50.5ZM33.1793 50.5V52.5H35.1793V50.5H33.1793ZM33.1793 33.8334V31.8334H31.1793V33.8334H33.1793ZM50 33.8334V35.8334H52V33.8334H50ZM50 17.1667H52V15.1667H50V17.1667ZM33.1793 17.1667H31.1793V19.1667H33.1793V17.1667ZM16.5126 2.5H33.1793V-1.5H16.5126V2.5ZM18.5126 17.1667V0.5H14.5126V17.1667H18.5126ZM0 19.1667H16.5126V15.1667H0V19.1667ZM2 33.8334V17.1667H-2V33.8334H2ZM16.5126 31.8334H0V35.8334H16.5126V31.8334ZM18.5126 50.5V33.8334H14.5126V50.5H18.5126ZM33.1793 48.5H16.5126V52.5H33.1793V48.5ZM31.1793 33.8334V50.5H35.1793V33.8334H31.1793ZM50 31.8334H33.1793V35.8334H50V31.8334ZM48 17.1667V33.8334H52V17.1667H48ZM33.1793 19.1667H50V15.1667H33.1793V19.1667ZM31.1793 0.5V17.1667H35.1793V0.5H31.1793Z" fill="#F50000" mask="url(#path-1-inside-1_1866_1338)"/>
</svg>
