<svg width="55" height="41" viewBox="0 0 55 41" fill="none" xmlns="http://www.w3.org/2000/svg">
<path d="M53.0025 3.82856C52.999 3.82856 52.9955 3.82856 52.9921 3.82856H49.4404V2.57498C49.4595 2.07882 49.1483 1.63291 48.6861 1.49431C46.2203 0.827806 43.6812 0.493609 41.1322 0.500093C36.9415 0.500093 31.2316 1.4727 27.0094 5.90345C22.8186 1.42947 17.0668 0.500093 12.8866 0.500093C10.3375 0.493609 7.79846 0.827806 5.33273 1.49431C4.87044 1.63291 4.55928 2.07882 4.5784 2.57498V3.81775H1.04769C0.469102 3.81775 0 4.30162 0 4.89842V39.415C0 40.0118 0.469102 40.4957 1.04769 40.4957C1.22763 40.4952 1.40443 40.4468 1.56105 40.3552C1.66582 40.3012 12.1427 34.3899 26.7684 38.1939H26.9256H27.0199C27.1034 38.2043 27.1878 38.2043 27.2713 38.1939C41.9389 34.3575 52.4158 40.258 52.4787 40.3552C52.8028 40.5483 53.2022 40.5483 53.5264 40.3552C53.8485 40.1634 54.048 39.8096 54.0502 39.4258V4.90923C54.0502 4.31243 53.5812 3.82856 53.0025 3.82856ZM2.09538 37.6968V5.9899H4.59935V33.0931C4.5928 33.6899 5.05653 34.1792 5.63512 34.1859C5.6917 34.1866 5.74827 34.1826 5.80419 34.1738C7.9716 33.8324 10.1598 33.6518 12.3522 33.6335C15.3892 33.5792 18.4135 34.0503 21.2995 35.0275C14.7822 34.2146 8.17157 35.1334 2.09538 37.6968ZM12.3522 31.4829C10.4466 31.4874 8.54324 31.6137 6.65282 31.8612V3.42871C8.69267 2.95997 10.7757 2.72074 12.8656 2.71547C16.784 2.71547 22.19 3.64484 25.9408 8.01075L25.9722 34.9303C23.793 33.4605 19.5394 31.4829 12.3522 31.4829ZM28.0676 8.01075C31.8183 3.68807 37.2243 2.71547 41.1427 2.71547C43.2324 2.72182 45.3155 2.96091 47.3555 3.42871V31.8612C45.4757 31.6114 43.5828 31.4814 41.6875 31.4721C34.5423 31.4721 30.2782 33.4497 28.0676 34.9195V8.01075ZM51.9444 37.6968C45.8552 35.1264 39.2294 34.2074 32.6983 35.0275C35.5979 34.0468 38.6366 33.5755 41.6875 33.6335C43.8937 33.6462 46.096 33.8231 48.2775 34.163C48.8495 34.2525 49.3837 33.8468 49.4705 33.2567C49.479 33.199 49.483 33.1407 49.4823 33.0823V5.9899H51.9863L51.9444 37.6968Z" fill="#D500E8"/>
</svg>
